G04*
G04 #@! TF.GenerationSoftware,Altium Limited,Altium Designer,26.3.0 (6)*
G04*
G04 Layer_Color=8388736*
%FSLAX44Y44*%
%MOMM*%
G71*
G04*
G04 #@! TF.SameCoordinates,E8035D2E-C871-41B3-A0EA-CA4AC8B1DBE5*
G04*
G04*
G04 #@! TF.FilePolarity,Negative*
G04*
G01*
G75*
%ADD14R,1.2621X1.0061*%
%ADD15R,1.0061X1.2621*%
%ADD29R,2.4532X2.0032*%
%ADD30R,1.2032X1.6532*%
%ADD31R,1.4032X0.8032*%
%ADD32R,2.0032X0.6532*%
%ADD33R,1.7532X1.5532*%
%ADD34R,1.6732X1.1932*%
%ADD35R,1.7032X0.8032*%
%ADD36R,1.6732X1.2232*%
%ADD37R,1.6532X1.4032*%
%ADD38R,1.6532X1.4532*%
%ADD39R,1.3032X1.5032*%
%ADD40R,1.4532X1.6532*%
%ADD41R,1.6532X1.3532*%
%ADD42R,1.5400X1.5400*%
%ADD43C,1.5400*%
%ADD44P,2.1496X4X70.0*%
%ADD45C,1.5200*%
%ADD46C,5.2032*%
%ADD47C,0.7100*%
G04:AMPARAMS|DCode=48|XSize=1.01mm|YSize=0.71mm|CornerRadius=0.355mm|HoleSize=0mm|Usage=FLASHONLY|Rotation=270.000|XOffset=0mm|YOffset=0mm|HoleType=Round|Shape=RoundedRectangle|*
%AMROUNDEDRECTD48*
21,1,1.0100,0.0000,0,0,270.0*
21,1,0.3000,0.7100,0,0,270.0*
1,1,0.7100,0.0000,-0.1500*
1,1,0.7100,0.0000,0.1500*
1,1,0.7100,0.0000,0.1500*
1,1,0.7100,0.0000,-0.1500*
%
%ADD48ROUNDEDRECTD48*%
G04:AMPARAMS|DCode=49|XSize=1.6mm|YSize=1.1mm|CornerRadius=0.55mm|HoleSize=0mm|Usage=FLASHONLY|Rotation=270.000|XOffset=0mm|YOffset=0mm|HoleType=Round|Shape=RoundedRectangle|*
%AMROUNDEDRECTD49*
21,1,1.6000,0.0000,0,0,270.0*
21,1,0.5000,1.1000,0,0,270.0*
1,1,1.1000,0.0000,-0.2500*
1,1,1.1000,0.0000,0.2500*
1,1,1.1000,0.0000,0.2500*
1,1,1.1000,0.0000,-0.2500*
%
%ADD49ROUNDEDRECTD49*%
%ADD50C,0.7032*%
%ADD51C,0.8032*%
D14*
X397082Y544217D02*
D03*
Y529695D02*
D03*
X418846Y448923D02*
D03*
Y463445D02*
D03*
X458724Y380895D02*
D03*
Y366373D02*
D03*
X509778Y380895D02*
D03*
Y366373D02*
D03*
X308078Y328549D02*
D03*
Y343071D02*
D03*
X299994Y475220D02*
D03*
Y489742D02*
D03*
X325494Y475340D02*
D03*
Y489861D02*
D03*
D15*
X304188Y428940D02*
D03*
X289666D02*
D03*
X304134Y454440D02*
D03*
X289612D02*
D03*
D29*
X387944Y483029D02*
D03*
Y454029D02*
D03*
X447956Y441403D02*
D03*
Y470403D02*
D03*
X480690Y441971D02*
D03*
Y470971D02*
D03*
X354618Y453670D02*
D03*
Y482670D02*
D03*
D30*
X438532Y327162D02*
D03*
X457532D02*
D03*
X438532Y345694D02*
D03*
X457532D02*
D03*
X457556Y307340D02*
D03*
X438556D02*
D03*
D31*
X485046Y346304D02*
D03*
X508046D02*
D03*
Y336804D02*
D03*
Y327304D02*
D03*
X485046Y336804D02*
D03*
Y327304D02*
D03*
D32*
X402844Y344782D02*
D03*
X331844Y403282D02*
D03*
Y416282D02*
D03*
X402844Y403282D02*
D03*
X331844Y409782D02*
D03*
X402844D02*
D03*
Y351282D02*
D03*
Y357782D02*
D03*
Y364282D02*
D03*
Y370782D02*
D03*
Y377282D02*
D03*
Y383782D02*
D03*
Y390282D02*
D03*
Y396782D02*
D03*
Y416282D02*
D03*
Y422782D02*
D03*
Y429282D02*
D03*
X331844D02*
D03*
Y422782D02*
D03*
Y396782D02*
D03*
Y390282D02*
D03*
Y383782D02*
D03*
Y377282D02*
D03*
Y370782D02*
D03*
Y364282D02*
D03*
Y357782D02*
D03*
Y351282D02*
D03*
Y344782D02*
D03*
D33*
X447548Y260506D02*
D03*
Y280006D02*
D03*
X431800Y365916D02*
D03*
Y385416D02*
D03*
D34*
X419198Y529026D02*
D03*
Y545426D02*
D03*
D35*
X424282Y573278D02*
D03*
X405282Y563778D02*
D03*
Y582778D02*
D03*
D36*
X444246Y573560D02*
D03*
Y589760D02*
D03*
D37*
X484124Y382134D02*
D03*
Y365134D02*
D03*
D38*
X260858Y441570D02*
D03*
Y424570D02*
D03*
D39*
X269606Y383724D02*
D03*
X287606Y406724D02*
D03*
X269606D02*
D03*
X287606Y383724D02*
D03*
D40*
X272678Y361950D02*
D03*
X289678D02*
D03*
D41*
X309372Y403974D02*
D03*
Y386474D02*
D03*
D42*
X422500Y217500D02*
D03*
D43*
Y282500D02*
D03*
X377500Y217500D02*
D03*
Y282500D02*
D03*
D44*
X312087Y545965D02*
D03*
D45*
X335108Y556699D02*
D03*
X358128Y567434D02*
D03*
D46*
X487500Y248400D02*
D03*
Y551600D02*
D03*
X225000Y400000D02*
D03*
D47*
X550000Y440000D02*
D03*
D48*
Y360000D02*
D03*
D49*
X535700Y440000D02*
D03*
Y360000D02*
D03*
X564300Y440000D02*
D03*
Y360000D02*
D03*
D50*
X483870Y312674D02*
D03*
D51*
X549910Y347980D02*
D03*
X585470Y417322D02*
D03*
X606806Y376428D02*
D03*
X599694Y343662D02*
D03*
X588518Y330454D02*
D03*
X572516Y324866D02*
D03*
X556463Y325139D02*
D03*
X538480Y325120D02*
D03*
X594106Y378968D02*
D03*
X599694Y414782D02*
D03*
X608076Y392430D02*
D03*
X564642Y381508D02*
D03*
X535432D02*
D03*
X587756Y454660D02*
D03*
X577524Y440000D02*
D03*
X535700Y454420D02*
D03*
X419100Y322580D02*
D03*
X410210Y331470D02*
D03*
X424434Y350012D02*
D03*
X378142Y424244D02*
D03*
X260858Y455168D02*
D03*
X418039Y364670D02*
D03*
X416693Y383661D02*
D03*
X388816Y370782D02*
D03*
X376174Y331470D02*
D03*
X388112Y392176D02*
D03*
X346710Y377190D02*
D03*
X388112Y403098D02*
D03*
X387604Y412750D02*
D03*
X346964Y400304D02*
D03*
X346710Y409702D02*
D03*
X371094Y497586D02*
D03*
X564642Y418846D02*
D03*
X535178D02*
D03*
M02*
