G04*
G04 #@! TF.GenerationSoftware,Altium Limited,Altium Designer,26.2.0 (7)*
G04*
G04 Layer_Color=65535*
%FSLAX44Y44*%
%MOMM*%
G71*
G04*
G04 #@! TF.SameCoordinates,1EA23FBA-1D85-42B1-9F3F-7DEC5DB412DD*
G04*
G04*
G04 #@! TF.FilePolarity,Positive*
G04*
G01*
G75*
%ADD10C,0.2500*%
%ADD11C,0.1000*%
%ADD12C,0.2000*%
%ADD13C,0.1500*%
D10*
X286540Y557325D02*
G03*
X286540Y557325I-1250J0D01*
G01*
X406250Y580000D02*
G03*
X406250Y580000I-1250J0D01*
G01*
X532250Y308250D02*
G03*
X532250Y308250I-1250J0D01*
G01*
D11*
X298234Y408500D02*
G03*
X299234Y408500I500J0D01*
G01*
D02*
G03*
X298234Y408500I-500J0D01*
G01*
D12*
X473456Y312097D02*
Y322597D01*
Y330629D02*
Y341129D01*
X414250Y495209D02*
Y519791D01*
X435750Y495209D02*
Y519791D01*
X381453Y475016D02*
Y516016D01*
X409453Y481016D02*
Y516016D01*
X432500Y489000D02*
X467500D01*
X432500Y461000D02*
X473500D01*
X432500Y454000D02*
X467500D01*
X432500Y426000D02*
X473500D01*
X285780Y572008D02*
X296853Y548263D01*
X368179Y581523D01*
X357107Y605268D02*
X368179Y581523D01*
X285780Y572008D02*
X357107Y605268D01*
X325209Y363250D02*
X349791D01*
X325209Y341750D02*
X349791D01*
X310750Y475209D02*
Y499791D01*
X289250Y475209D02*
Y499791D01*
X339690Y476000D02*
Y500582D01*
X318190Y476000D02*
Y500582D01*
X421500Y546500D02*
Y555000D01*
X416500Y546500D02*
X421500D01*
Y569000D02*
Y577500D01*
X416500D02*
X421500D01*
X430448Y418250D02*
X455030D01*
X430448Y396750D02*
X455030D01*
X489750Y365000D02*
X500250D01*
X377000Y348905D02*
X387500D01*
X345864Y475016D02*
Y516016D01*
X373864Y481016D02*
Y516016D01*
X347000Y369000D02*
X393000D01*
X347000D02*
Y471000D01*
X393000D01*
Y369000D02*
Y471000D01*
X396500Y372000D02*
X414500D01*
X518000Y310750D02*
X521000D01*
X518000Y341750D02*
X521000D01*
Y310750D02*
Y341750D01*
X518000Y310750D02*
Y341750D01*
D13*
X231950Y308192D02*
X233008Y308766D01*
X231448Y307097D01*
X231950Y308192D01*
X231913Y309268D01*
X231339Y310327D01*
X230504Y311107D01*
X229409Y311609D01*
X228333Y311573D01*
X227812Y311016D01*
X227571Y310200D01*
X227589Y309662D01*
X227885Y308863D01*
X229034Y306746D01*
X229331Y305948D01*
X229367Y304871D01*
X227812Y311016D02*
X227849Y309940D01*
X228145Y309141D01*
X229294Y307024D01*
X229590Y306226D01*
X229609Y305688D01*
X229367Y304871D01*
X228326Y303758D01*
X227250Y303722D01*
X226155Y304224D01*
X225320Y305004D01*
X224746Y306063D01*
X224709Y307139D01*
X225212Y308234D01*
X223651Y306565D01*
X224709Y307139D01*
X235110Y303151D02*
X228408Y302117D01*
X235389Y302891D02*
X228687Y301857D01*
X232328Y305752D02*
X231010Y304899D01*
X232050Y306012D01*
X235389Y302891D01*
X228408Y302117D02*
X231747Y298996D01*
X232787Y300109D01*
X231469Y299256D01*
X236863Y301512D02*
X234891Y296057D01*
X237141Y301252D02*
X235411Y296613D01*
X240202Y298391D02*
X234891Y296057D01*
X233294Y295464D01*
X232217Y295428D01*
X231401Y295670D01*
X231123Y295930D01*
X231105Y296468D01*
X231643Y296486D01*
X231661Y295948D01*
X236307Y302033D02*
X237976Y300472D01*
X239089Y299431D02*
X240758Y297871D01*
X242400Y296336D02*
X238758Y292441D01*
X242678Y296076D02*
X239037Y292181D01*
X241898Y295241D02*
X242974Y295278D01*
X244069Y294776D01*
X244625Y294255D01*
X245200Y293197D01*
X244958Y292380D01*
X242097Y289320D01*
X244625Y294255D02*
X244922Y293457D01*
X244680Y292640D01*
X241819Y289580D01*
X244958Y292380D02*
X246035Y292416D01*
X247129Y291914D01*
X247686Y291394D01*
X248260Y290336D01*
X248018Y289519D01*
X245157Y286459D01*
X247686Y291394D02*
X247982Y290596D01*
X247740Y289779D01*
X244879Y286719D01*
X241565Y297117D02*
X242678Y296076D01*
X237924Y293221D02*
X239871Y291401D01*
X240984Y290360D02*
X242932Y288540D01*
X244044Y287499D02*
X245992Y285678D01*
X251748Y287597D02*
X250653Y288099D01*
X249577Y288062D01*
X248518Y287488D01*
X247998Y286931D01*
X247496Y285837D01*
X247532Y284760D01*
X248106Y283701D01*
X248663Y283181D01*
X249758Y282679D01*
X250834Y282715D01*
X251893Y283290D01*
X252413Y283846D01*
X252915Y284941D01*
X252879Y286018D01*
X252304Y287076D01*
X251748Y287597D01*
X250931Y287839D01*
X249855Y287802D01*
X248796Y287228D01*
X248276Y286671D01*
X247774Y285577D01*
X247810Y284500D01*
X248106Y283701D01*
X248663Y283181D02*
X249480Y282939D01*
X250556Y282976D01*
X251615Y283550D01*
X252135Y284107D01*
X252637Y285201D01*
X252601Y286278D01*
X252304Y287076D01*
X255671Y283929D02*
X252029Y280034D01*
X255949Y283669D02*
X252308Y279774D01*
X255169Y282834D02*
X256245Y282871D01*
X257340Y282369D01*
X257897Y281848D01*
X258471Y280790D01*
X258229Y279973D01*
X255368Y276913D01*
X257897Y281848D02*
X258193Y281050D01*
X257951Y280233D01*
X255090Y277173D01*
X254836Y284709D02*
X255949Y283669D01*
X251195Y280814D02*
X253142Y278994D01*
X254255Y277953D02*
X256203Y276132D01*
X268509Y275576D02*
X263047Y269734D01*
X268787Y275316D02*
X263325Y269474D01*
X267675Y276357D02*
X270457Y273756D01*
X271031Y272697D01*
X271068Y271621D01*
X270826Y270804D01*
X270324Y269709D01*
X269023Y268318D01*
X267964Y267743D01*
X267166Y267447D01*
X266089Y267411D01*
X264995Y267913D01*
X262212Y270514D01*
X270457Y273756D02*
X270753Y272957D01*
X270789Y271881D01*
X270547Y271064D01*
X270045Y269969D01*
X268745Y268578D01*
X267686Y268004D01*
X266888Y267707D01*
X265811Y267671D01*
X264995Y267913D01*
X273032Y267698D02*
X271937Y268200D01*
X270861Y268164D01*
X269802Y267590D01*
X269282Y267033D01*
X268780Y265938D01*
X268816Y264862D01*
X269390Y263803D01*
X269947Y263283D01*
X271042Y262781D01*
X272118Y262817D01*
X273177Y263392D01*
X273697Y263948D01*
X274199Y265043D01*
X274163Y266120D01*
X273588Y267178D01*
X273032Y267698D01*
X272215Y267940D01*
X271139Y267904D01*
X270080Y267330D01*
X269560Y266773D01*
X269058Y265678D01*
X269094Y264602D01*
X269390Y263803D01*
X269947Y263283D02*
X270763Y263041D01*
X271840Y263077D01*
X272899Y263652D01*
X273419Y264208D01*
X273921Y265303D01*
X273885Y266380D01*
X273588Y267178D01*
X278776Y265979D02*
X273313Y260136D01*
X279054Y265718D02*
X273592Y259876D01*
X276453Y262936D02*
X277529Y262972D01*
X278346Y262730D01*
X278902Y262210D01*
X279477Y261152D01*
X279513Y260075D01*
X279011Y258980D01*
X278491Y258424D01*
X277432Y257849D01*
X276356Y257813D01*
X275261Y258315D01*
X274704Y258835D01*
X274408Y259634D01*
X274372Y260710D01*
X278902Y262210D02*
X279199Y261412D01*
X279235Y260335D01*
X278733Y259240D01*
X278213Y258684D01*
X277154Y258109D01*
X276077Y258073D01*
X275261Y258315D01*
X277941Y266759D02*
X279054Y265718D01*
X282213Y259115D02*
X278572Y255220D01*
X282491Y258855D02*
X278850Y254960D01*
X280931Y257185D02*
X281989Y257760D01*
X283066Y257796D01*
X283883Y257554D01*
X284717Y256774D01*
X284735Y256236D01*
X284475Y255957D01*
X283937Y255939D01*
X283919Y256478D01*
X284457Y256496D01*
X281379Y259895D02*
X282491Y258855D01*
X277737Y256000D02*
X279685Y254179D01*
X287555Y254121D02*
X286460Y254623D01*
X285384Y254587D01*
X284325Y254012D01*
X283805Y253456D01*
X283303Y252361D01*
X283339Y251284D01*
X283914Y250226D01*
X284470Y249706D01*
X285565Y249203D01*
X286642Y249240D01*
X287700Y249814D01*
X288220Y250371D01*
X288722Y251465D01*
X288686Y252542D01*
X288111Y253601D01*
X287555Y254121D01*
X286739Y254363D01*
X285662Y254327D01*
X284603Y253752D01*
X284083Y253196D01*
X283581Y252101D01*
X283617Y251024D01*
X283914Y250226D01*
X284470Y249706D02*
X285287Y249464D01*
X286363Y249500D01*
X287422Y250074D01*
X287942Y250631D01*
X288444Y251726D01*
X288408Y252802D01*
X288111Y253601D01*
X291478Y250453D02*
X288949Y245518D01*
X291756Y250193D02*
X289730Y246353D01*
X293704Y248372D02*
X288949Y245518D01*
X293704Y248372D02*
X291175Y243437D01*
X293982Y248112D02*
X291956Y244272D01*
X295930Y246292D02*
X291175Y243437D01*
X290643Y251234D02*
X292591Y249413D01*
X295095Y247072D02*
X296764Y245511D01*
X299074Y243352D02*
X297979Y243855D01*
X296902Y243818D01*
X295844Y243244D01*
X295323Y242687D01*
X294821Y241593D01*
X294857Y240516D01*
X295432Y239457D01*
X295988Y238937D01*
X297083Y238435D01*
X298160Y238471D01*
X299218Y239046D01*
X299739Y239602D01*
X300241Y240697D01*
X300205Y241774D01*
X299630Y242832D01*
X299074Y243352D01*
X298257Y243594D01*
X297180Y243558D01*
X296122Y242984D01*
X295602Y242427D01*
X295099Y241332D01*
X295136Y240256D01*
X295432Y239457D01*
X295988Y238937D02*
X296805Y238695D01*
X297882Y238731D01*
X298940Y239306D01*
X299460Y239862D01*
X299963Y240957D01*
X299926Y242034D01*
X299630Y242832D01*
X304817Y241632D02*
X299355Y235790D01*
X305095Y241372D02*
X299633Y235530D01*
X303983Y242413D02*
X305095Y241372D01*
X298520Y236570D02*
X300468Y234749D01*
X307428Y234499D02*
X308227Y234795D01*
X307187Y233682D01*
X307428Y234499D01*
X307410Y235037D01*
X307114Y235835D01*
X306001Y236876D01*
X305185Y237118D01*
X304646Y237100D01*
X304126Y236543D01*
X304144Y236005D01*
X304440Y235206D01*
X305311Y233349D01*
X305608Y232551D01*
X305626Y232013D01*
X304386Y236821D02*
X304404Y236283D01*
X304701Y235485D01*
X305572Y233628D01*
X305868Y232829D01*
X305886Y232291D01*
X305106Y231456D01*
X304567Y231438D01*
X303751Y231680D01*
X302638Y232721D01*
X302342Y233519D01*
X302323Y234057D01*
X302565Y234874D01*
X301525Y233761D01*
X302323Y234057D01*
X311828Y235078D02*
X306366Y229235D01*
X312107Y234818D02*
X306644Y228975D01*
X313068Y230269D02*
X307685Y230088D01*
X310116Y229900D02*
X309705Y226114D01*
X309838Y230160D02*
X309426Y226374D01*
X310994Y235858D02*
X312107Y234818D01*
X312233Y231049D02*
X313903Y229489D01*
X305531Y230015D02*
X307479Y228195D01*
X308592Y227154D02*
X310261Y225594D01*
X317337Y229928D02*
X316799Y229909D01*
X316817Y229371D01*
X317355Y229389D01*
X317337Y229928D01*
X315516Y227980D02*
X311875Y224085D01*
X315795Y227720D02*
X312153Y223825D01*
X314682Y228760D02*
X315795Y227720D01*
X311040Y224865D02*
X312988Y223045D01*
X491047Y322640D02*
X499045D01*
Y318642D01*
X497712Y317309D01*
X495046D01*
X493713Y318642D01*
Y322640D01*
Y319975D02*
X491047Y317309D01*
Y309312D02*
Y314643D01*
X496379Y309312D01*
X497712D01*
X499045Y310644D01*
Y313310D01*
X497712Y314643D01*
X349898Y570582D02*
X352151Y565749D01*
X355694Y564460D01*
X356983Y568003D01*
X354730Y572835D01*
X357146Y573961D02*
X360526Y566713D01*
X364150Y568403D01*
X364794Y570174D01*
X362541Y575007D01*
X360770Y575651D01*
X357146Y573961D01*
X364394Y577341D02*
X367774Y570093D01*
X371398Y571783D01*
X372043Y573554D01*
X369789Y578386D01*
X368018Y579031D01*
X364394Y577341D01*
X329910Y551395D02*
X326530Y558643D01*
X330072Y557354D01*
X331362Y560897D01*
X334742Y553649D01*
X333778Y562023D02*
X336194Y563150D01*
X334986Y562587D01*
X338366Y555339D01*
X337158Y554775D01*
X339574Y555902D01*
X345213Y565885D02*
X343442Y566530D01*
X341026Y565403D01*
X340381Y563632D01*
X342634Y558800D01*
X344406Y558155D01*
X346822Y559282D01*
X347467Y561053D01*
X297143Y535647D02*
X294890Y540479D01*
X296180Y544022D01*
X299722Y542733D01*
X301976Y537901D01*
X300286Y541525D01*
X295454Y539271D01*
X306407Y547321D02*
X304636Y547965D01*
X302220Y546839D01*
X301575Y545067D01*
X303828Y540235D01*
X305600Y539590D01*
X308016Y540717D01*
X308660Y542489D01*
X307534Y544905D01*
X305118Y543778D01*
X311640Y542407D02*
X308260Y549655D01*
X316472Y544660D01*
X313092Y551908D01*
X315508Y553035D02*
X318888Y545787D01*
X322512Y547477D01*
X323157Y549248D01*
X320903Y554080D01*
X319132Y554725D01*
X315508Y553035D01*
X485166Y441333D02*
X486499Y442666D01*
Y445332D01*
X485166Y446665D01*
X479834D01*
X478501Y445332D01*
Y442666D01*
X479834Y441333D01*
X486499Y433335D02*
Y438667D01*
X482500D01*
X483833Y436001D01*
Y434668D01*
X482500Y433335D01*
X479834D01*
X478501Y434668D01*
Y437334D01*
X479834Y438667D01*
X374082Y413751D02*
Y420416D01*
X372749Y421749D01*
X370083D01*
X368750Y420416D01*
Y413751D01*
X366084Y421749D02*
X363418D01*
X364751D01*
Y413751D01*
X366084Y415084D01*
X253501Y414668D02*
X254834D01*
X257500Y417334D01*
X254834Y420000D01*
X253501D01*
X257500Y417334D02*
X261499D01*
Y422666D02*
Y425332D01*
Y423999D01*
X253501D01*
X254834Y422666D01*
X408086Y592749D02*
Y586084D01*
X409418Y584751D01*
X412084D01*
X413417Y586084D01*
Y592749D01*
X416083Y591416D02*
X417416Y592749D01*
X420082D01*
X421414Y591416D01*
Y590083D01*
X420082Y588750D01*
X418749D01*
X420082D01*
X421414Y587417D01*
Y586084D01*
X420082Y584751D01*
X417416D01*
X416083Y586084D01*
X528665Y294751D02*
Y301416D01*
X527332Y302749D01*
X524666D01*
X523333Y301416D01*
Y294751D01*
X515336Y302749D02*
X520667D01*
X515336Y297417D01*
Y296084D01*
X516668Y294751D01*
X519334D01*
X520667Y296084D01*
X490957Y342543D02*
X498955D01*
Y338545D01*
X497622Y337212D01*
X494956D01*
X493623Y338545D01*
Y342543D01*
Y339878D02*
X490957Y337212D01*
X497622Y334546D02*
X498955Y333213D01*
Y330547D01*
X497622Y329214D01*
X496289D01*
X494956Y330547D01*
Y331880D01*
Y330547D01*
X493623Y329214D01*
X492290D01*
X490957Y330547D01*
Y333213D01*
X492290Y334546D01*
X503501Y414165D02*
X511499D01*
Y410166D01*
X510166Y408833D01*
X507500D01*
X506167Y410166D01*
Y414165D01*
Y411499D02*
X503501Y408833D01*
X511499Y400835D02*
Y406167D01*
X507500D01*
X508833Y403501D01*
Y402168D01*
X507500Y400835D01*
X504834D01*
X503501Y402168D01*
Y404834D01*
X504834Y406167D01*
X440835Y293501D02*
Y301499D01*
X444834D01*
X446167Y300166D01*
Y297500D01*
X444834Y296167D01*
X440835D01*
X443501D02*
X446167Y293501D01*
X448833Y301499D02*
X454165D01*
Y300166D01*
X448833Y294834D01*
Y293501D01*
X316665Y400749D02*
Y392751D01*
X312666D01*
X311333Y394084D01*
Y396750D01*
X312666Y398083D01*
X316665D01*
X313999D02*
X311333Y400749D01*
X308667Y394084D02*
X307334Y392751D01*
X304668D01*
X303335Y394084D01*
Y395417D01*
X304668Y396750D01*
X303335Y398083D01*
Y399416D01*
X304668Y400749D01*
X307334D01*
X308667Y399416D01*
Y398083D01*
X307334Y396750D01*
X308667Y395417D01*
Y394084D01*
X307334Y396750D02*
X304668D01*
X393511Y354836D02*
X401509D01*
Y350837D01*
X400176Y349504D01*
X397510D01*
X396177Y350837D01*
Y354836D01*
Y352170D02*
X393511Y349504D01*
Y346838D02*
Y344172D01*
Y345505D01*
X401509D01*
X400176Y346838D01*
X513999Y370332D02*
X506001D01*
Y365000D01*
Y362334D02*
Y359668D01*
Y361001D01*
X513999D01*
X512666Y362334D01*
X374978Y599448D02*
X373851Y601864D01*
X374414Y600656D01*
X368374Y597839D01*
X366603Y598484D01*
X366040Y599692D01*
X366684Y601463D01*
X371109Y588820D02*
X368856Y593652D01*
X375942Y591073D01*
X377150Y591636D01*
X377794Y593408D01*
X376668Y595824D01*
X374896Y596468D01*
X382363Y536068D02*
X383696Y534735D01*
X386362D01*
X387695Y536068D01*
Y541400D01*
X386362Y542733D01*
X383696D01*
X382363Y541400D01*
X379697Y542733D02*
X377032D01*
X378364D01*
Y534735D01*
X379697Y536068D01*
X367701Y542733D02*
X373033D01*
X367701Y537401D01*
Y536068D01*
X369034Y534735D01*
X371700D01*
X373033Y536068D01*
X444072Y384834D02*
X445405Y383501D01*
X448071D01*
X449404Y384834D01*
Y390166D01*
X448071Y391499D01*
X445405D01*
X444072Y390166D01*
X436075Y391499D02*
X441406D01*
X436075Y386167D01*
Y384834D01*
X437407Y383501D01*
X440073D01*
X441406Y384834D01*
X298167Y510166D02*
X296834Y511499D01*
X294168D01*
X292836Y510166D01*
Y504834D01*
X294168Y503501D01*
X296834D01*
X298167Y504834D01*
X300833Y510166D02*
X302166Y511499D01*
X304832D01*
X306165Y510166D01*
Y508833D01*
X304832Y507500D01*
X303499D01*
X304832D01*
X306165Y506167D01*
Y504834D01*
X304832Y503501D01*
X302166D01*
X300833Y504834D01*
X314334Y352250D02*
X313001Y350917D01*
Y348251D01*
X314334Y346918D01*
X319666D01*
X320999Y348251D01*
Y350917D01*
X319666Y352250D01*
X320999Y354916D02*
Y357582D01*
Y356249D01*
X313001D01*
X314334Y354916D01*
X423417Y531666D02*
X422084Y532999D01*
X419418D01*
X418086Y531666D01*
Y526334D01*
X419418Y525001D01*
X422084D01*
X423417Y526334D01*
X426083Y531666D02*
X427416Y532999D01*
X430082D01*
X431414Y531666D01*
Y530333D01*
X430082Y529000D01*
X431414Y527667D01*
Y526334D01*
X430082Y525001D01*
X427416D01*
X426083Y526334D01*
Y527667D01*
X427416Y529000D01*
X426083Y530333D01*
Y531666D01*
X427416Y529000D02*
X430082D01*
X327607Y510957D02*
X326275Y512290D01*
X323609D01*
X322276Y510957D01*
Y505625D01*
X323609Y504292D01*
X326275D01*
X327607Y505625D01*
X334272Y504292D02*
Y512290D01*
X330273Y508291D01*
X335605D01*
X483698Y477888D02*
X485031Y479221D01*
Y481887D01*
X483698Y483220D01*
X478366D01*
X477033Y481887D01*
Y479221D01*
X478366Y477888D01*
X477033Y475222D02*
Y472556D01*
Y473889D01*
X485031D01*
X483698Y475222D01*
Y468558D02*
X485031Y467225D01*
Y464559D01*
X483698Y463226D01*
X478366D01*
X477033Y464559D01*
Y467225D01*
X478366Y468558D01*
X483698D01*
X394120Y531182D02*
X392787Y532515D01*
X390121D01*
X388788Y531182D01*
Y525850D01*
X390121Y524517D01*
X392787D01*
X394120Y525850D01*
X396786Y532515D02*
X402118D01*
Y531182D01*
X396786Y525850D01*
Y524517D01*
X358531Y532010D02*
X357198Y533343D01*
X354532D01*
X353199Y532010D01*
Y526678D01*
X354532Y525345D01*
X357198D01*
X358531Y526678D01*
X366528Y533343D02*
X363862Y532010D01*
X361197Y529344D01*
Y526678D01*
X362529Y525345D01*
X365195D01*
X366528Y526678D01*
Y528011D01*
X365195Y529344D01*
X361197D01*
X254834Y450335D02*
X253501Y449002D01*
Y446336D01*
X254834Y445003D01*
X260166D01*
X261499Y446336D01*
Y449002D01*
X260166Y450335D01*
X261499Y453001D02*
Y455666D01*
Y454334D01*
X253501D01*
X254834Y453001D01*
X261499Y463664D02*
X253501D01*
X257500Y459665D01*
Y464997D01*
X254834Y380335D02*
X253501Y379002D01*
Y376336D01*
X254834Y375003D01*
X260166D01*
X261499Y376336D01*
Y379002D01*
X260166Y380335D01*
X261499Y383001D02*
Y385666D01*
Y384333D01*
X253501D01*
X254834Y383001D01*
Y389665D02*
X253501Y390998D01*
Y393664D01*
X254834Y394997D01*
X256167D01*
X257500Y393664D01*
Y392331D01*
Y393664D01*
X258833Y394997D01*
X260166D01*
X261499Y393664D01*
Y390998D01*
X260166Y389665D01*
X444168Y572666D02*
X442835Y573999D01*
X440169D01*
X438836Y572666D01*
Y567334D01*
X440169Y566001D01*
X442835D01*
X444168Y567334D01*
X446833Y566001D02*
X449499D01*
X448167D01*
Y573999D01*
X446833Y572666D01*
X453498Y566001D02*
X456164D01*
X454831D01*
Y573999D01*
X453498Y572666D01*
M02*
