G04*
G04 #@! TF.GenerationSoftware,Altium Limited,Altium Designer,26.3.0 (6)*
G04*
G04 Layer_Color=8421504*
%FSLAX44Y44*%
%MOMM*%
G71*
G04*
G04 #@! TF.SameCoordinates,E8035D2E-C871-41B3-A0EA-CA4AC8B1DBE5*
G04*
G04*
G04 #@! TF.FilePolarity,Positive*
G04*
G01*
G75*
%ADD14R,1.2621X1.0061*%
%ADD15R,1.0061X1.2621*%
%ADD16R,2.2500X1.8000*%
%ADD17R,1.0000X1.4500*%
%ADD18R,1.2000X0.6000*%
%ADD19R,1.8000X0.4500*%
%ADD20R,1.5500X1.3500*%
%ADD21R,1.4700X0.9900*%
%ADD22R,1.5000X0.6000*%
%ADD23R,1.4700X1.0200*%
%ADD24R,1.4500X1.2000*%
%ADD25R,1.4500X1.2500*%
%ADD26R,1.1000X1.3000*%
%ADD27R,1.2500X1.4500*%
%ADD28R,1.4500X1.1500*%
D14*
X397082Y544217D02*
D03*
Y529695D02*
D03*
X418846Y448923D02*
D03*
Y463445D02*
D03*
X458724Y380895D02*
D03*
Y366373D02*
D03*
X509778Y380895D02*
D03*
Y366373D02*
D03*
X308078Y328549D02*
D03*
Y343071D02*
D03*
X299994Y475220D02*
D03*
Y489742D02*
D03*
X325494Y475340D02*
D03*
Y489861D02*
D03*
D15*
X304188Y428940D02*
D03*
X289666D02*
D03*
X304134Y454440D02*
D03*
X289612D02*
D03*
D16*
X387944Y483029D02*
D03*
Y454029D02*
D03*
X447956Y441403D02*
D03*
Y470403D02*
D03*
X480690Y441971D02*
D03*
Y470971D02*
D03*
X354618Y453670D02*
D03*
Y482670D02*
D03*
D17*
X438532Y327162D02*
D03*
X457532D02*
D03*
X438532Y345694D02*
D03*
X457532D02*
D03*
X457556Y307340D02*
D03*
X438556D02*
D03*
D18*
X485046Y346304D02*
D03*
X508046D02*
D03*
Y336804D02*
D03*
Y327304D02*
D03*
X485046Y336804D02*
D03*
Y327304D02*
D03*
D19*
X402844Y344782D02*
D03*
X331844Y403282D02*
D03*
Y416282D02*
D03*
X402844Y403282D02*
D03*
X331844Y409782D02*
D03*
X402844D02*
D03*
Y351282D02*
D03*
Y357782D02*
D03*
Y364282D02*
D03*
Y370782D02*
D03*
Y377282D02*
D03*
Y383782D02*
D03*
Y390282D02*
D03*
Y396782D02*
D03*
Y416282D02*
D03*
Y422782D02*
D03*
Y429282D02*
D03*
X331844D02*
D03*
Y422782D02*
D03*
Y396782D02*
D03*
Y390282D02*
D03*
Y383782D02*
D03*
Y377282D02*
D03*
Y370782D02*
D03*
Y364282D02*
D03*
Y357782D02*
D03*
Y351282D02*
D03*
Y344782D02*
D03*
D20*
X447548Y260506D02*
D03*
Y280006D02*
D03*
X431800Y365916D02*
D03*
Y385416D02*
D03*
D21*
X419198Y529026D02*
D03*
Y545426D02*
D03*
D22*
X424282Y573278D02*
D03*
X405282Y563778D02*
D03*
Y582778D02*
D03*
D23*
X444246Y573560D02*
D03*
Y589760D02*
D03*
D24*
X484124Y382134D02*
D03*
Y365134D02*
D03*
D25*
X260858Y441570D02*
D03*
Y424570D02*
D03*
D26*
X269606Y383724D02*
D03*
X287606Y406724D02*
D03*
X269606D02*
D03*
X287606Y383724D02*
D03*
D27*
X272678Y361950D02*
D03*
X289678D02*
D03*
D28*
X309372Y403974D02*
D03*
Y386474D02*
D03*
M02*
