G04*
G04 #@! TF.GenerationSoftware,Altium Limited,Altium Designer,26.2.0 (7)*
G04*
G04 Layer_Color=16711935*
%FSLAX44Y44*%
%MOMM*%
G71*
G04*
G04 #@! TF.SameCoordinates,5B242F3C-0802-4E50-8D42-2F795D51653B*
G04*
G04*
G04 #@! TF.FilePolarity,Negative*
G04*
G01*
G75*
%ADD20R,1.0061X1.2621*%
%ADD44C,1.5400*%
%ADD45R,1.5400X1.5400*%
%ADD46C,1.5200*%
%ADD47P,2.1496X4X70.0*%
%ADD48C,5.2032*%
%ADD49C,0.7100*%
G04:AMPARAMS|DCode=50|XSize=1.01mm|YSize=0.71mm|CornerRadius=0.355mm|HoleSize=0mm|Usage=FLASHONLY|Rotation=270.000|XOffset=0mm|YOffset=0mm|HoleType=Round|Shape=RoundedRectangle|*
%AMROUNDEDRECTD50*
21,1,1.0100,0.0000,0,0,270.0*
21,1,0.3000,0.7100,0,0,270.0*
1,1,0.7100,0.0000,-0.1500*
1,1,0.7100,0.0000,0.1500*
1,1,0.7100,0.0000,0.1500*
1,1,0.7100,0.0000,-0.1500*
%
%ADD50ROUNDEDRECTD50*%
G04:AMPARAMS|DCode=51|XSize=1.6mm|YSize=1.1mm|CornerRadius=0.55mm|HoleSize=0mm|Usage=FLASHONLY|Rotation=270.000|XOffset=0mm|YOffset=0mm|HoleType=Round|Shape=RoundedRectangle|*
%AMROUNDEDRECTD51*
21,1,1.6000,0.0000,0,0,270.0*
21,1,0.5000,1.1000,0,0,270.0*
1,1,1.1000,0.0000,-0.2500*
1,1,1.1000,0.0000,0.2500*
1,1,1.1000,0.0000,0.2500*
1,1,1.1000,0.0000,-0.2500*
%
%ADD51ROUNDEDRECTD51*%
%ADD52C,0.8032*%
%ADD61R,1.1500X0.3000*%
%ADD63R,0.8032X0.8032*%
%ADD64R,1.3532X1.6032*%
D20*
X362739Y410000D02*
D03*
X377261D02*
D03*
D44*
X377500Y282500D02*
D03*
Y217500D02*
D03*
X422500Y282500D02*
D03*
D45*
Y217500D02*
D03*
D46*
X350000Y587500D02*
D03*
X326980Y576766D02*
D03*
D47*
X303960Y566031D02*
D03*
D48*
X487500Y248400D02*
D03*
Y551600D02*
D03*
X225000Y400000D02*
D03*
D49*
X550000Y440000D02*
D03*
D50*
Y360000D02*
D03*
D51*
X535700Y440000D02*
D03*
Y360000D02*
D03*
X564300Y440000D02*
D03*
Y360000D02*
D03*
D52*
X382250Y387250D02*
D03*
X448750Y519750D02*
D03*
X370000Y463250D02*
D03*
X350000Y446250D02*
D03*
X577000Y402500D02*
D03*
X519500Y304750D02*
D03*
X553000Y394250D02*
D03*
X546500Y405500D02*
D03*
X521500Y387250D02*
D03*
Y414750D02*
D03*
X349250Y410250D02*
D03*
X383000Y338500D02*
D03*
D61*
X535150Y427500D02*
D03*
Y372500D02*
D03*
Y412500D02*
D03*
Y407500D02*
D03*
Y402500D02*
D03*
Y397500D02*
D03*
Y392500D02*
D03*
Y387500D02*
D03*
X564850Y372500D02*
D03*
Y427500D02*
D03*
Y387500D02*
D03*
Y392500D02*
D03*
Y397500D02*
D03*
Y402500D02*
D03*
Y407500D02*
D03*
Y412500D02*
D03*
D63*
X365000Y450000D02*
D03*
X373000D02*
D03*
D64*
X561750Y465000D02*
D03*
X538250D02*
D03*
X553000Y335250D02*
D03*
X576500D02*
D03*
M02*
