G04*
G04 #@! TF.GenerationSoftware,Altium Limited,Altium Designer,26.3.0 (6)*
G04*
G04 Layer_Color=8388736*
%FSLAX44Y44*%
%MOMM*%
G71*
G04*
G04 #@! TF.SameCoordinates,934A8800-F4A2-4094-9A0A-76B35AF3C916*
G04*
G04*
G04 #@! TF.FilePolarity,Negative*
G04*
G01*
G75*
%ADD15R,1.2621X1.0061*%
G04:AMPARAMS|DCode=17|XSize=1.55mm|YSize=0.6mm|CornerRadius=0.051mm|HoleSize=0mm|Usage=FLASHONLY|Rotation=0.000|XOffset=0mm|YOffset=0mm|HoleType=Round|Shape=RoundedRectangle|*
%AMROUNDEDRECTD17*
21,1,1.5500,0.4980,0,0,0.0*
21,1,1.4480,0.6000,0,0,0.0*
1,1,0.1020,0.7240,-0.2490*
1,1,0.1020,-0.7240,-0.2490*
1,1,0.1020,-0.7240,0.2490*
1,1,0.1020,0.7240,0.2490*
%
%ADD17ROUNDEDRECTD17*%
%ADD25R,1.2032X1.6532*%
%ADD26R,1.6532X1.2032*%
%ADD27R,2.4532X2.0032*%
%ADD28R,1.6732X1.2232*%
%ADD29R,2.0032X2.4532*%
%ADD30R,1.7532X1.5532*%
%ADD31R,1.5532X1.7532*%
%ADD32R,1.5532X1.2032*%
%ADD33R,1.4532X2.0032*%
%ADD34R,1.5200X1.5200*%
%ADD35C,1.5200*%
%ADD36C,5.2032*%
%ADD37C,1.5700*%
%ADD38R,1.5700X1.5700*%
%ADD39C,1.4732*%
D15*
X431790Y306169D02*
D03*
Y320691D02*
D03*
X336804Y345693D02*
D03*
Y360214D02*
D03*
X466610Y393852D02*
D03*
Y408373D02*
D03*
D17*
X367094Y396200D02*
D03*
Y383500D02*
D03*
Y370800D02*
D03*
Y358100D02*
D03*
X421094D02*
D03*
Y370800D02*
D03*
Y383500D02*
D03*
Y396200D02*
D03*
D25*
X470000Y361500D02*
D03*
X451000D02*
D03*
X413750Y460750D02*
D03*
X394750D02*
D03*
D26*
X336750Y378750D02*
D03*
Y397750D02*
D03*
X379250Y309250D02*
D03*
Y328250D02*
D03*
D27*
X404500Y513750D02*
D03*
Y484750D02*
D03*
D28*
X441750Y409212D02*
D03*
Y393013D02*
D03*
D29*
X347750Y281750D02*
D03*
X376750D02*
D03*
X269250Y403500D02*
D03*
X298250D02*
D03*
D30*
X404500Y304750D02*
D03*
Y324250D02*
D03*
X353750Y421500D02*
D03*
Y441000D02*
D03*
D31*
X301500Y438250D02*
D03*
X321000D02*
D03*
D32*
X374000Y495250D02*
D03*
Y480250D02*
D03*
D33*
X339250Y475500D02*
D03*
Y501500D02*
D03*
D34*
X496000Y338000D02*
D03*
D35*
Y363400D02*
D03*
Y388800D02*
D03*
D36*
X400000Y240000D02*
D03*
Y560000D02*
D03*
D37*
X354549Y536556D02*
D03*
D38*
X329149D02*
D03*
D39*
X359500Y338750D02*
D03*
X395000Y422500D02*
D03*
M02*
