G04*
G04 #@! TF.GenerationSoftware,Altium Limited,Altium Designer,26.2.0 (7)*
G04*
G04 Layer_Color=16711935*
%FSLAX44Y44*%
%MOMM*%
G71*
G04*
G04 #@! TF.SameCoordinates,1EA23FBA-1D85-42B1-9F3F-7DEC5DB412DD*
G04*
G04*
G04 #@! TF.FilePolarity,Negative*
G04*
G01*
G75*
%ADD23R,1.0061X1.2621*%
%ADD46C,1.5400*%
%ADD47R,1.5400X1.5400*%
%ADD48C,1.5200*%
%ADD49P,2.1496X4X70.0*%
%ADD50C,5.2032*%
%ADD51C,0.7100*%
G04:AMPARAMS|DCode=52|XSize=1.01mm|YSize=0.71mm|CornerRadius=0.355mm|HoleSize=0mm|Usage=FLASHONLY|Rotation=270.000|XOffset=0mm|YOffset=0mm|HoleType=Round|Shape=RoundedRectangle|*
%AMROUNDEDRECTD52*
21,1,1.0100,0.0000,0,0,270.0*
21,1,0.3000,0.7100,0,0,270.0*
1,1,0.7100,0.0000,-0.1500*
1,1,0.7100,0.0000,0.1500*
1,1,0.7100,0.0000,0.1500*
1,1,0.7100,0.0000,-0.1500*
%
%ADD52ROUNDEDRECTD52*%
G04:AMPARAMS|DCode=53|XSize=1.6mm|YSize=1.1mm|CornerRadius=0.55mm|HoleSize=0mm|Usage=FLASHONLY|Rotation=270.000|XOffset=0mm|YOffset=0mm|HoleType=Round|Shape=RoundedRectangle|*
%AMROUNDEDRECTD53*
21,1,1.6000,0.0000,0,0,270.0*
21,1,0.5000,1.1000,0,0,270.0*
1,1,1.1000,0.0000,-0.2500*
1,1,1.1000,0.0000,0.2500*
1,1,1.1000,0.0000,0.2500*
1,1,1.1000,0.0000,-0.2500*
%
%ADD53ROUNDEDRECTD53*%
%ADD54C,0.8032*%
%ADD64R,1.1500X0.3000*%
%ADD65R,0.8032X0.8032*%
%ADD66R,1.3532X1.6032*%
%ADD67R,1.6032X1.3532*%
D23*
X362739Y410000D02*
D03*
X377261D02*
D03*
D46*
X377500Y282500D02*
D03*
Y217500D02*
D03*
X422500Y282500D02*
D03*
D47*
Y217500D02*
D03*
D48*
X350000Y587500D02*
D03*
X326980Y576766D02*
D03*
D49*
X303960Y566031D02*
D03*
D50*
X487500Y248400D02*
D03*
Y551600D02*
D03*
X225000Y400000D02*
D03*
D51*
X550000Y440000D02*
D03*
D52*
Y360000D02*
D03*
D53*
X535700Y440000D02*
D03*
Y360000D02*
D03*
X564300Y440000D02*
D03*
Y360000D02*
D03*
D54*
X577088Y385318D02*
D03*
X599186Y379984D02*
D03*
X588264Y435610D02*
D03*
X442722Y378714D02*
D03*
X449580Y365760D02*
D03*
Y351536D02*
D03*
Y339090D02*
D03*
X419100Y368808D02*
D03*
X421894Y356616D02*
D03*
X421640Y340614D02*
D03*
X447802Y314706D02*
D03*
X590296Y320040D02*
D03*
X557086Y311185D02*
D03*
X555498Y341122D02*
D03*
X566420Y329184D02*
D03*
Y322184D02*
D03*
X385064Y318770D02*
D03*
X564642Y381762D02*
D03*
Y418325D02*
D03*
X382250Y387250D02*
D03*
X448750Y519750D02*
D03*
X370000Y463250D02*
D03*
X350000Y446250D02*
D03*
X521500Y387250D02*
D03*
Y414750D02*
D03*
X349250Y410250D02*
D03*
D64*
X535150Y427500D02*
D03*
Y372500D02*
D03*
Y412500D02*
D03*
Y407500D02*
D03*
Y402500D02*
D03*
Y397500D02*
D03*
Y392500D02*
D03*
Y387500D02*
D03*
X564850Y372500D02*
D03*
Y427500D02*
D03*
Y387500D02*
D03*
Y392500D02*
D03*
Y397500D02*
D03*
Y402500D02*
D03*
Y407500D02*
D03*
Y412500D02*
D03*
D65*
X365000Y450000D02*
D03*
X373000D02*
D03*
D66*
X561750Y465000D02*
D03*
X538250D02*
D03*
D67*
X588264Y473522D02*
D03*
Y450022D02*
D03*
M02*
