G04*
G04 #@! TF.GenerationSoftware,Altium Limited,Altium Designer,26.5.1 (12)*
G04*
G04 Layer_Color=8388736*
G04 Board_Origin=0|0*
%FSLAX44Y44*%
%MOMM*%
G71*
G04*
G04 #@! TF.SameCoordinates,0ACCABBF-97EE-4608-A5A2-6C0261C544E5*
G04*
G04*
G04 #@! TF.FilePolarity,Negative*
G04*
G01*
G75*
G04:AMPARAMS|DCode=15|XSize=1.55mm|YSize=0.6mm|CornerRadius=0.051mm|HoleSize=0mm|Usage=FLASHONLY|Rotation=0.000|XOffset=0mm|YOffset=0mm|HoleType=Round|Shape=RoundedRectangle|*
%AMROUNDEDRECTD15*
21,1,1.5500,0.4980,0,0,0.0*
21,1,1.4480,0.6000,0,0,0.0*
1,1,0.1020,0.7240,-0.2490*
1,1,0.1020,-0.7240,-0.2490*
1,1,0.1020,-0.7240,0.2490*
1,1,0.1020,0.7240,0.2490*
%
%ADD15ROUNDEDRECTD15*%
%ADD17R,1.2621X1.0061*%
%ADD18R,1.0061X1.2621*%
%ADD22R,1.6532X1.2032*%
%ADD23R,1.2032X1.6532*%
%ADD24R,2.4532X2.0032*%
%ADD25R,1.6732X1.2232*%
%ADD26R,2.0032X2.4532*%
%ADD27R,1.5200X1.5200*%
%ADD28C,1.5200*%
%ADD29C,5.2032*%
%ADD30C,1.5700*%
%ADD31R,1.5700X1.5700*%
%ADD32C,1.4732*%
D15*
X412000Y491550D02*
D03*
Y478850D02*
D03*
Y466150D02*
D03*
Y453450D02*
D03*
X358000D02*
D03*
Y466150D02*
D03*
Y478850D02*
D03*
Y491550D02*
D03*
D17*
X324684Y506236D02*
D03*
Y491714D02*
D03*
X365960Y410500D02*
D03*
Y425022D02*
D03*
X442000Y491261D02*
D03*
Y476739D02*
D03*
D18*
X318011Y447750D02*
D03*
X303489D02*
D03*
D22*
X392750Y426250D02*
D03*
Y407250D02*
D03*
X296500Y492000D02*
D03*
Y511000D02*
D03*
X425750Y514500D02*
D03*
Y533500D02*
D03*
X341626Y403893D02*
D03*
Y422893D02*
D03*
X265500Y447500D02*
D03*
Y466500D02*
D03*
D23*
X322500Y471250D02*
D03*
X303500D02*
D03*
X351911Y514944D02*
D03*
X370911D02*
D03*
X379000Y383250D02*
D03*
X398000D02*
D03*
X466750Y516750D02*
D03*
X447750D02*
D03*
D24*
X266000D02*
D03*
Y487750D02*
D03*
X311750Y371500D02*
D03*
Y400500D02*
D03*
D25*
X464656Y475634D02*
D03*
Y491833D02*
D03*
D26*
X451500Y547000D02*
D03*
X480500D02*
D03*
D27*
X353600Y354500D02*
D03*
D28*
X379000D02*
D03*
X404400D02*
D03*
D29*
X400000Y240000D02*
D03*
Y560000D02*
D03*
D30*
X351500Y546500D02*
D03*
D31*
X326100D02*
D03*
D32*
X419750Y437500D02*
D03*
X426250Y412500D02*
D03*
X426500Y383250D02*
D03*
X344500D02*
D03*
X337250Y443750D02*
D03*
X358386Y575209D02*
D03*
X448000Y450000D02*
D03*
X469750Y455750D02*
D03*
X442000Y576500D02*
D03*
X292250Y546750D02*
D03*
X293216Y421819D02*
D03*
X309250Y333000D02*
D03*
M02*
