G04*
G04 #@! TF.GenerationSoftware,Altium Limited,Altium Designer,26.2.0 (7)*
G04*
G04 Layer_Color=8388736*
%FSLAX44Y44*%
%MOMM*%
G71*
G04*
G04 #@! TF.SameCoordinates,5B242F3C-0802-4E50-8D42-2F795D51653B*
G04*
G04*
G04 #@! TF.FilePolarity,Negative*
G04*
G01*
G75*
%ADD16R,1.2621X1.0061*%
%ADD20R,1.0061X1.2621*%
%ADD30R,1.6532X1.2032*%
%ADD31R,1.7532X1.5532*%
%ADD32R,2.4532X2.0032*%
%ADD33R,2.0032X2.4532*%
%ADD34R,1.1932X1.6732*%
%ADD35R,2.0032X0.6532*%
%ADD36R,1.7032X0.8032*%
%ADD37R,1.6732X1.2232*%
%ADD38R,1.5532X1.7532*%
%ADD39R,1.6532X1.4032*%
%ADD40R,1.4032X0.8032*%
%ADD41R,1.4532X1.6532*%
%ADD42R,1.3032X1.5032*%
%ADD43R,1.6532X1.3532*%
%ADD44C,1.5400*%
%ADD45R,1.5400X1.5400*%
%ADD46C,1.5200*%
%ADD47P,2.1496X4X70.0*%
%ADD48C,5.2032*%
%ADD49C,0.7100*%
G04:AMPARAMS|DCode=50|XSize=1.01mm|YSize=0.71mm|CornerRadius=0.355mm|HoleSize=0mm|Usage=FLASHONLY|Rotation=270.000|XOffset=0mm|YOffset=0mm|HoleType=Round|Shape=RoundedRectangle|*
%AMROUNDEDRECTD50*
21,1,1.0100,0.0000,0,0,270.0*
21,1,0.3000,0.7100,0,0,270.0*
1,1,0.7100,0.0000,-0.1500*
1,1,0.7100,0.0000,0.1500*
1,1,0.7100,0.0000,0.1500*
1,1,0.7100,0.0000,-0.1500*
%
%ADD50ROUNDEDRECTD50*%
G04:AMPARAMS|DCode=51|XSize=1.6mm|YSize=1.1mm|CornerRadius=0.55mm|HoleSize=0mm|Usage=FLASHONLY|Rotation=270.000|XOffset=0mm|YOffset=0mm|HoleType=Round|Shape=RoundedRectangle|*
%AMROUNDEDRECTD51*
21,1,1.6000,0.0000,0,0,270.0*
21,1,0.5000,1.1000,0,0,270.0*
1,1,1.1000,0.0000,-0.2500*
1,1,1.1000,0.0000,0.2500*
1,1,1.1000,0.0000,0.2500*
1,1,1.1000,0.0000,-0.2500*
%
%ADD51ROUNDEDRECTD51*%
%ADD52C,0.8032*%
D16*
X425000Y514761D02*
D03*
Y500239D02*
D03*
X300000Y480239D02*
D03*
Y494761D02*
D03*
X328940Y481030D02*
D03*
Y495552D02*
D03*
D20*
X330239Y352500D02*
D03*
X344761D02*
D03*
X450000Y407500D02*
D03*
X435478D02*
D03*
D30*
X431468Y352000D02*
D03*
Y333000D02*
D03*
X450000Y352000D02*
D03*
Y333000D02*
D03*
X412936Y352000D02*
D03*
Y333000D02*
D03*
D31*
X447500Y260250D02*
D03*
Y279750D02*
D03*
D32*
X395453Y484016D02*
D03*
Y513016D02*
D03*
X359864Y484016D02*
D03*
Y513016D02*
D03*
D33*
X435500Y475000D02*
D03*
X464500D02*
D03*
X435500Y440000D02*
D03*
X464500D02*
D03*
D34*
X369300Y552500D02*
D03*
X385700D02*
D03*
D35*
X334500Y436250D02*
D03*
Y449250D02*
D03*
X405500Y436250D02*
D03*
X334500Y442750D02*
D03*
X405500D02*
D03*
Y377750D02*
D03*
Y384250D02*
D03*
Y390750D02*
D03*
Y397250D02*
D03*
Y403750D02*
D03*
Y410250D02*
D03*
Y416750D02*
D03*
Y423250D02*
D03*
Y429750D02*
D03*
Y449250D02*
D03*
Y455750D02*
D03*
Y462250D02*
D03*
X334500D02*
D03*
Y455750D02*
D03*
Y429750D02*
D03*
Y423250D02*
D03*
Y416750D02*
D03*
Y410250D02*
D03*
Y403750D02*
D03*
Y397250D02*
D03*
Y390750D02*
D03*
Y384250D02*
D03*
Y377750D02*
D03*
D36*
X424000Y562000D02*
D03*
X405000Y552500D02*
D03*
Y571500D02*
D03*
D37*
X445000Y558100D02*
D03*
Y541900D02*
D03*
D38*
X470250Y407500D02*
D03*
X489750D02*
D03*
D39*
X495000Y373500D02*
D03*
Y356500D02*
D03*
D40*
X508000Y326250D02*
D03*
X531000Y316750D02*
D03*
Y326250D02*
D03*
Y335750D02*
D03*
X508000D02*
D03*
Y316750D02*
D03*
D41*
X288500Y455000D02*
D03*
X271500Y385000D02*
D03*
X271500Y455000D02*
D03*
X288500Y385000D02*
D03*
D42*
X270234Y408500D02*
D03*
X288234Y431500D02*
D03*
X270234D02*
D03*
X288234Y408500D02*
D03*
D43*
X310000Y428750D02*
D03*
Y411250D02*
D03*
D44*
X377500Y282500D02*
D03*
Y217500D02*
D03*
X422500Y282500D02*
D03*
D45*
Y217500D02*
D03*
D46*
X350000Y587500D02*
D03*
X326980Y576766D02*
D03*
D47*
X303960Y566031D02*
D03*
D48*
X487500Y248400D02*
D03*
Y551600D02*
D03*
X225000Y400000D02*
D03*
D49*
X550000Y440000D02*
D03*
D50*
Y360000D02*
D03*
D51*
X535700Y440000D02*
D03*
Y360000D02*
D03*
X564300Y440000D02*
D03*
Y360000D02*
D03*
D52*
X382250Y387250D02*
D03*
X448750Y519750D02*
D03*
X370000Y463250D02*
D03*
X350000Y446250D02*
D03*
X577000Y402500D02*
D03*
X519500Y304750D02*
D03*
X553000Y394250D02*
D03*
X546500Y405500D02*
D03*
X521500Y387250D02*
D03*
Y414750D02*
D03*
X349250Y410250D02*
D03*
X383000Y338500D02*
D03*
M02*
