G04*
G04 #@! TF.GenerationSoftware,Altium Limited,Altium Designer,26.2.0 (7)*
G04*
G04 Layer_Color=32896*
%FSLAX44Y44*%
%MOMM*%
G71*
G04*
G04 #@! TF.SameCoordinates,5B242F3C-0802-4E50-8D42-2F795D51653B*
G04*
G04*
G04 #@! TF.FilePolarity,Positive*
G04*
G01*
G75*
%ADD10C,0.2500*%
%ADD12C,0.2000*%
%ADD13C,0.1500*%
D10*
X423800Y203000D02*
G03*
X423800Y203000I-1250J0D01*
G01*
X524950Y427500D02*
G03*
X524950Y427500I-1250J0D01*
G01*
D12*
X529000Y464000D02*
G03*
X529000Y466000I0J1000D01*
G01*
D02*
G03*
X529000Y464000I0J-1000D01*
G01*
X585750Y336250D02*
G03*
X585750Y334250I0J-1000D01*
G01*
D02*
G03*
X585750Y336250I0J1000D01*
G01*
X388950Y218550D02*
X411050D01*
X431450Y228950D02*
Y271050D01*
X388950Y281450D02*
X411050D01*
X368550Y228950D02*
Y271050D01*
X357709Y420750D02*
X382291D01*
X357709Y399250D02*
X382291D01*
X533200Y417750D02*
Y422250D01*
Y377750D02*
Y382250D01*
X566800Y417750D02*
Y422250D01*
Y377750D02*
Y382250D01*
D13*
X360670Y442999D02*
Y435001D01*
X364668D01*
X366001Y436334D01*
Y439000D01*
X364668Y440333D01*
X360670D01*
X363335D02*
X366001Y442999D01*
X373999Y435001D02*
X371333D01*
X372666D01*
Y441666D01*
X371333Y442999D01*
X370000D01*
X368667Y441666D01*
X376665Y442999D02*
X379330D01*
X377997D01*
Y435001D01*
X376665Y436334D01*
X381256Y305368D02*
X382589Y306701D01*
X385255D01*
X386588Y305368D01*
Y304036D01*
X385255Y302703D01*
X382589D01*
X381256Y301370D01*
Y300037D01*
X382589Y298704D01*
X385255D01*
X386588Y300037D01*
X378591Y306701D02*
Y298704D01*
X375925Y301370D01*
X373259Y298704D01*
Y306701D01*
X370593Y298704D02*
X367927D01*
X369260D01*
Y306701D01*
X370593Y305368D01*
X555415Y477501D02*
Y485499D01*
X551416D01*
X550083Y484166D01*
Y481500D01*
X551416Y480167D01*
X555415D01*
X552749D02*
X550083Y477501D01*
X543418D02*
Y485499D01*
X547417Y481500D01*
X542085D01*
X560586Y324249D02*
Y316251D01*
X564584D01*
X565917Y317584D01*
Y320250D01*
X564584Y321583D01*
X560586D01*
X563251D02*
X565917Y324249D01*
X573914Y316251D02*
X571249Y317584D01*
X568583Y320250D01*
Y322916D01*
X569916Y324249D01*
X572582D01*
X573914Y322916D01*
Y321583D01*
X572582Y320250D01*
X568583D01*
X588999Y400000D02*
Y397334D01*
Y398667D01*
X582334D01*
X581001Y397334D01*
Y396001D01*
X582334Y394668D01*
X581001Y402666D02*
Y405332D01*
Y403999D01*
X588999D01*
X587666Y402666D01*
X371083Y430666D02*
X372416Y431999D01*
X375082D01*
X376414Y430666D01*
Y425334D01*
X375082Y424001D01*
X372416D01*
X371083Y425334D01*
X368417D02*
X367084Y424001D01*
X364418D01*
X363086Y425334D01*
Y430666D01*
X364418Y431999D01*
X367084D01*
X368417Y430666D01*
Y429333D01*
X367084Y428000D01*
X363086D01*
M02*
