G04*
G04 #@! TF.GenerationSoftware,Altium Limited,Altium Designer,26.2.0 (7)*
G04*
G04 Layer_Color=8421504*
%FSLAX44Y44*%
%MOMM*%
G71*
G04*
G04 #@! TF.SameCoordinates,1EA23FBA-1D85-42B1-9F3F-7DEC5DB412DD*
G04*
G04*
G04 #@! TF.FilePolarity,Positive*
G04*
G01*
G75*
%ADD14R,1.0000X1.4500*%
%ADD15R,1.8000X0.4500*%
%ADD16R,1.2000X0.6000*%
%ADD17R,1.4500X1.0000*%
%ADD18R,1.5500X1.3500*%
%ADD19R,1.2621X1.0061*%
%ADD20R,2.2500X1.8000*%
%ADD21R,1.8000X2.2500*%
%ADD22R,0.9900X1.4700*%
%ADD23R,1.0061X1.2621*%
%ADD24R,1.5000X0.6000*%
%ADD25R,1.4700X1.0200*%
%ADD26R,1.3500X1.5500*%
%ADD27R,1.4500X1.2000*%
%ADD28R,1.2500X1.4500*%
%ADD29R,1.1000X1.3000*%
%ADD30R,1.4500X1.1500*%
D14*
X482956Y317347D02*
D03*
X463956D02*
D03*
X482956Y335879D02*
D03*
X463956D02*
D03*
D15*
X405500Y377750D02*
D03*
X334500Y436250D02*
D03*
Y449250D02*
D03*
X405500Y436250D02*
D03*
X334500Y442750D02*
D03*
X405500D02*
D03*
Y384250D02*
D03*
Y390750D02*
D03*
Y397250D02*
D03*
Y403750D02*
D03*
Y410250D02*
D03*
Y416750D02*
D03*
Y423250D02*
D03*
Y429750D02*
D03*
Y449250D02*
D03*
Y455750D02*
D03*
Y462250D02*
D03*
X334500D02*
D03*
Y455750D02*
D03*
Y429750D02*
D03*
Y423250D02*
D03*
Y416750D02*
D03*
Y410250D02*
D03*
Y403750D02*
D03*
Y397250D02*
D03*
Y390750D02*
D03*
Y384250D02*
D03*
Y377750D02*
D03*
D16*
X508000Y316750D02*
D03*
Y326250D02*
D03*
X531000Y316750D02*
D03*
Y326250D02*
D03*
Y335750D02*
D03*
X508000D02*
D03*
D17*
X382250Y339405D02*
D03*
Y358405D02*
D03*
D18*
X447500Y260250D02*
D03*
Y279750D02*
D03*
D19*
X425000Y514761D02*
D03*
Y500239D02*
D03*
X300000Y480239D02*
D03*
Y494761D02*
D03*
X328940Y481030D02*
D03*
Y495552D02*
D03*
D20*
X395453Y484016D02*
D03*
Y513016D02*
D03*
X359864Y484016D02*
D03*
Y513016D02*
D03*
D21*
X435500Y475000D02*
D03*
X464500D02*
D03*
X435500Y440000D02*
D03*
X464500D02*
D03*
D22*
X369300Y552500D02*
D03*
X385700D02*
D03*
D23*
X330239Y352500D02*
D03*
X344761D02*
D03*
X450000Y407500D02*
D03*
X435478D02*
D03*
D24*
X424000Y562000D02*
D03*
X405000Y552500D02*
D03*
Y571500D02*
D03*
D25*
X445000Y558100D02*
D03*
Y541900D02*
D03*
D26*
X470250Y407500D02*
D03*
X489750D02*
D03*
D27*
X495000Y373500D02*
D03*
Y356500D02*
D03*
D28*
X288500Y455000D02*
D03*
X271500Y385000D02*
D03*
X271500Y455000D02*
D03*
X288500Y385000D02*
D03*
D29*
X270234Y408500D02*
D03*
X288234Y431500D02*
D03*
X270234D02*
D03*
X288234Y408500D02*
D03*
D30*
X310000Y428750D02*
D03*
Y411250D02*
D03*
M02*
