G04*
G04 #@! TF.GenerationSoftware,Altium Limited,Altium Designer,26.2.0 (7)*
G04*
G04 Layer_Physical_Order=2*
G04 Layer_Color=16711680*
%FSLAX44Y44*%
%MOMM*%
G71*
G04*
G04 #@! TF.SameCoordinates,5B242F3C-0802-4E50-8D42-2F795D51653B*
G04*
G04*
G04 #@! TF.FilePolarity,Positive*
G04*
G01*
G75*
%ADD13C,0.1500*%
%ADD20R,1.0061X1.2621*%
%ADD44C,1.5400*%
%ADD45R,1.5400X1.5400*%
%ADD46C,1.5200*%
%ADD47P,2.1496X4X70.0*%
%ADD49C,0.7100*%
G04:AMPARAMS|DCode=50|XSize=1.01mm|YSize=0.71mm|CornerRadius=0.355mm|HoleSize=0mm|Usage=FLASHONLY|Rotation=270.000|XOffset=0mm|YOffset=0mm|HoleType=Round|Shape=RoundedRectangle|*
%AMROUNDEDRECTD50*
21,1,1.0100,0.0000,0,0,270.0*
21,1,0.3000,0.7100,0,0,270.0*
1,1,0.7100,0.0000,-0.1500*
1,1,0.7100,0.0000,0.1500*
1,1,0.7100,0.0000,0.1500*
1,1,0.7100,0.0000,-0.1500*
%
%ADD50ROUNDEDRECTD50*%
G04:AMPARAMS|DCode=51|XSize=1.6mm|YSize=1.1mm|CornerRadius=0.55mm|HoleSize=0mm|Usage=FLASHONLY|Rotation=270.000|XOffset=0mm|YOffset=0mm|HoleType=Round|Shape=RoundedRectangle|*
%AMROUNDEDRECTD51*
21,1,1.6000,0.0000,0,0,270.0*
21,1,0.5000,1.1000,0,0,270.0*
1,1,1.1000,0.0000,-0.2500*
1,1,1.1000,0.0000,0.2500*
1,1,1.1000,0.0000,0.2500*
1,1,1.1000,0.0000,-0.2500*
%
%ADD51ROUNDEDRECTD51*%
%ADD53C,0.5000*%
%ADD54C,0.2540*%
%ADD55C,0.4000*%
%ADD57C,5.0000*%
%ADD58C,0.6000*%
%ADD59R,0.6000X0.6000*%
%ADD60R,1.1500X1.4000*%
%ADD61R,1.1500X0.3000*%
%ADD62C,0.3500*%
G36*
X667000Y637688D02*
Y168500D01*
X142000D01*
Y636500D01*
X665500Y638744D01*
X667000Y637688D01*
D02*
G37*
%LPC*%
G36*
X349622Y596166D02*
X347392Y595773D01*
X345339Y594816D01*
X343605Y593360D01*
X342306Y591505D01*
X341531Y589377D01*
X341334Y587122D01*
X341727Y584892D01*
X342684Y582839D01*
X344140Y581105D01*
X345995Y579806D01*
X348123Y579031D01*
X350378Y578834D01*
X352608Y579227D01*
X354661Y580184D01*
X356395Y581640D01*
X357694Y583495D01*
X358469Y585623D01*
X358666Y587878D01*
X358273Y590108D01*
X357316Y592161D01*
X355860Y593895D01*
X354005Y595194D01*
X351878Y595969D01*
X349622Y596166D01*
D02*
G37*
G36*
X308119Y577460D02*
X292531Y570191D01*
X299800Y554602D01*
X315388Y561871D01*
X308119Y577460D01*
D02*
G37*
G36*
X490061Y577600D02*
X484939D01*
X479916Y576601D01*
X475184Y574641D01*
X470926Y571796D01*
X467304Y568174D01*
X464459Y563916D01*
X462499Y559184D01*
X461500Y554161D01*
Y549039D01*
X462499Y544016D01*
X464459Y539284D01*
X467304Y535026D01*
X470926Y531404D01*
X475184Y528559D01*
X479916Y526599D01*
X484939Y525600D01*
X490061D01*
X495084Y526599D01*
X499816Y528559D01*
X504074Y531404D01*
X507696Y535026D01*
X510541Y539284D01*
X512501Y544016D01*
X513500Y549039D01*
Y554161D01*
X512501Y559184D01*
X510541Y563916D01*
X507696Y568174D01*
X504074Y571796D01*
X499816Y574641D01*
X495084Y576601D01*
X490061Y577600D01*
D02*
G37*
G36*
X326601Y585431D02*
X324371Y585038D01*
X322319Y584081D01*
X320584Y582626D01*
X319286Y580771D01*
X318511Y578643D01*
X318314Y576387D01*
X318707Y574157D01*
X319664Y572105D01*
X321120Y570370D01*
X322975Y569071D01*
X325102Y568297D01*
X327358Y568100D01*
X329588Y568493D01*
X330009Y568689D01*
X348222Y550477D01*
X349380Y549703D01*
X350745Y549431D01*
X414022D01*
X444928Y518526D01*
X445359Y517484D01*
X446484Y516359D01*
X447954Y515750D01*
X449546D01*
X451016Y516359D01*
X452141Y517484D01*
X452750Y518954D01*
Y520546D01*
X452141Y522016D01*
X451016Y523141D01*
X449974Y523572D01*
X418023Y555523D01*
X416866Y556297D01*
X415500Y556569D01*
X352223D01*
X335036Y573756D01*
X335448Y574888D01*
X335646Y577144D01*
X335252Y579374D01*
X334296Y581426D01*
X332840Y583161D01*
X330985Y584460D01*
X328857Y585234D01*
X326601Y585431D01*
D02*
G37*
G36*
X570040Y474540D02*
X563020D01*
Y466270D01*
X570040D01*
Y474540D01*
D02*
G37*
G36*
X560480D02*
X553460D01*
Y466270D01*
X560480D01*
Y474540D01*
D02*
G37*
G36*
X545000Y473000D02*
X531500D01*
Y466784D01*
X524750D01*
X524067Y466648D01*
X523488Y466262D01*
X510238Y453012D01*
X509851Y452433D01*
X509716Y451750D01*
Y411000D01*
X509851Y410317D01*
X510238Y409738D01*
X513738Y406238D01*
X514317Y405852D01*
X515000Y405716D01*
X527197D01*
X528400Y405000D01*
X528400Y403500D01*
Y396500D01*
X528400Y395000D01*
X528400D01*
Y395000D01*
X528400D01*
Y390179D01*
X524228D01*
X523766Y390641D01*
X522296Y391250D01*
X520704D01*
X519234Y390641D01*
X518109Y389516D01*
X517500Y388046D01*
Y386454D01*
X518109Y384984D01*
X519234Y383859D01*
X520704Y383250D01*
X522296D01*
X523766Y383859D01*
X524478Y384571D01*
X535025D01*
X535653Y384696D01*
X564850D01*
X565923Y384910D01*
X566058Y385000D01*
X571600D01*
Y390716D01*
X574011D01*
X590216Y374511D01*
Y337034D01*
X583250D01*
Y343250D01*
X569750D01*
Y327250D01*
X583250D01*
Y333466D01*
X591121D01*
X591804Y333601D01*
X592383Y333988D01*
X593262Y334867D01*
X593648Y335446D01*
X593784Y336129D01*
Y375250D01*
X593648Y375933D01*
X593262Y376512D01*
X576012Y393762D01*
X575433Y394148D01*
X574750Y394284D01*
X572803D01*
X571600Y395000D01*
Y400716D01*
X573410D01*
X573609Y400234D01*
X574734Y399109D01*
X576204Y398500D01*
X577796D01*
X579266Y399109D01*
X580391Y400234D01*
X581000Y401704D01*
Y403296D01*
X580391Y404766D01*
X579266Y405891D01*
X577796Y406500D01*
X576204D01*
X574734Y405891D01*
X573609Y404766D01*
X573000Y404759D01*
X571600Y406074D01*
Y415000D01*
X566058D01*
X565923Y415090D01*
X564850Y415304D01*
X525588D01*
X525500Y415392D01*
Y415546D01*
X524891Y417016D01*
X523766Y418141D01*
X522296Y418750D01*
X520704D01*
X519234Y418141D01*
X518109Y417016D01*
X517500Y415546D01*
Y413954D01*
X518109Y412484D01*
X519234Y411359D01*
X520704Y410750D01*
X520622Y409284D01*
X515739D01*
X513284Y411739D01*
Y451011D01*
X525489Y463216D01*
X531500D01*
Y457000D01*
X545000D01*
Y473000D01*
D02*
G37*
G36*
X570040Y463730D02*
X563020D01*
Y455460D01*
X570040D01*
Y463730D01*
D02*
G37*
G36*
X560480D02*
X553460D01*
Y455460D01*
X560480D01*
Y463730D01*
D02*
G37*
G36*
X378540Y455540D02*
X374270D01*
Y451270D01*
X378540D01*
Y455540D01*
D02*
G37*
G36*
Y448730D02*
X374270D01*
Y444460D01*
X378540D01*
Y448730D01*
D02*
G37*
G36*
X370796Y467250D02*
X369204D01*
X367734Y466641D01*
X366609Y465516D01*
X366050Y464167D01*
X364241Y462358D01*
X364080Y462326D01*
X363087Y461663D01*
X363087Y461663D01*
X362837Y461413D01*
X362174Y460420D01*
X361941Y459250D01*
X361941Y459250D01*
Y454000D01*
X361000D01*
Y453559D01*
X354791D01*
X353621Y453326D01*
X352628Y452663D01*
X350215Y450250D01*
X349204D01*
X347734Y449641D01*
X346609Y448516D01*
X346000Y447046D01*
Y445454D01*
X346609Y443984D01*
X347734Y442859D01*
X349204Y442250D01*
X350796D01*
X352266Y442859D01*
X353391Y443984D01*
X353950Y445333D01*
X356058Y447441D01*
X361000D01*
Y446000D01*
X366801D01*
X367000Y445918D01*
X367460D01*
Y444460D01*
X371730D01*
Y446219D01*
X371766Y446234D01*
X372083Y447000D01*
Y450000D01*
Y453000D01*
X371766Y453766D01*
X371730Y453781D01*
Y455540D01*
X368059D01*
Y457524D01*
X369785Y459250D01*
X370796D01*
X372266Y459859D01*
X373391Y460984D01*
X374000Y462454D01*
Y464046D01*
X373391Y465516D01*
X372266Y466641D01*
X370796Y467250D01*
D02*
G37*
G36*
X565570Y450442D02*
Y441270D01*
X572409D01*
Y442500D01*
X572133Y444599D01*
X571323Y446555D01*
X570034Y448234D01*
X568355Y449523D01*
X566399Y450333D01*
X565570Y450442D01*
D02*
G37*
G36*
X536970D02*
Y441270D01*
X543809D01*
Y442500D01*
X543533Y444599D01*
X542723Y446555D01*
X541434Y448234D01*
X539755Y449523D01*
X537799Y450333D01*
X536970Y450442D01*
D02*
G37*
G36*
X563030D02*
X562201Y450333D01*
X560245Y449523D01*
X558566Y448234D01*
X557277Y446555D01*
X556467Y444599D01*
X556191Y442500D01*
Y441270D01*
X563030D01*
Y450442D01*
D02*
G37*
G36*
X534430D02*
X533601Y450333D01*
X531645Y449523D01*
X529966Y448234D01*
X528677Y446555D01*
X527867Y444599D01*
X527591Y442500D01*
Y441270D01*
X534430D01*
Y450442D01*
D02*
G37*
G36*
X550905Y444550D02*
X549095D01*
X547423Y443857D01*
X546143Y442577D01*
X545450Y440905D01*
Y439095D01*
X546143Y437423D01*
X547423Y436143D01*
X549095Y435450D01*
X550905D01*
X552577Y436143D01*
X553857Y437423D01*
X554550Y439095D01*
Y440905D01*
X553857Y442577D01*
X552577Y443857D01*
X550905Y444550D01*
D02*
G37*
G36*
X572409Y438730D02*
X564300D01*
X556191D01*
Y437500D01*
X556467Y435401D01*
X557277Y433445D01*
X557588Y433040D01*
X556848Y431540D01*
X556560D01*
Y428770D01*
X564850D01*
X573140D01*
Y431540D01*
X571752D01*
X571012Y433040D01*
X571323Y433445D01*
X572133Y435401D01*
X572409Y437500D01*
Y438730D01*
D02*
G37*
G36*
X543809D02*
X535700D01*
X527591D01*
Y437500D01*
X527867Y435401D01*
X528677Y433445D01*
X528988Y433040D01*
X528248Y431540D01*
X526860D01*
Y428770D01*
X535150D01*
X543440D01*
Y431540D01*
X543152D01*
X542412Y433040D01*
X542723Y433445D01*
X543533Y435401D01*
X543809Y437500D01*
Y438730D01*
D02*
G37*
G36*
X573140Y426230D02*
X566120D01*
Y423460D01*
X573140D01*
Y426230D01*
D02*
G37*
G36*
X563580D02*
X556560D01*
Y423460D01*
X563580D01*
Y426230D01*
D02*
G37*
G36*
X543440D02*
X536420D01*
Y423460D01*
X543440D01*
Y426230D01*
D02*
G37*
G36*
X533880D02*
X526860D01*
Y423460D01*
X533880D01*
Y426230D01*
D02*
G37*
G36*
X375991Y418851D02*
X369691D01*
Y418429D01*
X368769Y417311D01*
X368190Y417311D01*
X356709D01*
Y413694D01*
X351389D01*
X350046Y414250D01*
X348454D01*
X346984Y413641D01*
X345859Y412516D01*
X345250Y411046D01*
Y409454D01*
X345859Y407984D01*
X346984Y406859D01*
X348454Y406250D01*
X350046D01*
X350785Y406556D01*
X356709D01*
Y402689D01*
X368190D01*
X368769Y402689D01*
X369691Y401571D01*
Y401149D01*
X375991D01*
Y410000D01*
Y418851D01*
D02*
G37*
G36*
X384831D02*
X378531D01*
Y411270D01*
X384831D01*
Y418851D01*
D02*
G37*
G36*
Y408730D02*
X378531D01*
Y401149D01*
X384831D01*
Y408730D01*
D02*
G37*
G36*
X227561Y426000D02*
X222439D01*
X217416Y425001D01*
X212684Y423041D01*
X208426Y420196D01*
X204804Y416574D01*
X201959Y412316D01*
X199999Y407584D01*
X199000Y402561D01*
Y397439D01*
X199999Y392416D01*
X201959Y387684D01*
X204804Y383426D01*
X208426Y379804D01*
X212684Y376959D01*
X217416Y374999D01*
X222439Y374000D01*
X227561D01*
X232584Y374999D01*
X237316Y376959D01*
X241574Y379804D01*
X245196Y383426D01*
X248041Y387684D01*
X250001Y392416D01*
X251000Y397439D01*
Y402561D01*
X250001Y407584D01*
X248041Y412316D01*
X245196Y416574D01*
X241574Y420196D01*
X237316Y423041D01*
X232584Y425001D01*
X227561Y426000D01*
D02*
G37*
G36*
X573140Y376540D02*
X566120D01*
Y373770D01*
X573140D01*
Y376540D01*
D02*
G37*
G36*
X543440D02*
X536420D01*
Y373770D01*
X543440D01*
Y376540D01*
D02*
G37*
G36*
X563580D02*
X556560D01*
Y373770D01*
X563580D01*
Y376540D01*
D02*
G37*
G36*
X533880D02*
X526860D01*
Y373770D01*
X533880D01*
Y376540D01*
D02*
G37*
G36*
X573140Y371230D02*
X564850D01*
X556560D01*
Y368460D01*
X556848D01*
X557588Y366960D01*
X557277Y366555D01*
X556467Y364599D01*
X556191Y362500D01*
Y361270D01*
X564300D01*
X572409D01*
Y362500D01*
X572133Y364599D01*
X571323Y366555D01*
X571012Y366960D01*
X571752Y368460D01*
X573140D01*
Y371230D01*
D02*
G37*
G36*
X543440D02*
X535150D01*
X526860D01*
Y368460D01*
X528248D01*
X528988Y366960D01*
X528677Y366555D01*
X527867Y364599D01*
X527591Y362500D01*
Y361270D01*
X535700D01*
X543809D01*
Y362500D01*
X543533Y364599D01*
X542723Y366555D01*
X542412Y366960D01*
X543152Y368460D01*
X543440D01*
Y371230D01*
D02*
G37*
G36*
X550000Y366139D02*
X548225Y365786D01*
X546720Y364780D01*
X545714Y363275D01*
X545361Y361500D01*
Y358500D01*
X545714Y356725D01*
X546720Y355220D01*
X548225Y354214D01*
X550000Y353861D01*
X551775Y354214D01*
X553280Y355220D01*
X554286Y356725D01*
X554639Y358500D01*
Y361500D01*
X554286Y363275D01*
X553280Y364780D01*
X551775Y365786D01*
X550000Y366139D01*
D02*
G37*
G36*
X572409Y358730D02*
X565570D01*
Y349558D01*
X566399Y349667D01*
X568355Y350477D01*
X570034Y351766D01*
X571323Y353445D01*
X572133Y355401D01*
X572409Y357500D01*
Y358730D01*
D02*
G37*
G36*
X543809D02*
X536970D01*
Y349558D01*
X537799Y349667D01*
X539755Y350477D01*
X541434Y351766D01*
X542723Y353445D01*
X543533Y355401D01*
X543809Y357500D01*
Y358730D01*
D02*
G37*
G36*
X563030D02*
X556191D01*
Y357500D01*
X556467Y355401D01*
X557277Y353445D01*
X558566Y351766D01*
X560245Y350477D01*
X562201Y349667D01*
X563030Y349558D01*
Y358730D01*
D02*
G37*
G36*
X534430D02*
X527591D01*
Y357500D01*
X527867Y355401D01*
X528677Y353445D01*
X529966Y351766D01*
X531645Y350477D01*
X533601Y349667D01*
X534430Y349558D01*
Y358730D01*
D02*
G37*
G36*
X561290Y344790D02*
X554270D01*
Y336520D01*
X561290D01*
Y344790D01*
D02*
G37*
G36*
X551730D02*
X544710D01*
Y336520D01*
X551730D01*
Y344790D01*
D02*
G37*
G36*
X383046Y391250D02*
X381454D01*
X379984Y390641D01*
X378859Y389516D01*
X378250Y388046D01*
Y386454D01*
X378859Y384984D01*
X379984Y383859D01*
X380311Y383724D01*
Y341467D01*
X379609Y340766D01*
X379000Y339296D01*
Y337704D01*
X379609Y336234D01*
X380734Y335109D01*
X382204Y334500D01*
X383796D01*
X385266Y335109D01*
X386391Y336234D01*
X387000Y337704D01*
Y339296D01*
X386391Y340766D01*
X385266Y341891D01*
X384939Y342026D01*
Y384283D01*
X385641Y384984D01*
X386250Y386454D01*
Y388046D01*
X385641Y389516D01*
X384516Y390641D01*
X383046Y391250D01*
D02*
G37*
G36*
X561290Y333980D02*
X554270D01*
Y325710D01*
X561290D01*
Y333980D01*
D02*
G37*
G36*
X551730D02*
X544710D01*
Y325710D01*
X551730D01*
Y333980D01*
D02*
G37*
G36*
X520770Y310220D02*
Y306020D01*
X524970D01*
X524197Y307888D01*
X522638Y309447D01*
X520770Y310220D01*
D02*
G37*
G36*
X518230D02*
X516362Y309447D01*
X514803Y307888D01*
X514030Y306020D01*
X518230D01*
Y310220D01*
D02*
G37*
G36*
X524970Y303480D02*
X520770D01*
Y299280D01*
X522638Y300053D01*
X524197Y301612D01*
X524970Y303480D01*
D02*
G37*
G36*
X518230D02*
X514030D01*
X514803Y301612D01*
X516362Y300053D01*
X518230Y299280D01*
Y303480D01*
D02*
G37*
G36*
X423645Y291200D02*
X421355D01*
X419142Y290607D01*
X417158Y289462D01*
X415538Y287842D01*
X414393Y285858D01*
X413800Y283645D01*
Y281355D01*
X414393Y279142D01*
X415538Y277158D01*
X417158Y275538D01*
X419142Y274393D01*
X421355Y273800D01*
X423645D01*
X425858Y274393D01*
X427842Y275538D01*
X429462Y277158D01*
X430607Y279142D01*
X431200Y281355D01*
Y283645D01*
X430607Y285858D01*
X429462Y287842D01*
X427842Y289462D01*
X425858Y290607D01*
X423645Y291200D01*
D02*
G37*
G36*
X378645D02*
X376355D01*
X374142Y290607D01*
X372158Y289462D01*
X370538Y287842D01*
X369393Y285858D01*
X368800Y283645D01*
Y281355D01*
X369393Y279142D01*
X370538Y277158D01*
X372158Y275538D01*
X374142Y274393D01*
X376355Y273800D01*
X378645D01*
X380858Y274393D01*
X382842Y275538D01*
X384462Y277158D01*
X385607Y279142D01*
X386200Y281355D01*
Y283645D01*
X385607Y285858D01*
X384462Y287842D01*
X382842Y289462D01*
X380858Y290607D01*
X378645Y291200D01*
D02*
G37*
G36*
X490061Y274400D02*
X484939D01*
X479916Y273401D01*
X475184Y271441D01*
X470926Y268596D01*
X467304Y264974D01*
X464459Y260716D01*
X462499Y255984D01*
X461500Y250961D01*
Y245839D01*
X462499Y240816D01*
X464459Y236084D01*
X467304Y231826D01*
X470926Y228204D01*
X475184Y225359D01*
X479916Y223399D01*
X484939Y222400D01*
X490061D01*
X495084Y223399D01*
X499816Y225359D01*
X504074Y228204D01*
X507696Y231826D01*
X510541Y236084D01*
X512501Y240816D01*
X513500Y245839D01*
Y250961D01*
X512501Y255984D01*
X510541Y260716D01*
X507696Y264974D01*
X504074Y268596D01*
X499816Y271441D01*
X495084Y273401D01*
X490061Y274400D01*
D02*
G37*
G36*
X431200Y226200D02*
X413800D01*
Y208800D01*
X431200D01*
Y226200D01*
D02*
G37*
G36*
X378645D02*
X376355D01*
X374142Y225607D01*
X372158Y224462D01*
X370538Y222842D01*
X369393Y220858D01*
X368800Y218645D01*
Y216355D01*
X369393Y214142D01*
X370538Y212158D01*
X372158Y210538D01*
X374142Y209393D01*
X376355Y208800D01*
X378645D01*
X380858Y209393D01*
X382842Y210538D01*
X384462Y212158D01*
X385607Y214142D01*
X386200Y216355D01*
Y218645D01*
X385607Y220858D01*
X384462Y222842D01*
X382842Y224462D01*
X380858Y225607D01*
X378645Y226200D01*
D02*
G37*
%LPD*%
G36*
X371000Y447000D02*
X367000D01*
Y453000D01*
X371000D01*
Y447000D01*
D02*
G37*
D13*
X564850Y392500D02*
X574750D01*
X592000Y375250D01*
X577000Y402500D02*
X577000Y402500D01*
X564850Y402500D02*
X577000D01*
X564232Y396882D02*
X565600Y398250D01*
X576500Y335250D02*
X591121D01*
X592000Y336129D02*
Y375250D01*
X591121Y335250D02*
X592000Y336129D01*
X556850Y396882D02*
X564232D01*
X554218Y394250D02*
X556850Y396882D01*
X553000Y394250D02*
X554218D01*
X546150Y405500D02*
X546500D01*
X543150Y402500D02*
X546150Y405500D01*
X535150Y402500D02*
X543150D01*
X547500Y397500D02*
X552500Y402500D01*
X535150Y397500D02*
X547500D01*
X515000Y407500D02*
X535150D01*
X524750Y465000D02*
X538250D01*
X511500Y451750D02*
X524750Y465000D01*
X511500Y411000D02*
Y451750D01*
Y411000D02*
X515000Y407500D01*
X552500Y402500D02*
X564850D01*
D20*
X362739Y410000D02*
D03*
X377261D02*
D03*
D44*
X377500Y282500D02*
D03*
Y217500D02*
D03*
X422500Y282500D02*
D03*
D45*
Y217500D02*
D03*
D46*
X350000Y587500D02*
D03*
X326980Y576766D02*
D03*
D47*
X303960Y566031D02*
D03*
D49*
X550000Y440000D02*
D03*
D50*
Y360000D02*
D03*
D51*
X535700Y440000D02*
D03*
Y360000D02*
D03*
X564300Y440000D02*
D03*
Y360000D02*
D03*
D53*
X326980Y576766D02*
X350745Y553000D01*
X415500D01*
X448750Y519750D01*
X362614Y410125D02*
X362739Y410000D01*
X349375Y410125D02*
X362614D01*
X349250Y410250D02*
X349375Y410125D01*
D54*
X382625Y338875D02*
X383000Y338500D01*
X382250Y387250D02*
X382625Y386875D01*
Y338875D02*
Y386875D01*
D55*
X369459Y463250D02*
X370000D01*
X365709Y459500D02*
X369459Y463250D01*
X365250Y459500D02*
X365709D01*
X365000Y459250D02*
X365250Y459500D01*
X365000Y450000D02*
Y459250D01*
X361924Y450500D02*
X362000Y450424D01*
X354791Y450500D02*
X361924D01*
X350541Y446250D02*
X354791Y450500D01*
X350000Y446250D02*
X350541D01*
D57*
X487500Y248400D02*
D03*
Y551600D02*
D03*
X225000Y400000D02*
D03*
D58*
X382250Y387250D02*
D03*
X448750Y519750D02*
D03*
X370000Y463250D02*
D03*
X350000Y446250D02*
D03*
X577000Y402500D02*
D03*
X519500Y304750D02*
D03*
X553000Y394250D02*
D03*
X546500Y405500D02*
D03*
X521500Y387250D02*
D03*
Y414750D02*
D03*
X349250Y410250D02*
D03*
X383000Y338500D02*
D03*
D59*
X365000Y450000D02*
D03*
X373000D02*
D03*
D60*
X561750Y465000D02*
D03*
X538250D02*
D03*
X553000Y335250D02*
D03*
X576500D02*
D03*
D61*
X535150Y427500D02*
D03*
Y372500D02*
D03*
Y412500D02*
D03*
Y407500D02*
D03*
Y402500D02*
D03*
Y397500D02*
D03*
Y392500D02*
D03*
Y387500D02*
D03*
X564850Y372500D02*
D03*
Y427500D02*
D03*
Y387500D02*
D03*
Y392500D02*
D03*
Y397500D02*
D03*
Y402500D02*
D03*
Y407500D02*
D03*
Y412500D02*
D03*
D62*
X521500Y387250D02*
X521625Y387375D01*
X535025D01*
X535150Y387500D01*
X521500Y414750D02*
X522177D01*
X524426Y412500D01*
X535150D01*
Y387500D02*
X564850D01*
X535150Y412500D02*
X564850D01*
M02*
