G04*
G04 #@! TF.GenerationSoftware,Altium Limited,Altium Designer,26.2.0 (7)*
G04*
G04 Layer_Physical_Order=2*
G04 Layer_Color=16711680*
%FSLAX44Y44*%
%MOMM*%
G71*
G04*
G04 #@! TF.SameCoordinates,15E15C52-158D-41AF-8397-A1E68C447FA2*
G04*
G04*
G04 #@! TF.FilePolarity,Positive*
G04*
G01*
G75*
%ADD11C,0.5000*%
%ADD31C,1.5700*%
%ADD32R,1.5700X1.5700*%
%ADD33C,1.5200*%
%ADD34R,1.5200X1.5200*%
%ADD36C,5.0000*%
%ADD37C,1.2700*%
G36*
X670000Y170000D02*
X150000D01*
Y620000D01*
X670000D01*
Y170000D01*
D02*
G37*
%LPC*%
G36*
X402561Y586000D02*
X397439D01*
X392416Y585001D01*
X387684Y583041D01*
X383426Y580196D01*
X379804Y576574D01*
X376959Y572316D01*
X374999Y567584D01*
X374000Y562561D01*
Y557439D01*
X374999Y552416D01*
X376959Y547684D01*
X379804Y543426D01*
X383426Y539804D01*
X387684Y536959D01*
X392416Y534999D01*
X397439Y534000D01*
X402561D01*
X407584Y534999D01*
X412316Y536959D01*
X416574Y539804D01*
X420196Y543426D01*
X423041Y547684D01*
X425001Y552416D01*
X426000Y557439D01*
Y562561D01*
X425001Y567584D01*
X423041Y572316D01*
X420196Y576574D01*
X416574Y580196D01*
X412316Y583041D01*
X407584Y585001D01*
X402561Y586000D01*
D02*
G37*
G36*
X364068Y530390D02*
X363970D01*
Y521270D01*
X373090D01*
Y521368D01*
X372382Y524010D01*
X371014Y526380D01*
X369080Y528314D01*
X366710Y529682D01*
X364068Y530390D01*
D02*
G37*
G36*
X361430D02*
X361332D01*
X358690Y529682D01*
X356320Y528314D01*
X354386Y526380D01*
X353018Y524010D01*
X352310Y521368D01*
Y521270D01*
X361430D01*
Y530390D01*
D02*
G37*
G36*
X346150Y528850D02*
X328450D01*
Y511150D01*
X346150D01*
Y528850D01*
D02*
G37*
G36*
X373090Y518730D02*
X363970D01*
Y509610D01*
X364068D01*
X366710Y510318D01*
X369080Y511686D01*
X371014Y513620D01*
X372382Y515990D01*
X373090Y518632D01*
Y518730D01*
D02*
G37*
G36*
X361430D02*
X352310D01*
Y518632D01*
X353018Y515990D01*
X354386Y513620D01*
X356320Y511686D01*
X358690Y510318D01*
X361332Y509610D01*
X361430D01*
Y518730D01*
D02*
G37*
G36*
X364968Y397350D02*
X363032D01*
X361163Y396849D01*
X359487Y395882D01*
X358119Y394513D01*
X357151Y392837D01*
X356650Y390968D01*
Y389032D01*
X356932Y387979D01*
X336522Y367569D01*
X320427D01*
X319881Y368513D01*
X318513Y369882D01*
X316837Y370849D01*
X314968Y371350D01*
X313032D01*
X311163Y370849D01*
X309487Y369882D01*
X308118Y368513D01*
X307151Y366837D01*
X306650Y364968D01*
Y363032D01*
X307151Y361163D01*
X308118Y359487D01*
X309487Y358119D01*
X311163Y357151D01*
X313032Y356650D01*
X314968D01*
X316837Y357151D01*
X318513Y358119D01*
X319881Y359487D01*
X320427Y360431D01*
X338000D01*
X339366Y360703D01*
X340523Y361477D01*
X361979Y382932D01*
X363032Y382650D01*
X364968D01*
X366837Y383151D01*
X368513Y384118D01*
X369882Y385487D01*
X370849Y387163D01*
X371350Y389032D01*
Y390968D01*
X370849Y392837D01*
X369882Y394513D01*
X368513Y395882D01*
X366837Y396849D01*
X364968Y397350D01*
D02*
G37*
G36*
X409270Y384863D02*
Y377270D01*
X416863D01*
X416284Y379431D01*
X415114Y381459D01*
X413459Y383114D01*
X411431Y384284D01*
X409270Y384863D01*
D02*
G37*
G36*
X406730D02*
X404569Y384284D01*
X402541Y383114D01*
X400886Y381459D01*
X399716Y379431D01*
X399137Y377270D01*
X406730D01*
Y384863D01*
D02*
G37*
G36*
X416863Y374730D02*
X409270D01*
Y367137D01*
X411431Y367716D01*
X413459Y368886D01*
X415114Y370541D01*
X416284Y372569D01*
X416863Y374730D01*
D02*
G37*
G36*
X406730D02*
X399137D01*
X399716Y372569D01*
X400886Y370541D01*
X402541Y368886D01*
X404569Y367716D01*
X406730Y367137D01*
Y374730D01*
D02*
G37*
G36*
X521132Y379400D02*
X518868D01*
X516680Y378814D01*
X514720Y377682D01*
X513118Y376081D01*
X511986Y374119D01*
X511400Y371932D01*
Y369668D01*
X511986Y367481D01*
X513118Y365519D01*
X514720Y363918D01*
X516680Y362786D01*
X518868Y362200D01*
X521132D01*
X523320Y362786D01*
X525280Y363918D01*
X526882Y365519D01*
X528014Y367481D01*
X528600Y369668D01*
Y371932D01*
X528014Y374119D01*
X526882Y376081D01*
X525280Y377682D01*
X523320Y378814D01*
X521132Y379400D01*
D02*
G37*
G36*
Y354000D02*
X518868D01*
X516680Y353414D01*
X514720Y352282D01*
X513118Y350681D01*
X511986Y348719D01*
X511400Y346532D01*
Y344268D01*
X511986Y342080D01*
X513118Y340120D01*
X514720Y338518D01*
X516680Y337386D01*
X518868Y336800D01*
X521132D01*
X523320Y337386D01*
X525280Y338518D01*
X526882Y340120D01*
X528014Y342080D01*
X528600Y344268D01*
Y346532D01*
X528014Y348719D01*
X526882Y350681D01*
X525280Y352282D01*
X523320Y353414D01*
X521132Y354000D01*
D02*
G37*
G36*
X530140Y330140D02*
X521270D01*
Y321270D01*
X530140D01*
Y330140D01*
D02*
G37*
G36*
X518730D02*
X509860D01*
Y321270D01*
X518730D01*
Y330140D01*
D02*
G37*
G36*
X530140Y318730D02*
X521270D01*
Y309860D01*
X530140D01*
Y318730D01*
D02*
G37*
G36*
X518730D02*
X509860D01*
Y309860D01*
X518730D01*
Y318730D01*
D02*
G37*
G36*
X402561Y266000D02*
X397439D01*
X392416Y265001D01*
X387684Y263041D01*
X383426Y260196D01*
X379804Y256574D01*
X376959Y252316D01*
X374999Y247584D01*
X374000Y242561D01*
Y237439D01*
X374999Y232416D01*
X376959Y227684D01*
X379804Y223426D01*
X383426Y219804D01*
X387684Y216959D01*
X392416Y214999D01*
X397439Y214000D01*
X402561D01*
X407584Y214999D01*
X412316Y216959D01*
X416574Y219804D01*
X420196Y223426D01*
X423041Y227684D01*
X425001Y232416D01*
X426000Y237439D01*
Y242561D01*
X425001Y247584D01*
X423041Y252316D01*
X420196Y256574D01*
X416574Y260196D01*
X412316Y263041D01*
X407584Y265001D01*
X402561Y266000D01*
D02*
G37*
%LPD*%
D11*
X314000Y364000D02*
X338000D01*
X364000Y390000D01*
D31*
X362700Y520000D02*
D03*
D32*
X337300D02*
D03*
D33*
X520000Y370800D02*
D03*
Y345400D02*
D03*
D34*
Y320000D02*
D03*
D36*
X400000Y240000D02*
D03*
Y560000D02*
D03*
D37*
X408000Y376000D02*
D03*
X314000Y364000D02*
D03*
X364000Y390000D02*
D03*
M02*
