G04*
G04 #@! TF.GenerationSoftware,Altium Limited,Altium Designer,26.2.0 (7)*
G04*
G04 Layer_Physical_Order=1*
G04 Layer_Color=255*
%FSLAX44Y44*%
%MOMM*%
G71*
G04*
G04 #@! TF.SameCoordinates,15E15C52-158D-41AF-8397-A1E68C447FA2*
G04*
G04*
G04 #@! TF.FilePolarity,Positive*
G04*
G01*
G75*
%ADD11C,0.5000*%
%ADD14R,1.2621X1.0061*%
%ADD15R,1.8000X2.2500*%
%ADD16R,1.5500X1.3500*%
%ADD17R,1.0000X1.4500*%
%ADD18R,1.1500X1.4500*%
%ADD19R,1.3500X1.5500*%
%ADD20R,1.3500X1.0000*%
%ADD21R,1.8000X1.2500*%
G04:AMPARAMS|DCode=22|XSize=1.55mm|YSize=0.6mm|CornerRadius=0.051mm|HoleSize=0mm|Usage=FLASHONLY|Rotation=0.000|XOffset=0mm|YOffset=0mm|HoleType=Round|Shape=RoundedRectangle|*
%AMROUNDEDRECTD22*
21,1,1.5500,0.4980,0,0,0.0*
21,1,1.4480,0.6000,0,0,0.0*
1,1,0.1020,0.7240,-0.2490*
1,1,0.1020,-0.7240,-0.2490*
1,1,0.1020,-0.7240,0.2490*
1,1,0.1020,0.7240,0.2490*
%
%ADD22ROUNDEDRECTD22*%
%ADD31C,1.5700*%
%ADD32R,1.5700X1.5700*%
%ADD33C,1.5200*%
%ADD34R,1.5200X1.5200*%
%ADD36C,5.0000*%
%ADD37C,1.2700*%
G36*
X650000Y170000D02*
X140000D01*
Y620000D01*
X650000D01*
Y170000D01*
D02*
G37*
%LPC*%
G36*
X402561Y586000D02*
X397439D01*
X392416Y585001D01*
X387684Y583041D01*
X383426Y580196D01*
X379804Y576574D01*
X376959Y572316D01*
X374999Y567584D01*
X374000Y562561D01*
Y557439D01*
X374999Y552416D01*
X376959Y547684D01*
X379804Y543426D01*
X383426Y539804D01*
X387684Y536959D01*
X392416Y534999D01*
X397439Y534000D01*
X402561D01*
X407584Y534999D01*
X412316Y536959D01*
X416574Y539804D01*
X420196Y543426D01*
X423041Y547684D01*
X425001Y552416D01*
X426000Y557439D01*
Y562561D01*
X425001Y567584D01*
X423041Y572316D01*
X420196Y576574D01*
X416574Y580196D01*
X412316Y583041D01*
X407584Y585001D01*
X402561Y586000D01*
D02*
G37*
G36*
X364068Y530390D02*
X363970D01*
Y521270D01*
X373090D01*
Y521368D01*
X372382Y524010D01*
X371014Y526380D01*
X369080Y528314D01*
X366710Y529682D01*
X364068Y530390D01*
D02*
G37*
G36*
X361430D02*
X361332D01*
X358690Y529682D01*
X356320Y528314D01*
X354386Y526380D01*
X353018Y524010D01*
X352310Y521368D01*
Y521270D01*
X361430D01*
Y530390D01*
D02*
G37*
G36*
X373090Y518730D02*
X363970D01*
Y509610D01*
X364068D01*
X366710Y510318D01*
X369080Y511686D01*
X371014Y513620D01*
X372382Y515990D01*
X373090Y518632D01*
Y518730D01*
D02*
G37*
G36*
X361430D02*
X352310D01*
Y518632D01*
X353018Y515990D01*
X354386Y513620D01*
X356320Y511686D01*
X358690Y510318D01*
X361332Y509610D01*
X361430D01*
Y518730D01*
D02*
G37*
G36*
X346150Y528850D02*
X328450D01*
Y511150D01*
X331511D01*
X332563Y508610D01*
X330477Y506523D01*
X329703Y505366D01*
X329431Y504000D01*
Y492250D01*
X323000D01*
Y477750D01*
X343000D01*
Y492250D01*
X336569D01*
Y499793D01*
X339109Y500845D01*
X339477Y500477D01*
X340634Y499703D01*
X342000Y499431D01*
X369272D01*
X380250Y488453D01*
Y481500D01*
X395750D01*
Y493500D01*
X385297D01*
X373273Y505523D01*
X372116Y506297D01*
X370750Y506569D01*
X343478D01*
X341437Y508610D01*
X342489Y511150D01*
X346150D01*
Y528850D01*
D02*
G37*
G36*
X369000Y492250D02*
X349000D01*
Y477750D01*
X355431D01*
Y472478D01*
X339977Y457023D01*
X339203Y455866D01*
X339040Y455046D01*
X336500Y455296D01*
Y456750D01*
X321080D01*
X321000Y456750D01*
X318540Y456943D01*
Y458290D01*
X310520D01*
Y448000D01*
Y437710D01*
X318540D01*
Y439057D01*
X321000Y439250D01*
X321080Y439250D01*
X325181D01*
Y425250D01*
X317500D01*
Y400750D01*
X323931D01*
Y394500D01*
X324203Y393134D01*
X324556Y392606D01*
X325000Y390250D01*
X325000Y390250D01*
X325000Y390250D01*
Y373750D01*
X338500D01*
Y390250D01*
X334569D01*
Y391000D01*
X334297Y392366D01*
X333523Y393523D01*
X331069Y395978D01*
Y400750D01*
X337500D01*
Y425250D01*
X332319D01*
Y439250D01*
X336500D01*
Y444431D01*
X348500D01*
Y439250D01*
X364000D01*
Y456750D01*
X353115D01*
X352143Y459097D01*
X361523Y468477D01*
X362297Y469634D01*
X362569Y471000D01*
Y477750D01*
X369000D01*
Y492250D01*
D02*
G37*
G36*
X307980Y458290D02*
X299960D01*
Y449270D01*
X307980D01*
Y458290D01*
D02*
G37*
G36*
Y446730D02*
X299960D01*
Y437710D01*
X307980D01*
Y446730D01*
D02*
G37*
G36*
X310040Y426790D02*
X299770D01*
Y414270D01*
X310040D01*
Y426790D01*
D02*
G37*
G36*
X297230D02*
X286960D01*
Y414270D01*
X297230D01*
Y426790D01*
D02*
G37*
G36*
X388780Y415318D02*
X374300D01*
X373144Y414839D01*
X373112Y414762D01*
X364194D01*
X362828Y414491D01*
X361670Y413717D01*
X347477Y399523D01*
X346703Y398366D01*
X346431Y397000D01*
Y364500D01*
X341250D01*
Y349000D01*
X358750D01*
Y353181D01*
X362022D01*
X374227Y340977D01*
X375384Y340203D01*
X376750Y339931D01*
X491500D01*
X492866Y340203D01*
X494023Y340977D01*
X494878Y341831D01*
X512130D01*
X513118Y340120D01*
X514720Y338518D01*
X516680Y337386D01*
X518868Y336800D01*
X521132D01*
X523320Y337386D01*
X525280Y338518D01*
X526882Y340120D01*
X528014Y342080D01*
X528600Y344268D01*
Y346532D01*
X528014Y348719D01*
X526882Y350681D01*
X525280Y352282D01*
X523320Y353414D01*
X521132Y354000D01*
X518868D01*
X516680Y353414D01*
X514720Y352282D01*
X513118Y350681D01*
X512130Y348969D01*
X493400D01*
X492034Y348697D01*
X490877Y347923D01*
X490022Y347069D01*
X378228D01*
X366023Y359273D01*
X364866Y360047D01*
X363500Y360319D01*
X358750D01*
Y364500D01*
X353569D01*
Y395522D01*
X365672Y407625D01*
X373112D01*
X373144Y407548D01*
X374300Y407069D01*
X388780D01*
X389936Y407548D01*
X390414Y408704D01*
Y413684D01*
X389936Y414839D01*
X388780Y415318D01*
D02*
G37*
G36*
X310040Y411730D02*
X299770D01*
Y399210D01*
X310040D01*
Y411730D01*
D02*
G37*
G36*
X297230D02*
X286960D01*
Y399210D01*
X297230D01*
Y411730D01*
D02*
G37*
G36*
X469851Y394469D02*
X462270D01*
Y388169D01*
X469851D01*
Y394469D01*
D02*
G37*
G36*
X459730D02*
X452149D01*
Y388169D01*
X459730D01*
Y394469D01*
D02*
G37*
G36*
X442780Y402618D02*
X428300D01*
X427144Y402139D01*
X426666Y400984D01*
Y396004D01*
X427144Y394848D01*
X428300Y394369D01*
X431971D01*
Y389918D01*
X428300D01*
X427144Y389439D01*
X426666Y388284D01*
Y383304D01*
X427144Y382148D01*
X428300Y381669D01*
X442780D01*
X443936Y382148D01*
X444414Y383304D01*
Y388284D01*
X443936Y389439D01*
X442780Y389918D01*
X439109D01*
Y394369D01*
X442780D01*
X443936Y394848D01*
X444414Y396004D01*
Y400984D01*
X443936Y402139D01*
X442780Y402618D01*
D02*
G37*
G36*
X409270Y384863D02*
Y377270D01*
X416863D01*
X416284Y379431D01*
X415114Y381459D01*
X413459Y383114D01*
X411431Y384284D01*
X409270Y384863D01*
D02*
G37*
G36*
X406730D02*
X404569Y384284D01*
X402541Y383114D01*
X400886Y381459D01*
X399716Y379431D01*
X399137Y377270D01*
X406730D01*
Y384863D01*
D02*
G37*
G36*
X442780Y378693D02*
X436810D01*
Y374364D01*
X445890D01*
Y375584D01*
X445653Y376774D01*
X444979Y377783D01*
X443970Y378457D01*
X442780Y378693D01*
D02*
G37*
G36*
X434270D02*
X428300D01*
X427110Y378457D01*
X426101Y377783D01*
X425427Y376774D01*
X425190Y375584D01*
Y374364D01*
X434270D01*
Y378693D01*
D02*
G37*
G36*
X388780D02*
X382810D01*
Y374364D01*
X391890D01*
Y375584D01*
X391653Y376774D01*
X390979Y377783D01*
X389970Y378457D01*
X388780Y378693D01*
D02*
G37*
G36*
X380270D02*
X374300D01*
X373110Y378457D01*
X372101Y377783D01*
X371427Y376774D01*
X371190Y375584D01*
Y374364D01*
X380270D01*
Y378693D01*
D02*
G37*
G36*
X445890Y371824D02*
X436810D01*
Y367494D01*
X442780D01*
X443970Y367731D01*
X444979Y368405D01*
X445653Y369414D01*
X445890Y370604D01*
Y371824D01*
D02*
G37*
G36*
X434270D02*
X425190D01*
Y370604D01*
X425427Y369414D01*
X426101Y368405D01*
X427110Y367731D01*
X428300Y367494D01*
X434270D01*
Y371824D01*
D02*
G37*
G36*
X391890D02*
X382810D01*
Y367494D01*
X388780D01*
X389970Y367731D01*
X390979Y368405D01*
X391653Y369414D01*
X391890Y370604D01*
Y371824D01*
D02*
G37*
G36*
X380270D02*
X371190D01*
Y370604D01*
X371427Y369414D01*
X372101Y368405D01*
X373110Y367731D01*
X374300Y367494D01*
X380270D01*
Y371824D01*
D02*
G37*
G36*
X416863Y374730D02*
X409270D01*
Y367137D01*
X411431Y367716D01*
X413459Y368886D01*
X415114Y370541D01*
X416284Y372569D01*
X416863Y374730D01*
D02*
G37*
G36*
X406730D02*
X399137D01*
X399716Y372569D01*
X400886Y370541D01*
X402541Y368886D01*
X404569Y367716D01*
X406730Y367137D01*
Y374730D01*
D02*
G37*
G36*
X395750Y478500D02*
X380250D01*
Y476569D01*
X379000D01*
X377634Y476297D01*
X376477Y475523D01*
X373477Y472523D01*
X372703Y471366D01*
X372431Y470000D01*
Y456750D01*
X368000D01*
Y439250D01*
X383500D01*
Y444431D01*
X413522D01*
X431971Y425982D01*
Y415318D01*
X428300D01*
X427144Y414839D01*
X427112Y414762D01*
X420194D01*
X418828Y414491D01*
X417670Y413717D01*
X393315Y389362D01*
X389968D01*
X389936Y389439D01*
X388780Y389918D01*
X374300D01*
X372340Y391517D01*
X372153Y392185D01*
X373929Y394431D01*
X374150D01*
X374300Y394369D01*
X388780D01*
X389936Y394848D01*
X390414Y396004D01*
Y400984D01*
X389936Y402139D01*
X388780Y402618D01*
X374300D01*
X373144Y402139D01*
X372908Y401569D01*
X370000D01*
X368634Y401297D01*
X367477Y400523D01*
X364303Y397350D01*
X363032D01*
X361163Y396849D01*
X359487Y395882D01*
X358119Y394513D01*
X357151Y392837D01*
X356650Y390968D01*
Y389032D01*
X357151Y387163D01*
X358119Y385487D01*
X359487Y384118D01*
X361163Y383151D01*
X363032Y382650D01*
X364968D01*
X366837Y383151D01*
X368513Y384118D01*
X369882Y385487D01*
X370126Y385910D01*
X372666Y385229D01*
Y383304D01*
X373144Y382148D01*
X374300Y381669D01*
X388780D01*
X389936Y382148D01*
X389968Y382225D01*
X394794D01*
X396159Y382497D01*
X397317Y383270D01*
X421672Y407625D01*
X427112D01*
X427144Y407548D01*
X428300Y407069D01*
X442780D01*
X443655Y407431D01*
X451893D01*
X453140Y406185D01*
X453430Y404891D01*
X452149Y403310D01*
X452149Y402328D01*
Y397009D01*
X461000D01*
X469851D01*
Y402328D01*
X469851Y403310D01*
X469168Y404152D01*
X470380Y406692D01*
X479061D01*
X511912Y373842D01*
X511400Y371932D01*
Y369668D01*
X511986Y367481D01*
X513118Y365519D01*
X514720Y363918D01*
X516680Y362786D01*
X518868Y362200D01*
X521132D01*
X523320Y362786D01*
X525280Y363918D01*
X526882Y365519D01*
X528014Y367481D01*
X528600Y369668D01*
Y371932D01*
X528014Y374119D01*
X526882Y376081D01*
X525280Y377682D01*
X523320Y378814D01*
X521132Y379400D01*
X518868D01*
X516958Y378888D01*
X483063Y412784D01*
X481905Y413558D01*
X480539Y413829D01*
X468311D01*
Y416291D01*
X453689D01*
Y414569D01*
X444048D01*
X443936Y414839D01*
X442780Y415318D01*
X439109D01*
Y427460D01*
X438837Y428826D01*
X438063Y429983D01*
X417523Y450523D01*
X416366Y451297D01*
X415000Y451569D01*
X383500D01*
Y456750D01*
X379569D01*
Y464242D01*
X380250Y466500D01*
X395750D01*
Y478500D01*
D02*
G37*
G36*
X530140Y330140D02*
X521270D01*
Y321270D01*
X530140D01*
Y330140D01*
D02*
G37*
G36*
X518730D02*
X509860D01*
Y321270D01*
X518730D01*
Y330140D01*
D02*
G37*
G36*
X434040Y322790D02*
X423770D01*
Y310270D01*
X434040D01*
Y322790D01*
D02*
G37*
G36*
X421230D02*
X410960D01*
Y310270D01*
X421230D01*
Y322790D01*
D02*
G37*
G36*
X530140Y318730D02*
X521270D01*
Y309860D01*
X530140D01*
Y318730D01*
D02*
G37*
G36*
X518730D02*
X509860D01*
Y309860D01*
X518730D01*
Y318730D01*
D02*
G37*
G36*
X321000Y390250D02*
X307500D01*
Y373750D01*
X310556D01*
Y370499D01*
X309487Y369882D01*
X308118Y368513D01*
X307151Y366837D01*
X306650Y364968D01*
Y363032D01*
X307151Y361163D01*
X308118Y359487D01*
X309487Y358119D01*
X310431Y357573D01*
Y338750D01*
X310703Y337384D01*
X311477Y336227D01*
X337500Y310203D01*
Y298750D01*
X349500D01*
Y315250D01*
X342547D01*
X317569Y340228D01*
Y357573D01*
X318513Y358119D01*
X319881Y359487D01*
X320849Y361163D01*
X321350Y363032D01*
Y364968D01*
X320849Y366837D01*
X319881Y368513D01*
X318513Y369882D01*
X317694Y370355D01*
Y373750D01*
X321000D01*
Y390250D01*
D02*
G37*
G36*
X358750Y345000D02*
X341250D01*
Y329500D01*
X346431D01*
Y328000D01*
X346703Y326634D01*
X347477Y325477D01*
X352477Y320477D01*
X353634Y319703D01*
X355000Y319431D01*
X357522D01*
X358931Y318022D01*
Y315250D01*
X356500D01*
Y298750D01*
X368500D01*
Y303431D01*
X374000D01*
X375366Y303703D01*
X376523Y304477D01*
X377478Y305431D01*
X383500D01*
Y296750D01*
X403500D01*
Y321250D01*
X383500D01*
Y312569D01*
X376000D01*
X374634Y312297D01*
X373477Y311523D01*
X372522Y310569D01*
X368500D01*
Y315250D01*
X366069D01*
Y319500D01*
X365797Y320866D01*
X365023Y322023D01*
X361523Y325523D01*
X360366Y326297D01*
X359000Y326569D01*
X358674D01*
X358412Y326960D01*
X358750Y329500D01*
X358750D01*
Y345000D01*
D02*
G37*
G36*
X434040Y307730D02*
X423770D01*
Y295210D01*
X434040D01*
Y307730D01*
D02*
G37*
G36*
X421230D02*
X410960D01*
Y295210D01*
X421230D01*
Y307730D01*
D02*
G37*
G36*
X402561Y266000D02*
X397439D01*
X392416Y265001D01*
X387684Y263041D01*
X383426Y260196D01*
X379804Y256574D01*
X376959Y252316D01*
X374999Y247584D01*
X374000Y242561D01*
Y237439D01*
X374999Y232416D01*
X376959Y227684D01*
X379804Y223426D01*
X383426Y219804D01*
X387684Y216959D01*
X392416Y214999D01*
X397439Y214000D01*
X402561D01*
X407584Y214999D01*
X412316Y216959D01*
X416574Y219804D01*
X420196Y223426D01*
X423041Y227684D01*
X425001Y232416D01*
X426000Y237439D01*
Y242561D01*
X425001Y247584D01*
X423041Y252316D01*
X420196Y256574D01*
X416574Y260196D01*
X412316Y263041D01*
X407584Y265001D01*
X402561Y266000D01*
D02*
G37*
%LPD*%
D11*
X408000Y376000D02*
X410084D01*
X493400Y345400D02*
X520000D01*
X491500Y343500D02*
X493400Y345400D01*
X376750Y343500D02*
X491500D01*
X363500Y356750D02*
X376750Y343500D01*
X350000Y356750D02*
X363500D01*
X364194Y411194D02*
X381540D01*
X350000Y397000D02*
X364194Y411194D01*
X350000Y356750D02*
Y397000D01*
X405916Y376000D02*
X408000D01*
X381540Y385794D02*
X394794D01*
X420194Y411194D01*
X435540D01*
X333000Y504000D02*
X337000Y508000D01*
X333000Y485000D02*
Y504000D01*
X337000Y519700D02*
X337300Y520000D01*
X337000Y508000D02*
Y519700D01*
Y508000D02*
X342000Y503000D01*
X370750D01*
X386250Y487500D01*
X388000D01*
X385500Y473000D02*
X387000Y471500D01*
X379000Y473000D02*
X385500D01*
X376000Y470000D02*
X379000Y473000D01*
X376000Y448250D02*
Y470000D01*
X375750Y448000D02*
X376000Y448250D01*
X375750Y448000D02*
X415000D01*
X435540Y427460D01*
Y411194D02*
Y427460D01*
X359000Y471000D02*
Y485000D01*
X342500Y454500D02*
X359000Y471000D01*
X342500Y448000D02*
Y454500D01*
Y448000D02*
X356250D01*
X328750D02*
X342500D01*
X328750Y414250D02*
Y448000D01*
X327500Y413000D02*
X328750Y414250D01*
X327500Y394500D02*
Y413000D01*
Y394500D02*
X331000Y391000D01*
Y382750D02*
Y391000D01*
Y382750D02*
X331750Y382000D01*
X314000Y338750D02*
Y364000D01*
Y338750D02*
X343500Y309250D01*
Y307000D02*
Y309250D01*
X376000Y309000D02*
X393500D01*
X374000Y307000D02*
X376000Y309000D01*
X362500Y307000D02*
X374000D01*
X362500D02*
Y319500D01*
X359000Y323000D02*
X362500Y319500D01*
X355000Y323000D02*
X359000D01*
X350000Y328000D02*
X355000Y323000D01*
X350000Y328000D02*
Y337250D01*
X314125Y381875D02*
X314250Y382000D01*
X314125Y364125D02*
Y381875D01*
X314000Y364000D02*
X314125Y364125D01*
X364000Y390000D02*
Y392000D01*
X370000Y398000D01*
X381046D01*
X381540Y398494D01*
X435540Y385794D02*
Y398494D01*
X460261Y411000D02*
X461000Y410261D01*
X435734Y411000D02*
X460261D01*
X435540Y411194D02*
X435734Y411000D01*
X461000Y410261D02*
X480539D01*
X520000Y370800D01*
D14*
X461000Y410261D02*
D03*
Y395739D02*
D03*
D15*
X422500Y309000D02*
D03*
X393500D02*
D03*
X298500Y413000D02*
D03*
X327500D02*
D03*
D16*
X350000Y337250D02*
D03*
Y356750D02*
D03*
D17*
X362500Y307000D02*
D03*
X343500D02*
D03*
D18*
X331750Y382000D02*
D03*
X314250D02*
D03*
D19*
X309250Y448000D02*
D03*
X328750D02*
D03*
X356250D02*
D03*
X375750D02*
D03*
D20*
X388000Y487500D02*
D03*
Y472500D02*
D03*
D21*
X359000Y485000D02*
D03*
X333000D02*
D03*
D22*
X435540Y411194D02*
D03*
Y398494D02*
D03*
Y385794D02*
D03*
Y373094D02*
D03*
X381540D02*
D03*
Y385794D02*
D03*
Y398494D02*
D03*
Y411194D02*
D03*
D31*
X362700Y520000D02*
D03*
D32*
X337300D02*
D03*
D33*
X520000Y370800D02*
D03*
Y345400D02*
D03*
D34*
Y320000D02*
D03*
D36*
X400000Y240000D02*
D03*
Y560000D02*
D03*
D37*
X408000Y376000D02*
D03*
X314000Y364000D02*
D03*
X364000Y390000D02*
D03*
M02*
