M48
;Layer_Color=9474304
;FILE_FORMAT=4:4
METRIC
;TYPE=PLATED
T01F00S00C0.3000
T03F00S00C0.9900
T04F00S00C1.0200
T05F00S00C3.2000
%
T01
X00376174Y00331470
X00388816Y00370782
X00388112Y00392176
X00346710Y00377190
X00416693Y00383661
X00418039Y00364670
X00424434Y00350012
X00419100Y00322580
X00410210Y00331470
X00483870Y00312674
X00538480Y00325120
X00556463Y00325139
X00572516Y00324866
X00588518Y00330454
X00599694Y00343662
X00606806Y00376428
X00594106Y00378968
X00608076Y00392430
X00564642Y00381508
X00535432
X00549910Y00347980
X00564642Y00418846
X00585470Y00417322
X00599694Y00414782
X00577524Y00440000
X00587756Y00454660
X00535700Y00454420
X00535178Y00418846
X00387604Y00412750
X00388112Y00403098
X00378142Y00424244
X00346710Y00409702
X00346964Y00400304
X00371094Y00497586
X00260858Y00455168
T03
X00377500Y00217500
Y00282500
X00422500
Y00217500
T04
X00312087Y00545965
X00335108Y00556699
X00358128Y00567434
T05
X00487500Y00248400
Y00551600
X00225000Y00400000
M30
