G04*
G04 #@! TF.GenerationSoftware,Altium Limited,Altium Designer,26.3.0 (6)*
G04*
G04 Layer_Physical_Order=1*
G04 Layer_Color=255*
%FSLAX44Y44*%
%MOMM*%
G71*
G04*
G04 #@! TF.SameCoordinates,934A8800-F4A2-4094-9A0A-76B35AF3C916*
G04*
G04*
G04 #@! TF.FilePolarity,Positive*
G04*
G01*
G75*
%ADD11C,0.5000*%
%ADD14R,1.0000X1.4500*%
%ADD15R,1.2621X1.0061*%
%ADD16R,1.4500X1.0000*%
G04:AMPARAMS|DCode=17|XSize=1.55mm|YSize=0.6mm|CornerRadius=0.051mm|HoleSize=0mm|Usage=FLASHONLY|Rotation=0.000|XOffset=0mm|YOffset=0mm|HoleType=Round|Shape=RoundedRectangle|*
%AMROUNDEDRECTD17*
21,1,1.5500,0.4980,0,0,0.0*
21,1,1.4480,0.6000,0,0,0.0*
1,1,0.1020,0.7240,-0.2490*
1,1,0.1020,-0.7240,-0.2490*
1,1,0.1020,-0.7240,0.2490*
1,1,0.1020,0.7240,0.2490*
%
%ADD17ROUNDEDRECTD17*%
%ADD18R,2.2500X1.8000*%
%ADD19R,1.4700X1.0200*%
%ADD20R,1.8000X2.2500*%
%ADD21R,1.5500X1.3500*%
%ADD22R,1.3500X1.5500*%
%ADD23R,1.3500X1.0000*%
%ADD24R,1.2500X1.8000*%
%ADD34R,1.5200X1.5200*%
%ADD35C,1.5200*%
%ADD37C,1.5700*%
%ADD38R,1.5700X1.5700*%
%ADD40C,5.0000*%
%ADD41C,1.2700*%
G36*
X650000Y170000D02*
X140000D01*
Y620000D01*
X650000D01*
Y170000D01*
D02*
G37*
%LPC*%
G36*
X355917Y546946D02*
X355819D01*
Y537826D01*
X364939D01*
Y537924D01*
X364231Y540566D01*
X362863Y542936D01*
X360928Y544870D01*
X358559Y546238D01*
X355917Y546946D01*
D02*
G37*
G36*
X353279D02*
X353181D01*
X350538Y546238D01*
X348169Y544870D01*
X346235Y542936D01*
X344867Y540566D01*
X344159Y537924D01*
Y537826D01*
X353279D01*
Y546946D01*
D02*
G37*
G36*
X402561Y586000D02*
X397439D01*
X392416Y585001D01*
X387684Y583041D01*
X383426Y580196D01*
X379804Y576574D01*
X376959Y572316D01*
X374999Y567584D01*
X374000Y562561D01*
Y557439D01*
X374999Y552416D01*
X376959Y547684D01*
X379804Y543426D01*
X383426Y539804D01*
X387684Y536959D01*
X392416Y534999D01*
X397439Y534000D01*
X402561D01*
X407584Y534999D01*
X412316Y536959D01*
X416574Y539804D01*
X420196Y543426D01*
X423041Y547684D01*
X425001Y552416D01*
X426000Y557439D01*
Y562561D01*
X425001Y567584D01*
X423041Y572316D01*
X420196Y576574D01*
X416574Y580196D01*
X412316Y583041D01*
X407584Y585001D01*
X402561Y586000D01*
D02*
G37*
G36*
X364939Y535286D02*
X355819D01*
Y526166D01*
X355917D01*
X358559Y526874D01*
X360928Y528242D01*
X362863Y530176D01*
X364231Y532546D01*
X364939Y535188D01*
Y535286D01*
D02*
G37*
G36*
X353279D02*
X344159D01*
Y535188D01*
X344867Y532546D01*
X346235Y530176D01*
X348169Y528242D01*
X350538Y526874D01*
X353181Y526166D01*
X353279D01*
Y535286D01*
D02*
G37*
G36*
X418290Y525290D02*
X405770D01*
Y515020D01*
X418290D01*
Y525290D01*
D02*
G37*
G36*
X403230D02*
X390710D01*
Y515020D01*
X403230D01*
Y525290D01*
D02*
G37*
G36*
X418290Y512480D02*
X405770D01*
Y502210D01*
X418290D01*
Y512480D01*
D02*
G37*
G36*
X403230D02*
X390710D01*
Y502210D01*
X403230D01*
Y512480D01*
D02*
G37*
G36*
X337999Y545406D02*
X320299D01*
Y527706D01*
X325931D01*
Y525250D01*
X326203Y523884D01*
X326977Y522727D01*
X335663Y514040D01*
X335638Y511500D01*
X332000D01*
Y491500D01*
X346500D01*
Y496181D01*
X356522D01*
X359977Y492727D01*
X361134Y491953D01*
X362500Y491681D01*
X366250D01*
Y489250D01*
X381750D01*
Y501250D01*
X366250D01*
Y499466D01*
X363710Y499087D01*
X360523Y502273D01*
X359366Y503047D01*
X358000Y503319D01*
X346500D01*
Y511500D01*
X342819D01*
Y515500D01*
X342547Y516866D01*
X341773Y518023D01*
X334631Y525166D01*
X335683Y527706D01*
X337999D01*
Y545406D01*
D02*
G37*
G36*
X346500Y485500D02*
X332000D01*
Y470547D01*
X318727Y457273D01*
X317953Y456116D01*
X317681Y454750D01*
Y447000D01*
X313330D01*
X313250Y447000D01*
X310790Y447193D01*
Y448540D01*
X302770D01*
Y438250D01*
Y427960D01*
X310790D01*
Y429307D01*
X313250Y429500D01*
X313330Y429500D01*
X317431D01*
Y408228D01*
X316272Y407069D01*
X308250D01*
Y415750D01*
X288250D01*
Y391250D01*
X308250D01*
Y399931D01*
X316272D01*
X320977Y395227D01*
X322134Y394453D01*
X323500Y394181D01*
X328500D01*
Y391750D01*
X345000D01*
Y403750D01*
X328500D01*
Y401319D01*
X324978D01*
X322797Y403500D01*
X323523Y404227D01*
X324297Y405384D01*
X324569Y406750D01*
Y429500D01*
X328750D01*
Y429500D01*
X331290Y429608D01*
X331931Y429180D01*
Y426500D01*
X332203Y425134D01*
X332977Y423977D01*
X337977Y418977D01*
X339134Y418203D01*
X340500Y417931D01*
X345000D01*
Y413750D01*
X362500D01*
Y429250D01*
X345000D01*
Y425069D01*
X341978D01*
X339069Y427978D01*
Y432500D01*
X338797Y433866D01*
X338023Y435023D01*
X333023Y440023D01*
X331866Y440797D01*
X330500Y441069D01*
X328750D01*
Y447000D01*
X324819D01*
Y453272D01*
X337047Y465500D01*
X346500D01*
Y485500D01*
D02*
G37*
G36*
X416750Y494750D02*
X392250D01*
Y488819D01*
X387750D01*
X386384Y488547D01*
X385227Y487773D01*
X383772Y486319D01*
X376500D01*
X376155Y486250D01*
X366250D01*
Y474250D01*
X381750D01*
Y479182D01*
X385250D01*
X386616Y479453D01*
X387773Y480227D01*
X389228Y481681D01*
X392250D01*
Y474750D01*
X397861D01*
X398913Y472210D01*
X395703Y469000D01*
X388750D01*
Y452500D01*
X400750D01*
Y463953D01*
X404036Y467240D01*
X406272Y467973D01*
X406273D01*
Y467973D01*
X407750Y467361D01*
X407750Y466832D01*
Y452500D01*
X419750D01*
Y457181D01*
X429022D01*
X439288Y446915D01*
X438316Y444569D01*
X362500D01*
Y448750D01*
X345000D01*
Y433250D01*
X362500D01*
Y437431D01*
X470272D01*
X492431Y415272D01*
Y396670D01*
X490719Y395682D01*
X489358Y394320D01*
X483977D01*
X481922Y396375D01*
X480764Y397149D01*
X479398Y397420D01*
X475990D01*
X474778Y399960D01*
X475461Y400803D01*
X475461Y401784D01*
Y407103D01*
X466610D01*
X457759D01*
Y401784D01*
X457759Y400803D01*
X458781Y399541D01*
X458089Y397586D01*
X457503Y397001D01*
X451327D01*
X450855Y397814D01*
X450346Y399033D01*
X451418Y401573D01*
X451640D01*
Y407943D01*
X431860D01*
Y401707D01*
X431818Y401406D01*
X431466Y400812D01*
X429061Y400023D01*
X428334Y400324D01*
X413854D01*
X412698Y399845D01*
X412220Y398690D01*
Y393710D01*
X412698Y392554D01*
X413854Y392075D01*
X428334D01*
X428469Y392131D01*
X429120D01*
X430134Y391453D01*
X431500Y391181D01*
X433400D01*
Y386912D01*
X450100D01*
Y389864D01*
X459299D01*
Y387821D01*
X473921D01*
Y390283D01*
X477920D01*
X479975Y388228D01*
X481133Y387455D01*
X482498Y387183D01*
X487530D01*
X487986Y385480D01*
X489118Y383520D01*
X490719Y381918D01*
X492681Y380786D01*
X494868Y380200D01*
X497132D01*
X499319Y380786D01*
X501281Y381918D01*
X502882Y383520D01*
X504014Y385480D01*
X504600Y387668D01*
Y389932D01*
X504014Y392119D01*
X502882Y394081D01*
X501281Y395682D01*
X499569Y396670D01*
Y416750D01*
X499297Y418116D01*
X498523Y419273D01*
X474273Y443523D01*
X473116Y444297D01*
X471750Y444569D01*
X451728D01*
X433023Y463273D01*
X431866Y464047D01*
X430500Y464319D01*
X419750D01*
Y469000D01*
X409611Y469000D01*
X408914Y469000D01*
X408464Y469295D01*
X407861Y470064D01*
X407861Y470064D01*
X407069Y472276D01*
Y474750D01*
X416750D01*
Y494750D01*
D02*
G37*
G36*
X300230Y448540D02*
X292210D01*
Y439520D01*
X300230D01*
Y448540D01*
D02*
G37*
G36*
Y436980D02*
X292210D01*
Y427960D01*
X300230D01*
Y436980D01*
D02*
G37*
G36*
X396270Y431363D02*
Y423770D01*
X403863D01*
X403284Y425931D01*
X402114Y427959D01*
X400459Y429614D01*
X398431Y430784D01*
X396270Y431363D01*
D02*
G37*
G36*
X393730D02*
X391569Y430784D01*
X389541Y429614D01*
X387886Y427959D01*
X386716Y425931D01*
X386137Y423770D01*
X393730D01*
Y431363D01*
D02*
G37*
G36*
X403863Y421230D02*
X396270D01*
Y413637D01*
X398431Y414216D01*
X400459Y415386D01*
X402114Y417041D01*
X403284Y419069D01*
X403863Y421230D01*
D02*
G37*
G36*
X393730D02*
X386137D01*
X386716Y419069D01*
X387886Y417041D01*
X389541Y415386D01*
X391569Y414216D01*
X393730Y413637D01*
Y421230D01*
D02*
G37*
G36*
X451640Y416852D02*
X443020D01*
Y410482D01*
X451640D01*
Y416852D01*
D02*
G37*
G36*
X440480D02*
X431860D01*
Y410482D01*
X440480D01*
Y416852D01*
D02*
G37*
G36*
X475461Y415944D02*
X467880D01*
Y409643D01*
X475461D01*
Y415944D01*
D02*
G37*
G36*
X465340D02*
X457759D01*
Y409643D01*
X465340D01*
Y415944D01*
D02*
G37*
G36*
X280790Y417290D02*
X270520D01*
Y404770D01*
X280790D01*
Y417290D01*
D02*
G37*
G36*
X267980D02*
X257710D01*
Y404770D01*
X267980D01*
Y417290D01*
D02*
G37*
G36*
X280790Y402230D02*
X270520D01*
Y389710D01*
X280790D01*
Y402230D01*
D02*
G37*
G36*
X267980D02*
X257710D01*
Y389710D01*
X267980D01*
Y402230D01*
D02*
G37*
G36*
X428334Y387624D02*
X413854D01*
X412698Y387145D01*
X412220Y385990D01*
Y381010D01*
X412698Y379854D01*
X413854Y379375D01*
X417525D01*
Y374924D01*
X413854D01*
X412698Y374445D01*
X412220Y373290D01*
Y368310D01*
X412698Y367154D01*
X413854Y366675D01*
X428334D01*
X429490Y367154D01*
X429968Y368310D01*
Y373290D01*
X429490Y374445D01*
X428334Y374924D01*
X424663D01*
Y379375D01*
X428334D01*
X429490Y379854D01*
X429968Y381010D01*
Y385990D01*
X429490Y387145D01*
X428334Y387624D01*
D02*
G37*
G36*
X345000Y384750D02*
X328500D01*
Y372750D01*
X333209D01*
Y366245D01*
X329493D01*
X329493Y355165D01*
X327953Y353263D01*
X327953Y352282D01*
Y346963D01*
X336804D01*
X345655D01*
Y352282D01*
X345655Y353263D01*
X345551Y353391D01*
X345730Y354403D01*
X346657Y356062D01*
X347366Y356203D01*
X348523Y356977D01*
X355134Y363587D01*
X357080Y361990D01*
X356981Y361780D01*
X356929Y361518D01*
X356744Y360590D01*
Y359370D01*
X365824D01*
Y363699D01*
X359854D01*
X359352Y363599D01*
X358380Y364582D01*
X358047Y365215D01*
X357850Y365774D01*
X358800Y366931D01*
X359235D01*
X359854Y366675D01*
X374334D01*
X375490Y367154D01*
X375968Y368310D01*
Y373290D01*
X375490Y374445D01*
X374334Y374924D01*
X359854D01*
X358698Y374445D01*
X358542Y374069D01*
X357000D01*
X355634Y373797D01*
X354477Y373023D01*
X346655Y365201D01*
X344115Y366245D01*
Y366245D01*
X340346D01*
Y372750D01*
X345000D01*
Y384750D01*
D02*
G37*
G36*
X497132Y372000D02*
X494868D01*
X492681Y371414D01*
X490719Y370282D01*
X489118Y368680D01*
X487986Y366720D01*
X487798Y366019D01*
X476000D01*
Y369750D01*
X464000D01*
Y353250D01*
X476000D01*
Y358881D01*
X488678D01*
X489118Y358120D01*
X490719Y356518D01*
X492681Y355386D01*
X494868Y354800D01*
X497132D01*
X499319Y355386D01*
X501281Y356518D01*
X502882Y358120D01*
X504014Y360080D01*
X504600Y362268D01*
Y364532D01*
X504014Y366720D01*
X502882Y368680D01*
X501281Y370282D01*
X499319Y371414D01*
X497132Y372000D01*
D02*
G37*
G36*
X428334Y363699D02*
X422364D01*
Y359370D01*
X431444D01*
Y360590D01*
X431207Y361780D01*
X430533Y362789D01*
X429524Y363463D01*
X428334Y363699D01*
D02*
G37*
G36*
X419824D02*
X413854D01*
X412664Y363463D01*
X411655Y362789D01*
X410981Y361780D01*
X410744Y360590D01*
Y359370D01*
X419824D01*
Y363699D01*
D02*
G37*
G36*
X374334D02*
X368364D01*
Y359370D01*
X377444D01*
Y360590D01*
X377207Y361780D01*
X376533Y362789D01*
X375524Y363463D01*
X374334Y363699D01*
D02*
G37*
G36*
X431444Y356830D02*
X422364D01*
Y352500D01*
X428334D01*
X429524Y352737D01*
X430533Y353411D01*
X431207Y354420D01*
X431444Y355610D01*
Y356830D01*
D02*
G37*
G36*
X419824D02*
X410744D01*
Y355610D01*
X410981Y354420D01*
X411655Y353411D01*
X412664Y352737D01*
X413854Y352500D01*
X419824D01*
Y356830D01*
D02*
G37*
G36*
X377444D02*
X368364D01*
Y352500D01*
X374334D01*
X375524Y352737D01*
X376533Y353411D01*
X377207Y354420D01*
X377444Y355610D01*
Y356830D01*
D02*
G37*
G36*
X365824D02*
X356744D01*
Y355610D01*
X356981Y354420D01*
X357655Y353411D01*
X358664Y352737D01*
X359854Y352500D01*
X365824D01*
Y356830D01*
D02*
G37*
G36*
X360770Y347613D02*
Y340020D01*
X368363D01*
X367784Y342181D01*
X366614Y344209D01*
X364959Y345864D01*
X362931Y347034D01*
X360770Y347613D01*
D02*
G37*
G36*
X358230D02*
X356069Y347034D01*
X354041Y345864D01*
X352386Y344209D01*
X351216Y342181D01*
X350637Y340020D01*
X358230D01*
Y347613D01*
D02*
G37*
G36*
X506140Y348140D02*
X497270D01*
Y339270D01*
X506140D01*
Y348140D01*
D02*
G37*
G36*
X494730D02*
X485860D01*
Y339270D01*
X494730D01*
Y348140D01*
D02*
G37*
G36*
X345655Y344423D02*
X338074D01*
Y338122D01*
X345655D01*
Y344423D01*
D02*
G37*
G36*
X335534D02*
X327953D01*
Y338122D01*
X335534D01*
Y344423D01*
D02*
G37*
G36*
X368363Y337480D02*
X360770D01*
Y329887D01*
X362931Y330466D01*
X364959Y331636D01*
X366614Y333291D01*
X367784Y335319D01*
X368363Y337480D01*
D02*
G37*
G36*
X358230D02*
X350637D01*
X351216Y335319D01*
X352386Y333291D01*
X354041Y331636D01*
X356069Y330466D01*
X358230Y329887D01*
Y337480D01*
D02*
G37*
G36*
X506140Y336730D02*
X497270D01*
Y327860D01*
X506140D01*
Y336730D01*
D02*
G37*
G36*
X494730D02*
X485860D01*
Y327860D01*
X494730D01*
Y336730D01*
D02*
G37*
G36*
X374334Y387624D02*
X359854D01*
X358698Y387145D01*
X358220Y385990D01*
Y381010D01*
X358698Y379854D01*
X359854Y379375D01*
X374334D01*
X374469Y379431D01*
X377772D01*
X382681Y374522D01*
Y347478D01*
X376727Y341523D01*
X375953Y340366D01*
X375681Y339000D01*
Y334250D01*
X371000D01*
Y322250D01*
X387500D01*
Y334250D01*
X382819D01*
Y337522D01*
X388773Y343477D01*
X389547Y344634D01*
X389819Y346000D01*
Y376000D01*
X389547Y377366D01*
X388773Y378523D01*
X381774Y385523D01*
X380616Y386297D01*
X379250Y386568D01*
X375729D01*
X375490Y387145D01*
X374334Y387624D01*
D02*
G37*
G36*
Y400324D02*
X359854D01*
X358698Y399845D01*
X358220Y398690D01*
Y393710D01*
X358698Y392554D01*
X359854Y392075D01*
X374334D01*
X375490Y392554D01*
X375522Y392631D01*
X389322D01*
X394681Y387272D01*
Y356750D01*
X394953Y355384D01*
X395727Y354227D01*
X411477Y338477D01*
X411700Y335496D01*
X408203Y332000D01*
X395750D01*
Y316500D01*
X413250D01*
Y319638D01*
X415790Y319663D01*
X417727Y317727D01*
X418884Y316953D01*
X420250Y316681D01*
X423036D01*
X424479Y314660D01*
Y312199D01*
X424479Y312120D01*
Y309028D01*
X413250D01*
Y312500D01*
X395750D01*
Y311389D01*
X393210Y310337D01*
X392023Y311523D01*
X390866Y312297D01*
X389500Y312569D01*
X387500D01*
Y315250D01*
X371000D01*
Y303250D01*
X375681D01*
Y294000D01*
X366750D01*
Y269500D01*
X386750D01*
Y294000D01*
X382819D01*
Y303250D01*
X387500D01*
Y303250D01*
X390040Y303413D01*
X391727Y301727D01*
X392884Y300953D01*
X394250Y300681D01*
X395750D01*
Y297000D01*
X413250D01*
Y301891D01*
X424479D01*
Y300139D01*
X439101D01*
Y312120D01*
X439101Y312199D01*
Y314660D01*
X439101Y314739D01*
Y326721D01*
X424479D01*
Y323819D01*
X421728D01*
X419773Y325773D01*
X418616Y326547D01*
X417250Y326819D01*
X416707D01*
X415655Y329359D01*
X423728Y337431D01*
X445750D01*
X447116Y337703D01*
X448273Y338477D01*
X452273Y342477D01*
X453047Y343634D01*
X453319Y345000D01*
Y353250D01*
X457000D01*
Y369750D01*
X445000D01*
Y353250D01*
X446181D01*
Y346478D01*
X444272Y344569D01*
X415478D01*
X401819Y358228D01*
Y388750D01*
X401547Y390116D01*
X400773Y391273D01*
X393324Y398723D01*
X392166Y399496D01*
X390800Y399768D01*
X375522D01*
X375490Y399845D01*
X374334Y400324D01*
D02*
G37*
G36*
X359290Y295540D02*
X349020D01*
Y283020D01*
X359290D01*
Y295540D01*
D02*
G37*
G36*
X346480D02*
X336210D01*
Y283020D01*
X346480D01*
Y295540D01*
D02*
G37*
G36*
X359290Y280480D02*
X349020D01*
Y267960D01*
X359290D01*
Y280480D01*
D02*
G37*
G36*
X346480D02*
X336210D01*
Y267960D01*
X346480D01*
Y280480D01*
D02*
G37*
G36*
X402561Y266000D02*
X397439D01*
X392416Y265001D01*
X387684Y263041D01*
X383426Y260196D01*
X379804Y256574D01*
X376959Y252316D01*
X374999Y247584D01*
X374000Y242561D01*
Y237439D01*
X374999Y232416D01*
X376959Y227684D01*
X379804Y223426D01*
X383426Y219804D01*
X387684Y216959D01*
X392416Y214999D01*
X397439Y214000D01*
X402561D01*
X407584Y214999D01*
X412316Y216959D01*
X416574Y219804D01*
X420196Y223426D01*
X423041Y227684D01*
X425001Y232416D01*
X426000Y237439D01*
Y242561D01*
X425001Y247584D01*
X423041Y252316D01*
X420196Y256574D01*
X416574Y260196D01*
X412316Y263041D01*
X407584Y265001D01*
X402561Y266000D01*
D02*
G37*
%LPD*%
D11*
X421094Y370800D02*
Y383500D01*
X421750Y340500D02*
Y341000D01*
X405500Y324250D02*
X421750Y340500D01*
X404500Y324250D02*
X405500D01*
X421750Y341000D02*
X445750D01*
X449750Y360250D02*
X451000Y361500D01*
X449750Y345000D02*
Y360250D01*
X445750Y341000D02*
X449750Y345000D01*
X414000Y341000D02*
X421750D01*
X495050Y362450D02*
X496000Y363400D01*
X470950Y362450D02*
X495050D01*
X470000Y361500D02*
X470950Y362450D01*
X398250Y356750D02*
X414000Y341000D01*
X431349Y320250D02*
X431790Y320691D01*
X420250Y320250D02*
X431349D01*
X417250Y323250D02*
X420250Y320250D01*
X405500Y323250D02*
X417250D01*
X404500Y324250D02*
X405500Y323250D01*
X431081Y305459D02*
X431790Y306169D01*
X405210Y305459D02*
X431081D01*
X404500Y304750D02*
X405210Y305459D01*
X398250Y356750D02*
Y388750D01*
X390800Y396200D02*
X398250Y388750D01*
X367094Y396200D02*
X390800D01*
X404000Y304250D02*
X404500Y304750D01*
X394250Y304250D02*
X404000D01*
X389500Y309000D02*
X394250Y304250D01*
X379500Y309000D02*
X389500D01*
X379250Y309250D02*
X379500Y309000D01*
X376750Y281750D02*
X379250Y284250D01*
Y309250D01*
Y328250D02*
Y339000D01*
X386250Y346000D01*
Y376000D01*
X379250Y383000D02*
X386250Y376000D01*
X367594Y383000D02*
X379250D01*
X367094Y383500D02*
X367594Y383000D01*
X336804Y360214D02*
X337518Y359500D01*
X346000D01*
X357000Y370500D01*
X366794D01*
X367094Y370800D01*
X336777Y360241D02*
X336804Y360214D01*
X336777Y360241D02*
Y378723D01*
X336750Y378750D02*
X336777Y378723D01*
X323500Y397750D02*
X336750D01*
X317750Y403500D02*
X323500Y397750D01*
X317750Y403500D02*
X321000Y406750D01*
X298250Y403500D02*
X317750D01*
X321000Y406750D02*
Y438250D01*
X321250Y438500D01*
Y454750D01*
X339250Y472750D01*
Y475500D01*
X321000Y438250D02*
X321750Y437500D01*
X330500D01*
X335500Y432500D01*
Y426500D02*
Y432500D01*
Y426500D02*
X340500Y421500D01*
X353750D01*
X329149Y536556D02*
X329500Y536205D01*
Y525250D02*
Y536205D01*
Y525250D02*
X339250Y515500D01*
Y501500D02*
Y515500D01*
Y501500D02*
X341000Y499750D01*
X358000D01*
X362500Y495250D01*
X374000D01*
X404000Y485250D02*
X404500Y484750D01*
X387750Y485250D02*
X404000D01*
X385250Y482750D02*
X387750Y485250D01*
X376500Y482750D02*
X385250D01*
X374000Y480250D02*
X376500Y482750D01*
X403500Y483750D02*
X404500Y484750D01*
X403500Y471750D02*
Y483750D01*
X394750Y463000D02*
X403500Y471750D01*
X394750Y460750D02*
Y463000D01*
X430500Y460750D02*
X450250Y441000D01*
X413750Y460750D02*
X430500D01*
X496000Y388800D02*
Y416750D01*
X450250Y441000D02*
X471750D01*
X353750D02*
X450250D01*
X471750D02*
X496000Y416750D01*
X440013Y394750D02*
X441750Y393013D01*
X431500Y394750D02*
X440013D01*
X430550Y395700D02*
X431500Y394750D01*
X421594Y395700D02*
X430550D01*
X421094Y396200D02*
X421594Y395700D01*
X441750Y393013D02*
X442170Y393432D01*
X466190D01*
X466610Y393852D01*
X494048Y390752D02*
X496000Y388800D01*
X482498Y390752D02*
X494048D01*
X479398Y393852D02*
X482498Y390752D01*
X466610Y393852D02*
X479398D01*
D14*
X470000Y361500D02*
D03*
X451000D02*
D03*
X413750Y460750D02*
D03*
X394750D02*
D03*
D15*
X431790Y306169D02*
D03*
Y320691D02*
D03*
X336804Y345693D02*
D03*
Y360214D02*
D03*
X466610Y393852D02*
D03*
Y408373D02*
D03*
D16*
X336750Y378750D02*
D03*
Y397750D02*
D03*
X379250Y309250D02*
D03*
Y328250D02*
D03*
D17*
X367094Y396200D02*
D03*
Y383500D02*
D03*
Y370800D02*
D03*
Y358100D02*
D03*
X421094D02*
D03*
Y370800D02*
D03*
Y383500D02*
D03*
Y396200D02*
D03*
D18*
X404500Y513750D02*
D03*
Y484750D02*
D03*
D19*
X441750Y409212D02*
D03*
Y393013D02*
D03*
D20*
X347750Y281750D02*
D03*
X376750D02*
D03*
X269250Y403500D02*
D03*
X298250D02*
D03*
D21*
X404500Y304750D02*
D03*
Y324250D02*
D03*
X353750Y421500D02*
D03*
Y441000D02*
D03*
D22*
X301500Y438250D02*
D03*
X321000D02*
D03*
D23*
X374000Y495250D02*
D03*
Y480250D02*
D03*
D24*
X339250Y475500D02*
D03*
Y501500D02*
D03*
D34*
X496000Y338000D02*
D03*
D35*
Y363400D02*
D03*
Y388800D02*
D03*
D37*
X354549Y536556D02*
D03*
D38*
X329149D02*
D03*
D40*
X400000Y240000D02*
D03*
Y560000D02*
D03*
D41*
X359500Y338750D02*
D03*
X395000Y422500D02*
D03*
M02*
