M48
;Layer_Color=9474304
;FILE_FORMAT=4:4
METRIC,LZ
;TYPE=PLATED
T01F00S00C0.3000
T03F00S00C0.9900
T04F00S00C1.0200
T05F00S00C3.2000
%
T01
X00385064Y0031877
X0038225Y0038725
X004191Y00368808
X00421894Y00356616
X0042164Y00340614
X0044958Y0033909
Y00351536
Y0036576
X00442722Y00378714
X00447802Y00314706
X00557086Y00311185
X0056642Y00322184
Y00329184
X00555498Y00341122
X00564642Y00381762
X00577088Y00385318
X00599186Y00379984
X00590296Y0032004
X005215Y0038725
Y0041475
X00564642Y00418325
X00588264Y0043561
X0044875Y0051975
X0037Y0046325
X0035Y0044625
X0034925Y0041025
T03
X003775Y002175
Y002825
X004225
Y002175
T04
X0030396Y00566031
X0032698Y00576766
X0035Y005875
T05
X004875Y002484
Y005516
X00225Y004
M30
