G04*
G04 #@! TF.GenerationSoftware,Altium Limited,Altium Designer,26.2.0 (7)*
G04*
G04 Layer_Physical_Order=2*
G04 Layer_Color=16711680*
%FSLAX44Y44*%
%MOMM*%
G71*
G04*
G04 #@! TF.SameCoordinates,1EA23FBA-1D85-42B1-9F3F-7DEC5DB412DD*
G04*
G04*
G04 #@! TF.FilePolarity,Positive*
G04*
G01*
G75*
%ADD10C,0.2500*%
%ADD13C,0.1500*%
%ADD23R,1.0061X1.2621*%
%ADD46C,1.5400*%
%ADD47R,1.5400X1.5400*%
%ADD48C,1.5200*%
%ADD49P,2.1496X4X70.0*%
%ADD51C,0.7100*%
G04:AMPARAMS|DCode=52|XSize=1.01mm|YSize=0.71mm|CornerRadius=0.355mm|HoleSize=0mm|Usage=FLASHONLY|Rotation=270.000|XOffset=0mm|YOffset=0mm|HoleType=Round|Shape=RoundedRectangle|*
%AMROUNDEDRECTD52*
21,1,1.0100,0.0000,0,0,270.0*
21,1,0.3000,0.7100,0,0,270.0*
1,1,0.7100,0.0000,-0.1500*
1,1,0.7100,0.0000,0.1500*
1,1,0.7100,0.0000,0.1500*
1,1,0.7100,0.0000,-0.1500*
%
%ADD52ROUNDEDRECTD52*%
G04:AMPARAMS|DCode=53|XSize=1.6mm|YSize=1.1mm|CornerRadius=0.55mm|HoleSize=0mm|Usage=FLASHONLY|Rotation=270.000|XOffset=0mm|YOffset=0mm|HoleType=Round|Shape=RoundedRectangle|*
%AMROUNDEDRECTD53*
21,1,1.6000,0.0000,0,0,270.0*
21,1,0.5000,1.1000,0,0,270.0*
1,1,1.1000,0.0000,-0.2500*
1,1,1.1000,0.0000,0.2500*
1,1,1.1000,0.0000,0.2500*
1,1,1.1000,0.0000,-0.2500*
%
%ADD53ROUNDEDRECTD53*%
%ADD56C,0.5000*%
%ADD57C,0.2540*%
%ADD58C,0.4000*%
%ADD59C,5.0000*%
%ADD60C,0.6000*%
%ADD61R,0.6000X0.6000*%
%ADD62R,1.1500X1.4000*%
%ADD63R,1.4000X1.1500*%
%ADD64R,1.1500X0.3000*%
G36*
X667000Y637688D02*
Y168500D01*
X142000D01*
Y636500D01*
X665500Y638744D01*
X667000Y637688D01*
D02*
G37*
%LPC*%
G36*
X349622Y596166D02*
X347392Y595773D01*
X345339Y594816D01*
X343605Y593360D01*
X342306Y591505D01*
X341531Y589377D01*
X341334Y587122D01*
X341727Y584892D01*
X342684Y582839D01*
X344140Y581105D01*
X345995Y579806D01*
X348123Y579031D01*
X350378Y578834D01*
X352608Y579227D01*
X354661Y580184D01*
X356395Y581640D01*
X357694Y583495D01*
X358469Y585623D01*
X358666Y587878D01*
X358273Y590108D01*
X357316Y592161D01*
X355860Y593895D01*
X354005Y595194D01*
X351878Y595969D01*
X349622Y596166D01*
D02*
G37*
G36*
X308119Y577460D02*
X292531Y570191D01*
X299800Y554602D01*
X315388Y561871D01*
X308119Y577460D01*
D02*
G37*
G36*
X490061Y577600D02*
X484939D01*
X479916Y576601D01*
X475184Y574641D01*
X470926Y571796D01*
X467304Y568174D01*
X464459Y563916D01*
X462499Y559184D01*
X461500Y554161D01*
Y549039D01*
X462499Y544016D01*
X464459Y539284D01*
X467304Y535026D01*
X470926Y531404D01*
X475184Y528559D01*
X479916Y526599D01*
X484939Y525600D01*
X490061D01*
X495084Y526599D01*
X499816Y528559D01*
X504074Y531404D01*
X507696Y535026D01*
X510541Y539284D01*
X512501Y544016D01*
X513500Y549039D01*
Y554161D01*
X512501Y559184D01*
X510541Y563916D01*
X507696Y568174D01*
X504074Y571796D01*
X499816Y574641D01*
X495084Y576601D01*
X490061Y577600D01*
D02*
G37*
G36*
X326601Y585431D02*
X324371Y585038D01*
X322319Y584081D01*
X320584Y582626D01*
X319286Y580771D01*
X318511Y578643D01*
X318314Y576387D01*
X318707Y574157D01*
X319664Y572105D01*
X321120Y570370D01*
X322975Y569071D01*
X325102Y568297D01*
X327358Y568100D01*
X329588Y568493D01*
X330009Y568689D01*
X348222Y550477D01*
X349380Y549703D01*
X350745Y549431D01*
X414022D01*
X444928Y518526D01*
X445359Y517484D01*
X446484Y516359D01*
X447954Y515750D01*
X449546D01*
X451016Y516359D01*
X452141Y517484D01*
X452750Y518954D01*
Y520546D01*
X452141Y522016D01*
X451016Y523141D01*
X449974Y523572D01*
X418023Y555523D01*
X416866Y556297D01*
X415500Y556569D01*
X352223D01*
X335036Y573756D01*
X335448Y574888D01*
X335646Y577144D01*
X335252Y579374D01*
X334296Y581426D01*
X332840Y583161D01*
X330985Y584460D01*
X328857Y585234D01*
X326601Y585431D01*
D02*
G37*
G36*
X597804Y481812D02*
X589534D01*
Y474792D01*
X597804D01*
Y481812D01*
D02*
G37*
G36*
X586994D02*
X578724D01*
Y474792D01*
X586994D01*
Y481812D01*
D02*
G37*
G36*
X570040Y474540D02*
X563020D01*
Y466270D01*
X570040D01*
Y474540D01*
D02*
G37*
G36*
X560480D02*
X553460D01*
Y466270D01*
X560480D01*
Y474540D01*
D02*
G37*
G36*
X597804Y472252D02*
X589534D01*
Y465232D01*
X597804D01*
Y472252D01*
D02*
G37*
G36*
X586994D02*
X578724D01*
Y465232D01*
X586994D01*
Y472252D01*
D02*
G37*
G36*
X545000Y473000D02*
X531500D01*
Y466784D01*
X524750D01*
X524067Y466648D01*
X523488Y466262D01*
X511238Y454012D01*
X510852Y453433D01*
X510716Y452750D01*
Y442750D01*
X510852Y442067D01*
X510887Y442015D01*
Y410547D01*
X511022Y409864D01*
X511409Y409285D01*
X514456Y406238D01*
X515035Y405852D01*
X515718Y405716D01*
X527197D01*
X528400Y405000D01*
X528400Y403500D01*
Y400000D01*
X528400Y395000D01*
X528400Y393500D01*
Y390944D01*
X523035D01*
X522296Y391250D01*
X520704D01*
X519234Y390641D01*
X518109Y389516D01*
X517500Y388046D01*
Y386454D01*
X518109Y384984D01*
X519234Y383859D01*
X520704Y383250D01*
X522296D01*
X523639Y383806D01*
X535025D01*
X536391Y384078D01*
X537548Y384852D01*
X537673Y384977D01*
X537689Y385000D01*
X541900D01*
Y390000D01*
X541900Y395000D01*
X543315Y395206D01*
X547500D01*
X547706Y395037D01*
Y383009D01*
X547881Y382131D01*
X548378Y381387D01*
X554875Y374890D01*
X555619Y374393D01*
X556497Y374218D01*
X556517Y373770D01*
X564850D01*
X573140D01*
Y374218D01*
X590475D01*
X590495Y374188D01*
X589694Y372688D01*
X579301D01*
X578423Y372513D01*
X577678Y372016D01*
X577181Y371271D01*
X577007Y370393D01*
Y360393D01*
X577181Y359516D01*
X577678Y358771D01*
X578423Y358274D01*
X579301Y358100D01*
X592574D01*
Y352688D01*
X579301D01*
X578423Y352513D01*
X577678Y352016D01*
X577181Y351271D01*
X577007Y350393D01*
Y340393D01*
X577181Y339516D01*
X577678Y338771D01*
X578423Y338274D01*
X579301Y338100D01*
X588673D01*
X589247Y336714D01*
X582512Y329978D01*
X570420D01*
Y329980D01*
X569811Y331450D01*
X568686Y332575D01*
X567216Y333184D01*
X565624D01*
X564154Y332575D01*
X563029Y331450D01*
X562420Y329980D01*
Y328388D01*
X563029Y326918D01*
X563283Y326664D01*
X564067Y325684D01*
X563283Y324704D01*
X563029Y324450D01*
X562420Y322980D01*
Y321388D01*
X563029Y319918D01*
X564154Y318793D01*
X565624Y318184D01*
X567216D01*
X568686Y318793D01*
X569811Y319918D01*
X570420Y321388D01*
Y321390D01*
X584590D01*
X584644Y321310D01*
X595766D01*
X594993Y323178D01*
X593434Y324737D01*
X592093Y325292D01*
X591645Y326966D01*
X600490Y335811D01*
X600987Y336555D01*
X601162Y337433D01*
Y369064D01*
X610206Y378108D01*
X610703Y378852D01*
X610878Y379730D01*
Y394121D01*
Y414020D01*
X610703Y414898D01*
X610206Y415642D01*
X600651Y425197D01*
X599907Y425694D01*
X599029Y425869D01*
X573140D01*
Y426230D01*
X564850D01*
X556560D01*
Y425869D01*
X550575D01*
X550575Y425869D01*
X549697Y425694D01*
X548953Y425197D01*
X548953Y425197D01*
X547526Y423770D01*
X547029Y423026D01*
X546854Y422148D01*
Y408874D01*
X543400Y405420D01*
X541900Y406042D01*
X541900Y406500D01*
Y415000D01*
X537689D01*
X537673Y415023D01*
X536516Y415797D01*
X535150Y416069D01*
X525499D01*
X525131Y416436D01*
X524891Y417016D01*
X523766Y418141D01*
X522296Y418750D01*
X520704D01*
X519234Y418141D01*
X518109Y417016D01*
X517500Y415546D01*
Y413954D01*
X518109Y412484D01*
X519234Y411359D01*
X519337Y411317D01*
X519548Y410784D01*
X518530Y409284D01*
X516457D01*
X514455Y411286D01*
Y442579D01*
X514319Y443262D01*
X514284Y443315D01*
Y452011D01*
X525489Y463216D01*
X531500D01*
Y457000D01*
X545000D01*
Y473000D01*
D02*
G37*
G36*
X570040Y463730D02*
X563020D01*
Y455460D01*
X570040D01*
Y463730D01*
D02*
G37*
G36*
X560480D02*
X553460D01*
Y455460D01*
X560480D01*
Y463730D01*
D02*
G37*
G36*
X378540Y455540D02*
X374270D01*
Y451270D01*
X378540D01*
Y455540D01*
D02*
G37*
G36*
Y448730D02*
X374270D01*
Y444460D01*
X378540D01*
Y448730D01*
D02*
G37*
G36*
X370796Y467250D02*
X369204D01*
X367734Y466641D01*
X366609Y465516D01*
X366050Y464167D01*
X364241Y462358D01*
X364080Y462326D01*
X363087Y461663D01*
X363087Y461663D01*
X362837Y461413D01*
X362174Y460420D01*
X361941Y459250D01*
X361941Y459250D01*
Y454000D01*
X361000D01*
Y453559D01*
X354791D01*
X353621Y453326D01*
X352628Y452663D01*
X350215Y450250D01*
X349204D01*
X347734Y449641D01*
X346609Y448516D01*
X346000Y447046D01*
Y445454D01*
X346609Y443984D01*
X347734Y442859D01*
X349204Y442250D01*
X350796D01*
X352266Y442859D01*
X353391Y443984D01*
X353950Y445333D01*
X356058Y447441D01*
X361000D01*
Y446000D01*
X366801D01*
X367000Y445918D01*
X367460D01*
Y444460D01*
X371730D01*
Y446219D01*
X371766Y446234D01*
X372083Y447000D01*
Y450000D01*
Y453000D01*
X371766Y453766D01*
X371730Y453781D01*
Y455540D01*
X368059D01*
Y457524D01*
X369785Y459250D01*
X370796D01*
X372266Y459859D01*
X373391Y460984D01*
X374000Y462454D01*
Y464046D01*
X373391Y465516D01*
X372266Y466641D01*
X370796Y467250D01*
D02*
G37*
G36*
X565570Y450442D02*
Y441270D01*
X572409D01*
Y442500D01*
X572133Y444599D01*
X571323Y446555D01*
X570034Y448234D01*
X568355Y449523D01*
X566399Y450333D01*
X565570Y450442D01*
D02*
G37*
G36*
X536970D02*
Y441270D01*
X543809D01*
Y442500D01*
X543533Y444599D01*
X542723Y446555D01*
X541434Y448234D01*
X539755Y449523D01*
X537799Y450333D01*
X536970Y450442D01*
D02*
G37*
G36*
X563030D02*
X562201Y450333D01*
X560245Y449523D01*
X558566Y448234D01*
X557277Y446555D01*
X556467Y444599D01*
X556191Y442500D01*
Y441270D01*
X563030D01*
Y450442D01*
D02*
G37*
G36*
X534430D02*
X533601Y450333D01*
X531645Y449523D01*
X529966Y448234D01*
X528677Y446555D01*
X527867Y444599D01*
X527591Y442500D01*
Y441270D01*
X534430D01*
Y450442D01*
D02*
G37*
G36*
X550905Y444550D02*
X549095D01*
X547423Y443857D01*
X546143Y442577D01*
X545450Y440905D01*
Y439095D01*
X546143Y437423D01*
X547423Y436143D01*
X549095Y435450D01*
X550905D01*
X552577Y436143D01*
X553857Y437423D01*
X554550Y439095D01*
Y440905D01*
X553857Y442577D01*
X552577Y443857D01*
X550905Y444550D01*
D02*
G37*
G36*
X596264Y456772D02*
X580264D01*
Y443272D01*
X586480D01*
Y439201D01*
X585998Y439001D01*
X584873Y437876D01*
X584264Y436406D01*
Y434814D01*
X584873Y433344D01*
X585998Y432219D01*
X587468Y431610D01*
X589060D01*
X590530Y432219D01*
X591655Y433344D01*
X592264Y434814D01*
Y436406D01*
X591655Y437876D01*
X590530Y439001D01*
X590048Y439201D01*
Y443272D01*
X596264D01*
Y456772D01*
D02*
G37*
G36*
X572409Y438730D02*
X564300D01*
X556191D01*
Y437500D01*
X556467Y435401D01*
X557277Y433445D01*
X557588Y433040D01*
X556848Y431540D01*
X556560D01*
Y428770D01*
X564850D01*
X573140D01*
Y431540D01*
X571752D01*
X571012Y433040D01*
X571323Y433445D01*
X572133Y435401D01*
X572409Y437500D01*
Y438730D01*
D02*
G37*
G36*
X543809D02*
X535700D01*
X527591D01*
Y437500D01*
X527867Y435401D01*
X528677Y433445D01*
X528988Y433040D01*
X528248Y431540D01*
X526860D01*
Y428770D01*
X535150D01*
X543440D01*
Y431540D01*
X543152D01*
X542412Y433040D01*
X542723Y433445D01*
X543533Y435401D01*
X543809Y437500D01*
Y438730D01*
D02*
G37*
G36*
X543440Y426230D02*
X536420D01*
Y423460D01*
X543440D01*
Y426230D01*
D02*
G37*
G36*
X533880D02*
X526860D01*
Y423460D01*
X533880D01*
Y426230D01*
D02*
G37*
G36*
X375991Y418851D02*
X369691D01*
Y418429D01*
X368769Y417311D01*
X368190Y417311D01*
X356709D01*
Y413694D01*
X351389D01*
X350046Y414250D01*
X348454D01*
X346984Y413641D01*
X345859Y412516D01*
X345250Y411046D01*
Y409454D01*
X345859Y407984D01*
X346984Y406859D01*
X348454Y406250D01*
X350046D01*
X350785Y406556D01*
X356709D01*
Y402689D01*
X368190D01*
X368769Y402689D01*
X369691Y401571D01*
Y401149D01*
X375991D01*
Y410000D01*
Y418851D01*
D02*
G37*
G36*
X384831D02*
X378531D01*
Y411270D01*
X384831D01*
Y418851D01*
D02*
G37*
G36*
Y408730D02*
X378531D01*
Y401149D01*
X384831D01*
Y408730D01*
D02*
G37*
G36*
X443992Y384184D02*
Y379984D01*
X448192D01*
X447419Y381852D01*
X445860Y383411D01*
X443992Y384184D01*
D02*
G37*
G36*
X441452D02*
X439584Y383411D01*
X438025Y381852D01*
X437252Y379984D01*
X441452D01*
Y384184D01*
D02*
G37*
G36*
X227561Y426000D02*
X222439D01*
X217416Y425001D01*
X212684Y423041D01*
X208426Y420196D01*
X204804Y416574D01*
X201959Y412316D01*
X199999Y407584D01*
X199000Y402561D01*
Y397439D01*
X199999Y392416D01*
X201959Y387684D01*
X204804Y383426D01*
X208426Y379804D01*
X212684Y376959D01*
X217416Y374999D01*
X222439Y374000D01*
X227561D01*
X232584Y374999D01*
X237316Y376959D01*
X241574Y379804D01*
X245196Y383426D01*
X248041Y387684D01*
X250001Y392416D01*
X251000Y397439D01*
Y402561D01*
X250001Y407584D01*
X248041Y412316D01*
X245196Y416574D01*
X241574Y420196D01*
X237316Y423041D01*
X232584Y425001D01*
X227561Y426000D01*
D02*
G37*
G36*
X543440Y376540D02*
X536420D01*
Y373770D01*
X543440D01*
Y376540D01*
D02*
G37*
G36*
X533880D02*
X526860D01*
Y373770D01*
X533880D01*
Y376540D01*
D02*
G37*
G36*
X448192Y377444D02*
X443992D01*
Y373244D01*
X445860Y374017D01*
X447419Y375576D01*
X448192Y377444D01*
D02*
G37*
G36*
X441452D02*
X437252D01*
X438025Y375576D01*
X439584Y374017D01*
X441452Y373244D01*
Y377444D01*
D02*
G37*
G36*
X420370Y374278D02*
Y370078D01*
X424570D01*
X423797Y371946D01*
X422238Y373505D01*
X420370Y374278D01*
D02*
G37*
G36*
X417830D02*
X415962Y373505D01*
X414403Y371946D01*
X413630Y370078D01*
X417830D01*
Y374278D01*
D02*
G37*
G36*
X450850Y371230D02*
Y367030D01*
X455050D01*
X454277Y368898D01*
X452718Y370457D01*
X450850Y371230D01*
D02*
G37*
G36*
X448310D02*
X446442Y370457D01*
X444883Y368898D01*
X444110Y367030D01*
X448310D01*
Y371230D01*
D02*
G37*
G36*
X573140Y371230D02*
X564850D01*
X556560D01*
Y368460D01*
X556848D01*
X557588Y366960D01*
X557277Y366555D01*
X556467Y364599D01*
X556191Y362500D01*
Y361270D01*
X564300D01*
X572409D01*
Y362500D01*
X572133Y364599D01*
X571323Y366555D01*
X571012Y366960D01*
X571752Y368460D01*
X573140D01*
Y371230D01*
D02*
G37*
G36*
X543440D02*
X535150D01*
X526860D01*
Y368460D01*
X528248D01*
X528988Y366960D01*
X528677Y366555D01*
X527867Y364599D01*
X527591Y362500D01*
Y361270D01*
X535700D01*
X543809D01*
Y362500D01*
X543533Y364599D01*
X542723Y366555D01*
X542412Y366960D01*
X543152Y368460D01*
X543440D01*
Y371230D01*
D02*
G37*
G36*
X455050Y364490D02*
X450850D01*
Y360290D01*
X452718Y361063D01*
X454277Y362622D01*
X455050Y364490D01*
D02*
G37*
G36*
X448310D02*
X444110D01*
X444883Y362622D01*
X446442Y361063D01*
X448310Y360290D01*
Y364490D01*
D02*
G37*
G36*
X424570Y367538D02*
X413630D01*
X414403Y365670D01*
X415962Y364111D01*
X417998Y363268D01*
X419557D01*
X419855Y361768D01*
X418756Y361313D01*
X417197Y359754D01*
X416424Y357886D01*
X427364D01*
X426591Y359754D01*
X425032Y361313D01*
X422996Y362156D01*
X421437D01*
X421139Y363656D01*
X422238Y364111D01*
X423797Y365670D01*
X424570Y367538D01*
D02*
G37*
G36*
X550000Y366139D02*
X548225Y365786D01*
X546720Y364780D01*
X545714Y363275D01*
X545361Y361500D01*
Y358500D01*
X545714Y356725D01*
X546720Y355220D01*
X548225Y354214D01*
X550000Y353861D01*
X551775Y354214D01*
X553280Y355220D01*
X554286Y356725D01*
X554639Y358500D01*
Y361500D01*
X554286Y363275D01*
X553280Y364780D01*
X551775Y365786D01*
X550000Y366139D01*
D02*
G37*
G36*
X450850Y357006D02*
Y352806D01*
X455050D01*
X454277Y354674D01*
X452718Y356233D01*
X450850Y357006D01*
D02*
G37*
G36*
X448310D02*
X446442Y356233D01*
X444883Y354674D01*
X444110Y352806D01*
X448310D01*
Y357006D01*
D02*
G37*
G36*
X427364Y355346D02*
X423164D01*
Y351146D01*
X425032Y351919D01*
X426591Y353478D01*
X427364Y355346D01*
D02*
G37*
G36*
X420624D02*
X416424D01*
X417197Y353478D01*
X418756Y351919D01*
X420624Y351146D01*
Y355346D01*
D02*
G37*
G36*
X572409Y358730D02*
X565570D01*
Y349558D01*
X566399Y349667D01*
X568355Y350477D01*
X570034Y351766D01*
X571323Y353445D01*
X572133Y355401D01*
X572409Y357500D01*
Y358730D01*
D02*
G37*
G36*
X543809D02*
X536970D01*
Y349558D01*
X537799Y349667D01*
X539755Y350477D01*
X541434Y351766D01*
X542723Y353445D01*
X543533Y355401D01*
X543809Y357500D01*
Y358730D01*
D02*
G37*
G36*
X563030D02*
X556191D01*
Y357500D01*
X556467Y355401D01*
X557277Y353445D01*
X558566Y351766D01*
X560245Y350477D01*
X562201Y349667D01*
X563030Y349558D01*
Y358730D01*
D02*
G37*
G36*
X534430D02*
X527591D01*
Y357500D01*
X527867Y355401D01*
X528677Y353445D01*
X529966Y351766D01*
X531645Y350477D01*
X533601Y349667D01*
X534430Y349558D01*
Y358730D01*
D02*
G37*
G36*
X556768Y346592D02*
Y342392D01*
X560968D01*
X560195Y344260D01*
X558636Y345819D01*
X556768Y346592D01*
D02*
G37*
G36*
X554228D02*
X552360Y345819D01*
X550801Y344260D01*
X550028Y342392D01*
X554228D01*
Y346592D01*
D02*
G37*
G36*
X422910Y346084D02*
Y341884D01*
X427110D01*
X426337Y343752D01*
X424778Y345311D01*
X422910Y346084D01*
D02*
G37*
G36*
X420370D02*
X418502Y345311D01*
X416943Y343752D01*
X416170Y341884D01*
X420370D01*
Y346084D01*
D02*
G37*
G36*
X455050Y350266D02*
X444110D01*
X444883Y348398D01*
X446442Y346839D01*
X448316Y346063D01*
X448401Y345313D01*
X448316Y344563D01*
X446442Y343787D01*
X444883Y342228D01*
X444110Y340360D01*
X455050D01*
X454277Y342228D01*
X452718Y343787D01*
X450844Y344563D01*
X450759Y345313D01*
X450844Y346063D01*
X452718Y346839D01*
X454277Y348398D01*
X455050Y350266D01*
D02*
G37*
G36*
X560968Y339852D02*
X556768D01*
Y335652D01*
X558636Y336425D01*
X560195Y337984D01*
X560968Y339852D01*
D02*
G37*
G36*
X554228D02*
X550028D01*
X550801Y337984D01*
X552360Y336425D01*
X554228Y335652D01*
Y339852D01*
D02*
G37*
G36*
X427110Y339344D02*
X422910D01*
Y335144D01*
X424778Y335917D01*
X426337Y337476D01*
X427110Y339344D01*
D02*
G37*
G36*
X420370D02*
X416170D01*
X416943Y337476D01*
X418502Y335917D01*
X420370Y335144D01*
Y339344D01*
D02*
G37*
G36*
X455050Y337820D02*
X450850D01*
Y333620D01*
X452718Y334393D01*
X454277Y335952D01*
X455050Y337820D01*
D02*
G37*
G36*
X448310D02*
X444110D01*
X444883Y335952D01*
X446442Y334393D01*
X448310Y333620D01*
Y337820D01*
D02*
G37*
G36*
X449072Y320176D02*
Y315976D01*
X453272D01*
X452499Y317844D01*
X450940Y319403D01*
X449072Y320176D01*
D02*
G37*
G36*
X446532D02*
X444664Y319403D01*
X443105Y317844D01*
X442332Y315976D01*
X446532D01*
Y320176D01*
D02*
G37*
G36*
X383046Y391250D02*
X381454D01*
X379984Y390641D01*
X378859Y389516D01*
X378250Y388046D01*
Y386454D01*
X378859Y384984D01*
X379935Y383908D01*
Y322520D01*
X380112Y321634D01*
X380613Y320884D01*
X381318Y320179D01*
X381064Y319566D01*
Y317974D01*
X381673Y316504D01*
X382798Y315379D01*
X384268Y314770D01*
X385860D01*
X387330Y315379D01*
X388455Y316504D01*
X389064Y317974D01*
Y319566D01*
X388455Y321036D01*
X387330Y322161D01*
X385860Y322770D01*
X385273D01*
X384565Y323479D01*
Y383908D01*
X385641Y384984D01*
X386250Y386454D01*
Y388046D01*
X385641Y389516D01*
X384516Y390641D01*
X383046Y391250D01*
D02*
G37*
G36*
X595766Y318770D02*
X591566D01*
Y314570D01*
X593434Y315343D01*
X594993Y316902D01*
X595766Y318770D01*
D02*
G37*
G36*
X589026D02*
X584826D01*
X585599Y316902D01*
X587158Y315343D01*
X589026Y314570D01*
Y318770D01*
D02*
G37*
G36*
X558356Y316655D02*
Y312455D01*
X562557D01*
X561783Y314323D01*
X560224Y315882D01*
X558356Y316655D01*
D02*
G37*
G36*
X555816D02*
X553948Y315882D01*
X552390Y314323D01*
X551616Y312455D01*
X555816D01*
Y316655D01*
D02*
G37*
G36*
X453272Y313436D02*
X449072D01*
Y309236D01*
X450940Y310009D01*
X452499Y311568D01*
X453272Y313436D01*
D02*
G37*
G36*
X446532D02*
X442332D01*
X443105Y311568D01*
X444664Y310009D01*
X446532Y309236D01*
Y313436D01*
D02*
G37*
G36*
X562557Y309915D02*
X558356D01*
Y305714D01*
X560224Y306488D01*
X561783Y308047D01*
X562557Y309915D01*
D02*
G37*
G36*
X555816D02*
X551616D01*
X552390Y308047D01*
X553948Y306488D01*
X555816Y305714D01*
Y309915D01*
D02*
G37*
G36*
X423645Y291200D02*
X421355D01*
X419142Y290607D01*
X417158Y289462D01*
X415538Y287842D01*
X414393Y285858D01*
X413800Y283645D01*
Y281355D01*
X414393Y279142D01*
X415538Y277158D01*
X417158Y275538D01*
X419142Y274393D01*
X421355Y273800D01*
X423645D01*
X425858Y274393D01*
X427842Y275538D01*
X429462Y277158D01*
X430607Y279142D01*
X431200Y281355D01*
Y283645D01*
X430607Y285858D01*
X429462Y287842D01*
X427842Y289462D01*
X425858Y290607D01*
X423645Y291200D01*
D02*
G37*
G36*
X378645D02*
X376355D01*
X374142Y290607D01*
X372158Y289462D01*
X370538Y287842D01*
X369393Y285858D01*
X368800Y283645D01*
Y281355D01*
X369393Y279142D01*
X370538Y277158D01*
X372158Y275538D01*
X374142Y274393D01*
X376355Y273800D01*
X378645D01*
X380858Y274393D01*
X382842Y275538D01*
X384462Y277158D01*
X385607Y279142D01*
X386200Y281355D01*
Y283645D01*
X385607Y285858D01*
X384462Y287842D01*
X382842Y289462D01*
X380858Y290607D01*
X378645Y291200D01*
D02*
G37*
G36*
X490061Y274400D02*
X484939D01*
X479916Y273401D01*
X475184Y271441D01*
X470926Y268596D01*
X467304Y264974D01*
X464459Y260716D01*
X462499Y255984D01*
X461500Y250961D01*
Y245839D01*
X462499Y240816D01*
X464459Y236084D01*
X467304Y231826D01*
X470926Y228204D01*
X475184Y225359D01*
X479916Y223399D01*
X484939Y222400D01*
X490061D01*
X495084Y223399D01*
X499816Y225359D01*
X504074Y228204D01*
X507696Y231826D01*
X510541Y236084D01*
X512501Y240816D01*
X513500Y245839D01*
Y250961D01*
X512501Y255984D01*
X510541Y260716D01*
X507696Y264974D01*
X504074Y268596D01*
X499816Y271441D01*
X495084Y273401D01*
X490061Y274400D01*
D02*
G37*
G36*
X431200Y226200D02*
X413800D01*
Y208800D01*
X431200D01*
Y226200D01*
D02*
G37*
G36*
X378645D02*
X376355D01*
X374142Y225607D01*
X372158Y224462D01*
X370538Y222842D01*
X369393Y220858D01*
X368800Y218645D01*
Y216355D01*
X369393Y214142D01*
X370538Y212158D01*
X372158Y210538D01*
X374142Y209393D01*
X376355Y208800D01*
X378645D01*
X380858Y209393D01*
X382842Y210538D01*
X384462Y212158D01*
X385607Y214142D01*
X386200Y216355D01*
Y218645D01*
X385607Y220858D01*
X384462Y222842D01*
X382842Y224462D01*
X380858Y225607D01*
X378645Y226200D01*
D02*
G37*
%LPD*%
G36*
X606290Y413070D02*
Y401108D01*
X605205Y399794D01*
X597230D01*
X596352Y399619D01*
X595607Y399122D01*
X595110Y398378D01*
X594936Y397500D01*
Y392438D01*
X589524D01*
Y417420D01*
X589349Y418298D01*
X588852Y419042D01*
X588108Y419539D01*
X587230Y419714D01*
X577230D01*
X576352Y419539D01*
X575607Y419042D01*
X575110Y418298D01*
X574936Y417420D01*
Y399794D01*
X571600D01*
Y403500D01*
X571600Y405000D01*
X571600D01*
Y405000D01*
X571600D01*
Y415000D01*
X568315D01*
Y416739D01*
X568642Y417529D01*
Y419120D01*
X568368Y419781D01*
X569303Y421281D01*
X598079D01*
X606290Y413070D01*
D02*
G37*
G36*
X584936Y390143D02*
X585110Y389266D01*
X585607Y388521D01*
X586352Y388024D01*
X587230Y387849D01*
X597230D01*
X598108Y388024D01*
X598852Y388521D01*
X599349Y389266D01*
X599524Y390143D01*
Y395206D01*
X604255D01*
X606290Y393171D01*
Y382052D01*
X606023Y381874D01*
X604166Y382437D01*
X603883Y383122D01*
X602324Y384681D01*
X600456Y385454D01*
Y379984D01*
X597916D01*
Y385454D01*
X596048Y384681D01*
X594489Y383122D01*
X593646Y381086D01*
Y380208D01*
X593025Y378848D01*
X592260Y378806D01*
X569303D01*
X568368Y380306D01*
X568642Y380966D01*
Y382558D01*
X568315Y383348D01*
Y385000D01*
X571600D01*
Y385000D01*
X573088Y384971D01*
Y384522D01*
X573697Y383052D01*
X574822Y381927D01*
X576292Y381318D01*
X577884D01*
X579354Y381927D01*
X580479Y383052D01*
X581088Y384522D01*
Y386114D01*
X580479Y387584D01*
X579354Y388709D01*
X578011Y389265D01*
Y390295D01*
X577876Y390978D01*
X577489Y391557D01*
X575340Y393706D01*
X575352Y393945D01*
X575822Y395206D01*
X577230D01*
X578108Y395381D01*
X578852Y395878D01*
X579349Y396622D01*
X579524Y397500D01*
Y415126D01*
X584936D01*
Y390143D01*
D02*
G37*
G36*
X596370Y367540D02*
X596574Y367300D01*
Y363487D01*
X596370Y363247D01*
X595304Y362601D01*
X594868Y362688D01*
X581595D01*
Y368100D01*
X594868D01*
X595304Y368186D01*
X596370Y367540D01*
D02*
G37*
G36*
Y347540D02*
X596574Y347300D01*
Y343487D01*
X596370Y343247D01*
X595304Y342601D01*
X594868Y342688D01*
X581595D01*
Y348100D01*
X594868D01*
X595304Y348186D01*
X596370Y347540D01*
D02*
G37*
G36*
X371000Y447000D02*
X367000D01*
Y453000D01*
X371000D01*
Y447000D01*
D02*
G37*
D10*
X594868Y370393D02*
Y373194D01*
X579301Y370393D02*
X594868D01*
X579301Y360393D02*
Y370393D01*
Y360393D02*
X594868D01*
Y350393D02*
Y360393D01*
X579301Y350393D02*
X594868D01*
X579301Y340393D02*
Y350393D01*
Y340393D02*
X594868D01*
Y339143D02*
Y340393D01*
Y339090D02*
Y339143D01*
X583462Y327684D02*
X594868Y339090D01*
Y373194D02*
Y374650D01*
X597230Y397500D02*
X604815D01*
X597230Y390143D02*
Y397500D01*
X587230Y390143D02*
X597230D01*
X587230D02*
Y417420D01*
X577230D02*
X587230D01*
X577230Y397500D02*
Y417420D01*
X575979Y397500D02*
X577230D01*
X604815D02*
X605205D01*
X608584Y394121D01*
X564850Y397500D02*
X575979D01*
X593006Y376512D02*
X594868Y374650D01*
X598868Y337433D02*
Y370014D01*
X547500Y397500D02*
X550000Y400000D01*
Y383009D02*
Y400000D01*
X552500Y402500D01*
X550000Y383009D02*
X556497Y376512D01*
X552500Y402500D02*
X564850D01*
X535150Y397500D02*
X547500D01*
X567367Y322184D02*
X568867Y323684D01*
X585119D01*
X566420Y322184D02*
X567367D01*
X585119Y323684D02*
X598868Y337433D01*
Y370014D02*
X608584Y379730D01*
X568867Y327684D02*
X583462D01*
X567367Y329184D02*
X568867Y327684D01*
X566420Y329184D02*
X567367D01*
X556497Y376512D02*
X593006D01*
X608584Y379730D02*
Y394121D01*
Y414020D01*
X599029Y423575D02*
X608584Y414020D01*
X550575Y423575D02*
X599029D01*
X549148Y422148D02*
X550575Y423575D01*
X549148Y407924D02*
Y422148D01*
X543724Y402500D02*
X549148Y407924D01*
X535150Y402500D02*
X543724D01*
D13*
X576227Y386179D02*
X577088Y385318D01*
X574022Y392500D02*
X576227Y390295D01*
Y386179D02*
Y390295D01*
X564850Y392500D02*
X574022D01*
X588264Y435610D02*
Y450022D01*
X512500Y442750D02*
X512671Y442579D01*
Y410547D02*
Y442579D01*
Y410547D02*
X515718Y407500D01*
X535150D01*
X512500Y452750D02*
X524750Y465000D01*
X512500Y442750D02*
Y452750D01*
X524750Y465000D02*
X538250D01*
D23*
X362739Y410000D02*
D03*
X377261D02*
D03*
D46*
X377500Y282500D02*
D03*
Y217500D02*
D03*
X422500Y282500D02*
D03*
D47*
Y217500D02*
D03*
D48*
X350000Y587500D02*
D03*
X326980Y576766D02*
D03*
D49*
X303960Y566031D02*
D03*
D51*
X550000Y440000D02*
D03*
D52*
Y360000D02*
D03*
D53*
X535700Y440000D02*
D03*
Y360000D02*
D03*
X564300Y440000D02*
D03*
Y360000D02*
D03*
D56*
X564642Y381762D02*
X564746Y381866D01*
Y387396D01*
Y412604D02*
Y418221D01*
X564642Y418325D02*
X564746Y418221D01*
Y387396D02*
X564850Y387500D01*
X521500Y387250D02*
X521625Y387375D01*
X535025D01*
X535150Y387500D01*
X521500Y414750D02*
X521771D01*
X524021Y412500D01*
X535150D01*
X564746Y412604D02*
X564850Y412500D01*
X326980Y576766D02*
X350745Y553000D01*
X415500D01*
X448750Y519750D01*
X362614Y410125D02*
X362739Y410000D01*
X349375Y410125D02*
X362614D01*
X349250Y410250D02*
X349375Y410125D01*
D57*
X382250Y322520D02*
Y387250D01*
Y322520D02*
X385064Y319706D01*
Y318770D02*
Y319706D01*
D58*
X369459Y463250D02*
X370000D01*
X365709Y459500D02*
X369459Y463250D01*
X365250Y459500D02*
X365709D01*
X365000Y459250D02*
X365250Y459500D01*
X365000Y450000D02*
Y459250D01*
X361924Y450500D02*
X362000Y450424D01*
X354791Y450500D02*
X361924D01*
X350541Y446250D02*
X354791Y450500D01*
X350000Y446250D02*
X350541D01*
D59*
X487500Y248400D02*
D03*
Y551600D02*
D03*
X225000Y400000D02*
D03*
D60*
X577088Y385318D02*
D03*
X599186Y379984D02*
D03*
X588264Y435610D02*
D03*
X442722Y378714D02*
D03*
X449580Y365760D02*
D03*
Y351536D02*
D03*
Y339090D02*
D03*
X419100Y368808D02*
D03*
X421894Y356616D02*
D03*
X421640Y340614D02*
D03*
X447802Y314706D02*
D03*
X590296Y320040D02*
D03*
X557086Y311185D02*
D03*
X555498Y341122D02*
D03*
X566420Y329184D02*
D03*
Y322184D02*
D03*
X385064Y318770D02*
D03*
X564642Y381762D02*
D03*
Y418325D02*
D03*
X382250Y387250D02*
D03*
X448750Y519750D02*
D03*
X370000Y463250D02*
D03*
X350000Y446250D02*
D03*
X521500Y387250D02*
D03*
Y414750D02*
D03*
X349250Y410250D02*
D03*
D61*
X365000Y450000D02*
D03*
X373000D02*
D03*
D62*
X561750Y465000D02*
D03*
X538250D02*
D03*
D63*
X588264Y473522D02*
D03*
Y450022D02*
D03*
D64*
X535150Y427500D02*
D03*
Y372500D02*
D03*
Y412500D02*
D03*
Y407500D02*
D03*
Y402500D02*
D03*
Y397500D02*
D03*
Y392500D02*
D03*
Y387500D02*
D03*
X564850Y372500D02*
D03*
Y427500D02*
D03*
Y387500D02*
D03*
Y392500D02*
D03*
Y397500D02*
D03*
Y402500D02*
D03*
Y407500D02*
D03*
Y412500D02*
D03*
M02*
