G04*
G04 #@! TF.GenerationSoftware,Altium Limited,Altium Designer,26.2.0 (7)*
G04*
G04 Layer_Color=8388736*
%FSLAX44Y44*%
%MOMM*%
G71*
G04*
G04 #@! TF.SameCoordinates,15E15C52-158D-41AF-8397-A1E68C447FA2*
G04*
G04*
G04 #@! TF.FilePolarity,Negative*
G04*
G01*
G75*
%ADD14R,1.2621X1.0061*%
G04:AMPARAMS|DCode=22|XSize=1.55mm|YSize=0.6mm|CornerRadius=0.051mm|HoleSize=0mm|Usage=FLASHONLY|Rotation=0.000|XOffset=0mm|YOffset=0mm|HoleType=Round|Shape=RoundedRectangle|*
%AMROUNDEDRECTD22*
21,1,1.5500,0.4980,0,0,0.0*
21,1,1.4480,0.6000,0,0,0.0*
1,1,0.1020,0.7240,-0.2490*
1,1,0.1020,-0.7240,-0.2490*
1,1,0.1020,-0.7240,0.2490*
1,1,0.1020,0.7240,0.2490*
%
%ADD22ROUNDEDRECTD22*%
%ADD23R,2.0032X2.4532*%
%ADD24R,1.7532X1.5532*%
%ADD25R,1.2032X1.6532*%
%ADD26R,1.3532X1.6532*%
%ADD27R,1.5532X1.7532*%
%ADD28R,1.5532X1.2032*%
%ADD29R,2.0032X1.4532*%
%ADD30C,5.2032*%
%ADD31C,1.5700*%
%ADD32R,1.5700X1.5700*%
%ADD33C,1.5200*%
%ADD34R,1.5200X1.5200*%
%ADD35C,1.4732*%
D14*
X461000Y410261D02*
D03*
Y395739D02*
D03*
D22*
X435540Y411194D02*
D03*
Y398494D02*
D03*
Y385794D02*
D03*
Y373094D02*
D03*
X381540D02*
D03*
Y385794D02*
D03*
Y398494D02*
D03*
Y411194D02*
D03*
D23*
X422500Y309000D02*
D03*
X393500D02*
D03*
X298500Y413000D02*
D03*
X327500D02*
D03*
D24*
X350000Y337250D02*
D03*
Y356750D02*
D03*
D25*
X362500Y307000D02*
D03*
X343500D02*
D03*
D26*
X331750Y382000D02*
D03*
X314250D02*
D03*
D27*
X309250Y448000D02*
D03*
X328750D02*
D03*
X356250D02*
D03*
X375750D02*
D03*
D28*
X388000Y487500D02*
D03*
Y472500D02*
D03*
D29*
X359000Y485000D02*
D03*
X333000D02*
D03*
D30*
X400000Y240000D02*
D03*
Y560000D02*
D03*
D31*
X362700Y520000D02*
D03*
D32*
X337300D02*
D03*
D33*
X520000Y370800D02*
D03*
Y345400D02*
D03*
D34*
Y320000D02*
D03*
D35*
X408000Y376000D02*
D03*
X314000Y364000D02*
D03*
X364000Y390000D02*
D03*
M02*
