G04*
G04 #@! TF.GenerationSoftware,Altium Limited,Altium Designer,26.3.0 (6)*
G04*
G04 Layer_Color=65535*
%FSLAX44Y44*%
%MOMM*%
G71*
G04*
G04 #@! TF.SameCoordinates,934A8800-F4A2-4094-9A0A-76B35AF3C916*
G04*
G04*
G04 #@! TF.FilePolarity,Positive*
G04*
G01*
G75*
%ADD10C,0.2500*%
%ADD11C,0.5000*%
%ADD12C,0.2000*%
%ADD13C,0.1500*%
D10*
X354844Y396200D02*
G03*
X354844Y396200I-1250J0D01*
G01*
X497250Y317400D02*
G03*
X497250Y317400I-1250J0D01*
G01*
X330399Y518306D02*
G03*
X330399Y518306I-1250J0D01*
G01*
D11*
X389344Y394400D02*
G03*
X389344Y394400I-2500J0D01*
G01*
D12*
X460500Y356250D02*
Y366750D01*
X442540Y301139D02*
Y325721D01*
X421040Y301139D02*
Y325721D01*
X331500Y388250D02*
X342000D01*
X347554Y340662D02*
Y365245D01*
X326054Y340662D02*
Y365245D01*
X379094Y402150D02*
X409094D01*
Y352150D02*
Y402150D01*
X379094Y352150D02*
X409094D01*
X379094D02*
Y402150D01*
X418500Y481750D02*
Y516750D01*
X390500Y475750D02*
Y516750D01*
X482900Y324050D02*
Y402750D01*
X509100D01*
Y324050D02*
Y402750D01*
X482900Y324050D02*
X509100D01*
X404250Y455500D02*
Y466000D01*
X477360Y388821D02*
Y413404D01*
X455860Y388821D02*
Y413404D01*
X344750Y295750D02*
X379750D01*
X344750Y267750D02*
X385750D01*
X374000Y318750D02*
X384500D01*
X266250Y417500D02*
X301250D01*
X266250Y389500D02*
X307250D01*
X331250Y472500D02*
Y504500D01*
X347250Y472500D02*
Y510500D01*
X341849Y523206D02*
Y549906D01*
X314549Y523206D02*
Y549906D01*
Y523206D02*
X369149D01*
Y549906D01*
X314549D02*
X369149D01*
D13*
X518000Y350500D02*
X523332D01*
X525997Y347834D01*
X523332Y345168D01*
X518000D01*
X521999D01*
Y350500D01*
X524664Y337171D02*
X525997Y338504D01*
Y341170D01*
X524664Y342503D01*
X519333D01*
X518000Y341170D01*
Y338504D01*
X519333Y337171D01*
X521999D01*
Y339837D01*
X518000Y334505D02*
X525997D01*
X518000Y329174D01*
X525997D01*
Y326508D02*
X518000D01*
Y322509D01*
X519333Y321176D01*
X524664D01*
X525997Y322509D01*
Y326508D01*
X517250Y375500D02*
X525247D01*
X522582Y372834D01*
X525247Y370168D01*
X517250D01*
X525247Y367503D02*
Y364837D01*
Y366170D01*
X517250D01*
Y367503D01*
Y364837D01*
X523914Y355507D02*
X525247Y356839D01*
Y359505D01*
X523914Y360838D01*
X518583D01*
X517250Y359505D01*
Y356839D01*
X518583Y355507D01*
X524497Y402500D02*
X519166D01*
X516500Y399834D01*
X519166Y397168D01*
X524497D01*
Y394503D02*
X516500D01*
Y390504D01*
X517833Y389171D01*
X523164D01*
X524497Y390504D01*
Y394503D01*
Y386505D02*
X516500D01*
Y382506D01*
X517833Y381174D01*
X523164D01*
X524497Y382506D01*
Y386505D01*
X351750Y556250D02*
X357082D01*
X326000Y556166D02*
X331332D01*
X328666Y558832D02*
Y553500D01*
X453086Y373751D02*
Y381749D01*
X457084D01*
X458417Y380416D01*
Y377750D01*
X457084Y376417D01*
X453086D01*
X455751D02*
X458417Y373751D01*
X466414Y381749D02*
X461083D01*
Y377750D01*
X463749Y379083D01*
X465082D01*
X466414Y377750D01*
Y375084D01*
X465082Y373751D01*
X462416D01*
X461083Y375084D01*
X316126Y394413D02*
X324123D01*
Y390414D01*
X322790Y389081D01*
X320125D01*
X318792Y390414D01*
Y394413D01*
Y391747D02*
X316126Y389081D01*
Y382416D02*
X324123D01*
X320125Y386415D01*
Y381083D01*
X338833Y329713D02*
X340166Y328380D01*
X342832D01*
X344165Y329713D01*
Y335045D01*
X342832Y336378D01*
X340166D01*
X338833Y335045D01*
X332168Y336378D02*
Y328380D01*
X336167Y332379D01*
X330835D01*
X429417Y293916D02*
X428084Y295249D01*
X425418D01*
X424086Y293916D01*
Y288584D01*
X425418Y287251D01*
X428084D01*
X429417Y288584D01*
X432083Y293916D02*
X433416Y295249D01*
X436082D01*
X437415Y293916D01*
Y292583D01*
X436082Y291250D01*
X437415Y289917D01*
Y288584D01*
X436082Y287251D01*
X433416D01*
X432083Y288584D01*
Y289917D01*
X433416Y291250D01*
X432083Y292583D01*
Y293916D01*
X433416Y291250D02*
X436082D01*
X439667Y425278D02*
X438334Y426611D01*
X435668D01*
X434336Y425278D01*
Y419947D01*
X435668Y418614D01*
X438334D01*
X439667Y419947D01*
X442333Y425278D02*
X443666Y426611D01*
X446332D01*
X447664Y425278D01*
Y423946D01*
X446332Y422613D01*
X444999D01*
X446332D01*
X447664Y421280D01*
Y419947D01*
X446332Y418614D01*
X443666D01*
X442333Y419947D01*
X431166Y496000D02*
X432499Y497333D01*
Y499999D01*
X431166Y501332D01*
X425834D01*
X424501Y499999D01*
Y497333D01*
X425834Y496000D01*
X424501Y493334D02*
Y490668D01*
Y492001D01*
X432499D01*
X431166Y493334D01*
X388918Y346734D02*
Y340069D01*
X390251Y338736D01*
X392917D01*
X394250Y340069D01*
Y346734D01*
X396916Y338736D02*
X399582D01*
X398249D01*
Y346734D01*
X396916Y345401D01*
X397836Y282501D02*
Y290499D01*
X401834D01*
X403167Y289166D01*
Y286500D01*
X401834Y285167D01*
X397836D01*
X400501D02*
X403167Y282501D01*
X405833Y289166D02*
X407166Y290499D01*
X409832D01*
X411165Y289166D01*
Y287833D01*
X409832Y286500D01*
X411165Y285167D01*
Y283834D01*
X409832Y282501D01*
X407166D01*
X405833Y283834D01*
Y285167D01*
X407166Y286500D01*
X405833Y287833D01*
Y289166D01*
X407166Y286500D02*
X409832D01*
X365749Y314086D02*
X357751D01*
Y318084D01*
X359084Y319417D01*
X361750D01*
X363083Y318084D01*
Y314086D01*
Y316751D02*
X365749Y319417D01*
X357751Y322083D02*
Y327415D01*
X359084D01*
X364416Y322083D01*
X365749D01*
X304335Y453751D02*
Y461749D01*
X308334D01*
X309667Y460416D01*
Y457750D01*
X308334Y456417D01*
X304335D01*
X307001D02*
X309667Y453751D01*
X317665Y461749D02*
X314999Y460416D01*
X312333Y457750D01*
Y455084D01*
X313666Y453751D01*
X316332D01*
X317665Y455084D01*
Y456417D01*
X316332Y457750D01*
X312333D01*
X424001Y466332D02*
X431999D01*
Y462333D01*
X430666Y461000D01*
X428000D01*
X426667Y462333D01*
Y466332D01*
Y463666D02*
X424001Y461000D01*
Y458334D02*
Y455668D01*
Y457001D01*
X431999D01*
X430666Y458334D01*
X347085Y455251D02*
Y463249D01*
X351084D01*
X352417Y461916D01*
Y459250D01*
X351084Y457917D01*
X347085D01*
X349751D02*
X352417Y455251D01*
X355083Y461916D02*
X356416Y463249D01*
X359082D01*
X360415Y461916D01*
Y460583D01*
X359082Y459250D01*
X357749D01*
X359082D01*
X360415Y457917D01*
Y456584D01*
X359082Y455251D01*
X356416D01*
X355083Y456584D01*
X367336Y503751D02*
Y511749D01*
X371334D01*
X372667Y510416D01*
Y507750D01*
X371334Y506417D01*
X367336D01*
X370001D02*
X372667Y503751D01*
X380664D02*
X375333D01*
X380664Y509083D01*
Y510416D01*
X379332Y511749D01*
X376666D01*
X375333Y510416D01*
X301751Y533667D02*
Y531001D01*
Y532334D01*
X308416D01*
X309749Y531001D01*
Y529668D01*
X308416Y528335D01*
X309749Y541665D02*
Y536333D01*
X304417Y541665D01*
X303084D01*
X301751Y540332D01*
Y537666D01*
X303084Y536333D01*
X496000Y415499D02*
X493334D01*
X494667D01*
Y408834D01*
X493334Y407501D01*
X492001D01*
X490668Y408834D01*
X498666Y407501D02*
X501332D01*
X499999D01*
Y415499D01*
X498666Y414166D01*
X326584Y279417D02*
X325251Y278084D01*
Y275418D01*
X326584Y274086D01*
X331916D01*
X333249Y275418D01*
Y278084D01*
X331916Y279417D01*
X325251Y282083D02*
Y287414D01*
X326584D01*
X331916Y282083D01*
X333249D01*
X282723Y430476D02*
X281390Y431809D01*
X278724D01*
X277391Y430476D01*
Y425145D01*
X278724Y423812D01*
X281390D01*
X282723Y425145D01*
X290721Y431809D02*
X288055Y430476D01*
X285389Y427811D01*
Y425145D01*
X286722Y423812D01*
X289388D01*
X290721Y425145D01*
Y426478D01*
X289388Y427811D01*
X285389D01*
X318334Y486417D02*
X317001Y485084D01*
Y482418D01*
X318334Y481086D01*
X323666D01*
X324999Y482418D01*
Y485084D01*
X323666Y486417D01*
X317001Y494414D02*
Y489083D01*
X321000D01*
X319667Y491749D01*
Y493082D01*
X321000Y494414D01*
X323666D01*
X324999Y493082D01*
Y490416D01*
X323666Y489083D01*
X464527Y425028D02*
X463194Y426361D01*
X460528D01*
X459196Y425028D01*
Y419697D01*
X460528Y418364D01*
X463194D01*
X464527Y419697D01*
X472524Y418364D02*
X467193D01*
X472524Y423695D01*
Y425028D01*
X471192Y426361D01*
X468526D01*
X467193Y425028D01*
M02*
