G04*
G04 #@! TF.GenerationSoftware,Altium Limited,Altium Designer,26.3.0 (6)*
G04*
G04 Layer_Physical_Order=2*
G04 Layer_Color=16711680*
%FSLAX44Y44*%
%MOMM*%
G71*
G04*
G04 #@! TF.SameCoordinates,934A8800-F4A2-4094-9A0A-76B35AF3C916*
G04*
G04*
G04 #@! TF.FilePolarity,Positive*
G04*
G01*
G75*
%ADD34R,1.5200X1.5200*%
%ADD35C,1.5200*%
%ADD37C,1.5700*%
%ADD38R,1.5700X1.5700*%
%ADD40C,5.0000*%
%ADD41C,1.2700*%
G36*
X670000Y170000D02*
X150000D01*
Y620000D01*
X670000D01*
Y170000D01*
D02*
G37*
%LPC*%
G36*
X355917Y546946D02*
X355819D01*
Y537826D01*
X364939D01*
Y537924D01*
X364231Y540566D01*
X362863Y542936D01*
X360928Y544870D01*
X358559Y546238D01*
X355917Y546946D01*
D02*
G37*
G36*
X353279D02*
X353181D01*
X350538Y546238D01*
X348169Y544870D01*
X346235Y542936D01*
X344867Y540566D01*
X344159Y537924D01*
Y537826D01*
X353279D01*
Y546946D01*
D02*
G37*
G36*
X402561Y586000D02*
X397439D01*
X392416Y585001D01*
X387684Y583041D01*
X383426Y580196D01*
X379804Y576574D01*
X376959Y572316D01*
X374999Y567584D01*
X374000Y562561D01*
Y557439D01*
X374999Y552416D01*
X376959Y547684D01*
X379804Y543426D01*
X383426Y539804D01*
X387684Y536959D01*
X392416Y534999D01*
X397439Y534000D01*
X402561D01*
X407584Y534999D01*
X412316Y536959D01*
X416574Y539804D01*
X420196Y543426D01*
X423041Y547684D01*
X425001Y552416D01*
X426000Y557439D01*
Y562561D01*
X425001Y567584D01*
X423041Y572316D01*
X420196Y576574D01*
X416574Y580196D01*
X412316Y583041D01*
X407584Y585001D01*
X402561Y586000D01*
D02*
G37*
G36*
X337999Y545406D02*
X320299D01*
Y527706D01*
X337999D01*
Y545406D01*
D02*
G37*
G36*
X364939Y535286D02*
X355819D01*
Y526166D01*
X355917D01*
X358559Y526874D01*
X360928Y528242D01*
X362863Y530176D01*
X364231Y532546D01*
X364939Y535188D01*
Y535286D01*
D02*
G37*
G36*
X353279D02*
X344159D01*
Y535188D01*
X344867Y532546D01*
X346235Y530176D01*
X348169Y528242D01*
X350538Y526874D01*
X353181Y526166D01*
X353279D01*
Y535286D01*
D02*
G37*
G36*
X396270Y431363D02*
Y423770D01*
X403863D01*
X403284Y425931D01*
X402114Y427959D01*
X400459Y429614D01*
X398431Y430784D01*
X396270Y431363D01*
D02*
G37*
G36*
X393730D02*
X391569Y430784D01*
X389541Y429614D01*
X387886Y427959D01*
X386716Y425931D01*
X386137Y423770D01*
X393730D01*
Y431363D01*
D02*
G37*
G36*
X403863Y421230D02*
X396270D01*
Y413637D01*
X398431Y414216D01*
X400459Y415386D01*
X402114Y417041D01*
X403284Y419069D01*
X403863Y421230D01*
D02*
G37*
G36*
X393730D02*
X386137D01*
X386716Y419069D01*
X387886Y417041D01*
X389541Y415386D01*
X391569Y414216D01*
X393730Y413637D01*
Y421230D01*
D02*
G37*
G36*
X497132Y397400D02*
X494868D01*
X492681Y396814D01*
X490719Y395682D01*
X489118Y394081D01*
X487986Y392119D01*
X487400Y389932D01*
Y387668D01*
X487986Y385480D01*
X489118Y383520D01*
X490719Y381918D01*
X492681Y380786D01*
X494868Y380200D01*
X497132D01*
X499319Y380786D01*
X501281Y381918D01*
X502882Y383520D01*
X504014Y385480D01*
X504600Y387668D01*
Y389932D01*
X504014Y392119D01*
X502882Y394081D01*
X501281Y395682D01*
X499319Y396814D01*
X497132Y397400D01*
D02*
G37*
G36*
Y372000D02*
X494868D01*
X492681Y371414D01*
X490719Y370282D01*
X489118Y368680D01*
X487986Y366720D01*
X487400Y364532D01*
Y362268D01*
X487986Y360080D01*
X489118Y358120D01*
X490719Y356518D01*
X492681Y355386D01*
X494868Y354800D01*
X497132D01*
X499319Y355386D01*
X501281Y356518D01*
X502882Y358120D01*
X504014Y360080D01*
X504600Y362268D01*
Y364532D01*
X504014Y366720D01*
X502882Y368680D01*
X501281Y370282D01*
X499319Y371414D01*
X497132Y372000D01*
D02*
G37*
G36*
X360770Y347613D02*
Y340020D01*
X368363D01*
X367784Y342181D01*
X366614Y344209D01*
X364959Y345864D01*
X362931Y347034D01*
X360770Y347613D01*
D02*
G37*
G36*
X358230D02*
X356069Y347034D01*
X354041Y345864D01*
X352386Y344209D01*
X351216Y342181D01*
X350637Y340020D01*
X358230D01*
Y347613D01*
D02*
G37*
G36*
X506140Y348140D02*
X497270D01*
Y339270D01*
X506140D01*
Y348140D01*
D02*
G37*
G36*
X494730D02*
X485860D01*
Y339270D01*
X494730D01*
Y348140D01*
D02*
G37*
G36*
X368363Y337480D02*
X360770D01*
Y329887D01*
X362931Y330466D01*
X364959Y331636D01*
X366614Y333291D01*
X367784Y335319D01*
X368363Y337480D01*
D02*
G37*
G36*
X358230D02*
X350637D01*
X351216Y335319D01*
X352386Y333291D01*
X354041Y331636D01*
X356069Y330466D01*
X358230Y329887D01*
Y337480D01*
D02*
G37*
G36*
X506140Y336730D02*
X497270D01*
Y327860D01*
X506140D01*
Y336730D01*
D02*
G37*
G36*
X494730D02*
X485860D01*
Y327860D01*
X494730D01*
Y336730D01*
D02*
G37*
G36*
X402561Y266000D02*
X397439D01*
X392416Y265001D01*
X387684Y263041D01*
X383426Y260196D01*
X379804Y256574D01*
X376959Y252316D01*
X374999Y247584D01*
X374000Y242561D01*
Y237439D01*
X374999Y232416D01*
X376959Y227684D01*
X379804Y223426D01*
X383426Y219804D01*
X387684Y216959D01*
X392416Y214999D01*
X397439Y214000D01*
X402561D01*
X407584Y214999D01*
X412316Y216959D01*
X416574Y219804D01*
X420196Y223426D01*
X423041Y227684D01*
X425001Y232416D01*
X426000Y237439D01*
Y242561D01*
X425001Y247584D01*
X423041Y252316D01*
X420196Y256574D01*
X416574Y260196D01*
X412316Y263041D01*
X407584Y265001D01*
X402561Y266000D01*
D02*
G37*
%LPD*%
D34*
X496000Y338000D02*
D03*
D35*
Y363400D02*
D03*
Y388800D02*
D03*
D37*
X354549Y536556D02*
D03*
D38*
X329149D02*
D03*
D40*
X400000Y240000D02*
D03*
Y560000D02*
D03*
D41*
X359500Y338750D02*
D03*
X395000Y422500D02*
D03*
M02*
