G04*
G04 #@! TF.GenerationSoftware,Altium Limited,Altium Designer,26.3.0 (6)*
G04*
G04 Layer_Color=65535*
%FSLAX44Y44*%
%MOMM*%
G71*
G04*
G04 #@! TF.SameCoordinates,E8035D2E-C871-41B3-A0EA-CA4AC8B1DBE5*
G04*
G04*
G04 #@! TF.FilePolarity,Positive*
G04*
G01*
G75*
%ADD10C,0.2500*%
%ADD11C,0.1000*%
%ADD12C,0.2000*%
%ADD13C,0.1500*%
D10*
X294668Y537259D02*
G03*
X294668Y537259I-1250J0D01*
G01*
X509296Y318804D02*
G03*
X509296Y318804I-1250J0D01*
G01*
X406532Y591278D02*
G03*
X406532Y591278I-1250J0D01*
G01*
D11*
X297606Y383724D02*
G03*
X298606Y383724I500J0D01*
G01*
D02*
G03*
X297606Y383724I-500J0D01*
G01*
D12*
X386332Y524665D02*
Y549247D01*
X407832Y524665D02*
Y549247D01*
X293908Y551942D02*
X365235Y585202D01*
X376307Y561457D01*
X304981Y528197D02*
X376307Y561457D01*
X293908Y551942D02*
X304981Y528197D01*
X284636Y439690D02*
X309218D01*
X284636Y418190D02*
X309218D01*
X284582Y465190D02*
X309164D01*
X284582Y443690D02*
X309164D01*
X429596Y443893D02*
Y468475D01*
X408096Y443893D02*
Y468475D01*
X401944Y451029D02*
Y486029D01*
X373944Y445029D02*
Y486029D01*
X447974Y361343D02*
Y385925D01*
X469474Y361343D02*
Y385925D01*
X499028Y361343D02*
Y385925D01*
X520528Y361343D02*
Y385925D01*
X448032Y321912D02*
Y332412D01*
Y340444D02*
Y350944D01*
X495046Y321304D02*
Y352304D01*
X498046Y321304D02*
Y352304D01*
X495046D02*
X498046D01*
X495046Y321304D02*
X498046D01*
X433956Y438403D02*
Y473403D01*
X461956Y438403D02*
Y479403D01*
X466690Y438971D02*
Y473971D01*
X494690Y438971D02*
Y479971D01*
X297328Y323519D02*
Y348101D01*
X318828Y323519D02*
Y348101D01*
X310744Y470190D02*
Y494772D01*
X289244Y470190D02*
Y494772D01*
X336244Y470309D02*
Y494892D01*
X314744Y470309D02*
Y494892D01*
X421782Y557778D02*
Y566278D01*
X416782Y557778D02*
X421782D01*
Y580278D02*
Y588778D01*
X416782D02*
X421782D01*
X478874Y373634D02*
X489374D01*
X448056Y302090D02*
Y312590D01*
X340618Y444670D02*
Y485670D01*
X368618Y450670D02*
Y485670D01*
X344344Y336032D02*
X390344D01*
X344344D02*
Y438032D01*
X390344D01*
Y336032D02*
Y438032D01*
X393844Y339032D02*
X411844D01*
D13*
X231950Y308192D02*
X233008Y308766D01*
X231448Y307097D01*
X231950Y308192D01*
X231913Y309268D01*
X231339Y310327D01*
X230504Y311107D01*
X229409Y311609D01*
X228333Y311573D01*
X227812Y311016D01*
X227571Y310200D01*
X227589Y309662D01*
X227885Y308863D01*
X229034Y306746D01*
X229331Y305948D01*
X229367Y304871D01*
X227812Y311016D02*
X227849Y309940D01*
X228145Y309141D01*
X229294Y307024D01*
X229590Y306226D01*
X229609Y305688D01*
X229367Y304871D01*
X228326Y303758D01*
X227250Y303722D01*
X226155Y304224D01*
X225320Y305004D01*
X224746Y306063D01*
X224709Y307139D01*
X225212Y308234D01*
X223651Y306565D01*
X224709Y307139D01*
X235110Y303151D02*
X228408Y302117D01*
X235389Y302891D02*
X228687Y301857D01*
X232328Y305752D02*
X231010Y304899D01*
X232050Y306012D01*
X235389Y302891D01*
X228408Y302117D02*
X231747Y298996D01*
X232787Y300109D01*
X231469Y299256D01*
X236863Y301512D02*
X234891Y296057D01*
X237141Y301252D02*
X235411Y296613D01*
X240202Y298391D02*
X234891Y296057D01*
X233294Y295464D01*
X232217Y295428D01*
X231401Y295670D01*
X231123Y295930D01*
X231105Y296468D01*
X231643Y296486D01*
X231661Y295948D01*
X236307Y302033D02*
X237976Y300472D01*
X239089Y299431D02*
X240758Y297871D01*
X242400Y296336D02*
X238758Y292441D01*
X242678Y296076D02*
X239037Y292181D01*
X241898Y295241D02*
X242974Y295278D01*
X244069Y294776D01*
X244625Y294255D01*
X245200Y293197D01*
X244958Y292380D01*
X242097Y289320D01*
X244625Y294255D02*
X244922Y293457D01*
X244680Y292640D01*
X241819Y289580D01*
X244958Y292380D02*
X246035Y292416D01*
X247129Y291914D01*
X247686Y291394D01*
X248260Y290336D01*
X248018Y289519D01*
X245157Y286459D01*
X247686Y291394D02*
X247982Y290596D01*
X247740Y289779D01*
X244879Y286719D01*
X241565Y297117D02*
X242678Y296076D01*
X237924Y293221D02*
X239871Y291401D01*
X240984Y290360D02*
X242932Y288540D01*
X244044Y287499D02*
X245992Y285678D01*
X251748Y287597D02*
X250653Y288099D01*
X249577Y288062D01*
X248518Y287488D01*
X247998Y286931D01*
X247496Y285837D01*
X247532Y284760D01*
X248106Y283701D01*
X248663Y283181D01*
X249758Y282679D01*
X250834Y282715D01*
X251893Y283290D01*
X252413Y283846D01*
X252915Y284941D01*
X252879Y286018D01*
X252304Y287076D01*
X251748Y287597D01*
X250931Y287839D01*
X249855Y287802D01*
X248796Y287228D01*
X248276Y286671D01*
X247774Y285577D01*
X247810Y284500D01*
X248106Y283701D01*
X248663Y283181D02*
X249480Y282939D01*
X250556Y282976D01*
X251615Y283550D01*
X252135Y284107D01*
X252637Y285201D01*
X252601Y286278D01*
X252304Y287076D01*
X255671Y283929D02*
X252029Y280034D01*
X255949Y283669D02*
X252308Y279774D01*
X255169Y282834D02*
X256245Y282871D01*
X257340Y282369D01*
X257897Y281848D01*
X258471Y280790D01*
X258229Y279973D01*
X255368Y276913D01*
X257897Y281848D02*
X258193Y281050D01*
X257951Y280233D01*
X255090Y277173D01*
X254836Y284709D02*
X255949Y283669D01*
X251195Y280814D02*
X253142Y278994D01*
X254255Y277953D02*
X256203Y276132D01*
X268509Y275576D02*
X263047Y269734D01*
X268787Y275316D02*
X263325Y269474D01*
X267675Y276357D02*
X270457Y273756D01*
X271031Y272697D01*
X271068Y271621D01*
X270826Y270804D01*
X270324Y269709D01*
X269023Y268318D01*
X267964Y267743D01*
X267166Y267447D01*
X266089Y267411D01*
X264995Y267913D01*
X262212Y270514D01*
X270457Y273756D02*
X270753Y272957D01*
X270789Y271881D01*
X270547Y271064D01*
X270045Y269969D01*
X268745Y268578D01*
X267686Y268004D01*
X266888Y267707D01*
X265811Y267671D01*
X264995Y267913D01*
X273032Y267698D02*
X271937Y268200D01*
X270861Y268164D01*
X269802Y267590D01*
X269282Y267033D01*
X268780Y265938D01*
X268816Y264862D01*
X269390Y263803D01*
X269947Y263283D01*
X271042Y262781D01*
X272118Y262817D01*
X273177Y263392D01*
X273697Y263948D01*
X274199Y265043D01*
X274163Y266120D01*
X273588Y267178D01*
X273032Y267698D01*
X272215Y267940D01*
X271139Y267904D01*
X270080Y267330D01*
X269560Y266773D01*
X269058Y265678D01*
X269094Y264602D01*
X269390Y263803D01*
X269947Y263283D02*
X270763Y263041D01*
X271840Y263077D01*
X272899Y263652D01*
X273419Y264208D01*
X273921Y265303D01*
X273885Y266380D01*
X273588Y267178D01*
X278776Y265979D02*
X273313Y260136D01*
X279054Y265718D02*
X273592Y259876D01*
X276453Y262936D02*
X277529Y262972D01*
X278346Y262730D01*
X278902Y262210D01*
X279477Y261152D01*
X279513Y260075D01*
X279011Y258980D01*
X278491Y258424D01*
X277432Y257849D01*
X276356Y257813D01*
X275261Y258315D01*
X274704Y258835D01*
X274408Y259634D01*
X274372Y260710D01*
X278902Y262210D02*
X279199Y261412D01*
X279235Y260335D01*
X278733Y259240D01*
X278213Y258684D01*
X277154Y258109D01*
X276077Y258073D01*
X275261Y258315D01*
X277941Y266759D02*
X279054Y265718D01*
X282213Y259115D02*
X278572Y255220D01*
X282491Y258855D02*
X278850Y254960D01*
X280931Y257185D02*
X281989Y257760D01*
X283066Y257796D01*
X283883Y257554D01*
X284717Y256774D01*
X284735Y256236D01*
X284475Y255957D01*
X283937Y255939D01*
X283919Y256478D01*
X284457Y256496D01*
X281379Y259895D02*
X282491Y258855D01*
X277737Y256000D02*
X279685Y254179D01*
X287555Y254121D02*
X286460Y254623D01*
X285384Y254587D01*
X284325Y254012D01*
X283805Y253456D01*
X283303Y252361D01*
X283339Y251284D01*
X283914Y250226D01*
X284470Y249706D01*
X285565Y249203D01*
X286642Y249240D01*
X287700Y249814D01*
X288220Y250371D01*
X288722Y251465D01*
X288686Y252542D01*
X288111Y253601D01*
X287555Y254121D01*
X286739Y254363D01*
X285662Y254327D01*
X284603Y253752D01*
X284083Y253196D01*
X283581Y252101D01*
X283617Y251024D01*
X283914Y250226D01*
X284470Y249706D02*
X285287Y249464D01*
X286363Y249500D01*
X287422Y250074D01*
X287942Y250631D01*
X288444Y251726D01*
X288408Y252802D01*
X288111Y253601D01*
X291478Y250453D02*
X288949Y245518D01*
X291756Y250193D02*
X289730Y246353D01*
X293704Y248372D02*
X288949Y245518D01*
X293704Y248372D02*
X291175Y243437D01*
X293982Y248112D02*
X291956Y244272D01*
X295930Y246292D02*
X291175Y243437D01*
X290643Y251234D02*
X292591Y249413D01*
X295095Y247072D02*
X296764Y245511D01*
X299074Y243352D02*
X297979Y243855D01*
X296902Y243818D01*
X295844Y243244D01*
X295323Y242687D01*
X294821Y241593D01*
X294857Y240516D01*
X295432Y239457D01*
X295988Y238937D01*
X297083Y238435D01*
X298160Y238471D01*
X299218Y239046D01*
X299739Y239602D01*
X300241Y240697D01*
X300205Y241774D01*
X299630Y242832D01*
X299074Y243352D01*
X298257Y243594D01*
X297180Y243558D01*
X296122Y242984D01*
X295602Y242427D01*
X295099Y241332D01*
X295136Y240256D01*
X295432Y239457D01*
X295988Y238937D02*
X296805Y238695D01*
X297882Y238731D01*
X298940Y239306D01*
X299460Y239862D01*
X299963Y240957D01*
X299926Y242034D01*
X299630Y242832D01*
X304817Y241632D02*
X299355Y235790D01*
X305095Y241372D02*
X299633Y235530D01*
X303983Y242413D02*
X305095Y241372D01*
X298520Y236570D02*
X300468Y234749D01*
X307428Y234499D02*
X308227Y234795D01*
X307187Y233682D01*
X307428Y234499D01*
X307410Y235037D01*
X307114Y235835D01*
X306001Y236876D01*
X305185Y237118D01*
X304646Y237100D01*
X304126Y236543D01*
X304144Y236005D01*
X304440Y235206D01*
X305311Y233349D01*
X305608Y232551D01*
X305626Y232013D01*
X304386Y236821D02*
X304404Y236283D01*
X304701Y235485D01*
X305572Y233628D01*
X305868Y232829D01*
X305886Y232291D01*
X305106Y231456D01*
X304567Y231438D01*
X303751Y231680D01*
X302638Y232721D01*
X302342Y233519D01*
X302323Y234057D01*
X302565Y234874D01*
X301525Y233761D01*
X302323Y234057D01*
X311828Y235078D02*
X306366Y229235D01*
X312107Y234818D02*
X306644Y228975D01*
X313068Y230269D02*
X307685Y230088D01*
X310116Y229900D02*
X309705Y226114D01*
X309838Y230160D02*
X309426Y226374D01*
X310994Y235858D02*
X312107Y234818D01*
X312233Y231049D02*
X313903Y229489D01*
X305531Y230015D02*
X307479Y228195D01*
X308592Y227154D02*
X310261Y225594D01*
X317337Y229928D02*
X316799Y229909D01*
X316817Y229371D01*
X317355Y229389D01*
X317337Y229928D01*
X315516Y227980D02*
X311875Y224085D01*
X315795Y227720D02*
X312153Y223825D01*
X314682Y228760D02*
X315795Y227720D01*
X311040Y224865D02*
X312988Y223045D01*
X358026Y550516D02*
X360279Y545683D01*
X363821Y544394D01*
X365111Y547937D01*
X362858Y552769D01*
X365274Y553895D02*
X368654Y546647D01*
X372278Y548337D01*
X372922Y550108D01*
X370669Y554941D01*
X368898Y555585D01*
X365274Y553895D01*
X372522Y557275D02*
X375902Y550027D01*
X379526Y551717D01*
X380171Y553488D01*
X377917Y558320D01*
X376146Y558965D01*
X372522Y557275D01*
X338037Y531329D02*
X334658Y538577D01*
X338200Y537288D01*
X339490Y540831D01*
X342870Y533583D01*
X341906Y541957D02*
X344322Y543084D01*
X343114Y542521D01*
X346494Y535272D01*
X345286Y534709D01*
X347702Y535836D01*
X353341Y545819D02*
X351570Y546464D01*
X349154Y545337D01*
X348509Y543566D01*
X350762Y538734D01*
X352534Y538089D01*
X354950Y539216D01*
X355594Y540987D01*
X305271Y515581D02*
X303018Y520413D01*
X304308Y523956D01*
X307850Y522667D01*
X310104Y517835D01*
X308414Y521459D01*
X303582Y519205D01*
X314535Y527254D02*
X312764Y527899D01*
X310348Y526773D01*
X309703Y525001D01*
X311956Y520169D01*
X313728Y519524D01*
X316144Y520651D01*
X316788Y522422D01*
X315662Y524838D01*
X313246Y523712D01*
X319768Y522341D02*
X316388Y529589D01*
X324600Y524594D01*
X321220Y531842D01*
X323636Y532969D02*
X327016Y525721D01*
X330640Y527411D01*
X331285Y529182D01*
X329031Y534014D01*
X327260Y534659D01*
X323636Y532969D01*
X401413Y513970D02*
X402746Y512637D01*
X405412D01*
X406745Y513970D01*
Y519302D01*
X405412Y520635D01*
X402746D01*
X401413Y519302D01*
X398747Y520635D02*
X396082D01*
X397414D01*
Y512637D01*
X398747Y513970D01*
X386751Y512637D02*
X389417Y513970D01*
X392083Y516636D01*
Y519302D01*
X390750Y520635D01*
X388084D01*
X386751Y519302D01*
Y517969D01*
X388084Y516636D01*
X392083D01*
X273347Y453930D02*
X272014Y452597D01*
Y449931D01*
X273347Y448599D01*
X278679D01*
X280012Y449931D01*
Y452597D01*
X278679Y453930D01*
Y456596D02*
X280012Y457929D01*
Y460595D01*
X278679Y461928D01*
X273347D01*
X272014Y460595D01*
Y457929D01*
X273347Y456596D01*
X274680D01*
X276013Y457929D01*
Y461928D01*
X273200Y429385D02*
X271867Y428052D01*
Y425386D01*
X273200Y424053D01*
X278532D01*
X279865Y425386D01*
Y428052D01*
X278532Y429385D01*
X273200Y432051D02*
X271867Y433384D01*
Y436049D01*
X273200Y437382D01*
X274533D01*
X275866Y436049D01*
X277199Y437382D01*
X278532D01*
X279865Y436049D01*
Y433384D01*
X278532Y432051D01*
X277199D01*
X275866Y433384D01*
X274533Y432051D01*
X273200D01*
X275866Y433384D02*
Y436049D01*
X457391Y396620D02*
X456058Y397953D01*
X453392D01*
X452060Y396620D01*
Y391288D01*
X453392Y389955D01*
X456058D01*
X457391Y391288D01*
X460057Y396620D02*
X461390Y397953D01*
X464056D01*
X465388Y396620D01*
Y395287D01*
X464056Y393954D01*
X462723D01*
X464056D01*
X465388Y392621D01*
Y391288D01*
X464056Y389955D01*
X461390D01*
X460057Y391288D01*
X480119Y490633D02*
X478786Y491965D01*
X476120D01*
X474787Y490633D01*
Y485301D01*
X476120Y483968D01*
X478786D01*
X480119Y485301D01*
X482785Y491965D02*
X488116D01*
Y490633D01*
X482785Y485301D01*
Y483968D01*
X371426Y380783D02*
Y387448D01*
X370093Y388781D01*
X367427D01*
X366094Y387448D01*
Y380783D01*
X363428Y388781D02*
X360762D01*
X362095D01*
Y380783D01*
X363428Y382116D01*
X252873Y389892D02*
X254206D01*
X256872Y392558D01*
X254206Y395224D01*
X252873D01*
X256872Y392558D02*
X260871D01*
Y397890D02*
Y400556D01*
Y399223D01*
X252873D01*
X254206Y397890D01*
X408368Y604027D02*
Y597362D01*
X409700Y596029D01*
X412366D01*
X413699Y597362D01*
Y604027D01*
X416365Y602694D02*
X417698Y604027D01*
X420364D01*
X421697Y602694D01*
Y601361D01*
X420364Y600028D01*
X419031D01*
X420364D01*
X421697Y598695D01*
Y597362D01*
X420364Y596029D01*
X417698D01*
X416365Y597362D01*
X502727Y307913D02*
Y314578D01*
X501394Y315911D01*
X498728D01*
X497395Y314578D01*
Y307913D01*
X489398Y315911D02*
X494729D01*
X489398Y310579D01*
Y309246D01*
X490730Y307913D01*
X493396D01*
X494729Y309246D01*
X465533Y352359D02*
X473531D01*
Y348360D01*
X472198Y347027D01*
X469532D01*
X468199Y348360D01*
Y352359D01*
Y349693D02*
X465533Y347027D01*
X472198Y344361D02*
X473531Y343028D01*
Y340362D01*
X472198Y339030D01*
X470865D01*
X469532Y340362D01*
Y341695D01*
Y340362D01*
X468199Y339030D01*
X466866D01*
X465533Y340362D01*
Y343028D01*
X466866Y344361D01*
X465623Y332456D02*
X473621D01*
Y328457D01*
X472288Y327124D01*
X469622D01*
X468289Y328457D01*
Y332456D01*
Y329790D02*
X465623Y327124D01*
Y319126D02*
Y324458D01*
X470955Y319126D01*
X472288D01*
X473621Y320459D01*
Y323125D01*
X472288Y324458D01*
X425897Y399099D02*
Y407097D01*
X429896D01*
X431229Y405764D01*
Y403098D01*
X429896Y401765D01*
X425897D01*
X428563D02*
X431229Y399099D01*
X439226Y407097D02*
X433895D01*
Y403098D01*
X436561Y404431D01*
X437894D01*
X439226Y403098D01*
Y400432D01*
X437894Y399099D01*
X435228D01*
X433895Y400432D01*
X454467Y246315D02*
Y238317D01*
X450468D01*
X449135Y239650D01*
Y242316D01*
X450468Y243649D01*
X454467D01*
X451801D02*
X449135Y246315D01*
X446469Y238317D02*
X441138D01*
Y239650D01*
X446469Y244982D01*
Y246315D01*
X316036Y375973D02*
Y367975D01*
X312038D01*
X310705Y369308D01*
Y371974D01*
X312038Y373307D01*
X316036D01*
X313371D02*
X310705Y375973D01*
X308039Y369308D02*
X306706Y367975D01*
X304040D01*
X302708Y369308D01*
Y370641D01*
X304040Y371974D01*
X302708Y373307D01*
Y374640D01*
X304040Y375973D01*
X306706D01*
X308039Y374640D01*
Y373307D01*
X306706Y371974D01*
X308039Y370641D01*
Y369308D01*
X306706Y371974D02*
X304040D01*
X465779Y311770D02*
X473776D01*
Y307771D01*
X472444Y306439D01*
X469778D01*
X468445Y307771D01*
Y311770D01*
Y309104D02*
X465779Y306439D01*
Y303773D02*
Y301107D01*
Y302440D01*
X473776D01*
X472444Y303773D01*
X478792Y398969D02*
Y390971D01*
X484124D01*
X486790D02*
X489456D01*
X488123D01*
Y398969D01*
X486790Y397636D01*
X323238Y580149D02*
X320822Y579022D01*
X322030Y579585D01*
X324847Y573545D01*
X324202Y571774D01*
X322994Y571211D01*
X321222Y571855D01*
X333866Y576281D02*
X329034Y574027D01*
X331613Y581113D01*
X331049Y582321D01*
X329278Y582965D01*
X326862Y581839D01*
X326217Y580067D01*
X436752Y541621D02*
X438085Y542954D01*
Y545620D01*
X436752Y546953D01*
X431420D01*
X430087Y545620D01*
Y542954D01*
X431420Y541621D01*
X430087Y538955D02*
Y536290D01*
Y537622D01*
X438085D01*
X436752Y538955D01*
X438085Y526959D02*
Y532291D01*
X434086D01*
X435419Y529625D01*
Y528292D01*
X434086Y526959D01*
X431420D01*
X430087Y528292D01*
Y530958D01*
X431420Y532291D01*
X508699Y396874D02*
X507366Y398207D01*
X504700D01*
X503368Y396874D01*
Y391542D01*
X504700Y390209D01*
X507366D01*
X508699Y391542D01*
X516697Y390209D02*
X511365D01*
X516697Y395541D01*
Y396874D01*
X515364Y398207D01*
X512698D01*
X511365Y396874D01*
X298161Y505147D02*
X296828Y506480D01*
X294163D01*
X292830Y505147D01*
Y499815D01*
X294163Y498482D01*
X296828D01*
X298161Y499815D01*
X304826Y498482D02*
Y506480D01*
X300827Y502481D01*
X306159D01*
X308328Y312644D02*
X309661Y311311D01*
X312327D01*
X313660Y312644D01*
Y317976D01*
X312327Y319308D01*
X309661D01*
X308328Y317976D01*
X305662Y319308D02*
X302996D01*
X304329D01*
Y311311D01*
X305662Y312644D01*
X414181Y480197D02*
X412848Y481530D01*
X410182D01*
X408849Y480197D01*
Y474865D01*
X410182Y473532D01*
X412848D01*
X414181Y474865D01*
X416847Y473532D02*
X419512D01*
X418180D01*
Y481530D01*
X416847Y480197D01*
X423511D02*
X424844Y481530D01*
X427510D01*
X428843Y480197D01*
Y478864D01*
X427510Y477531D01*
X426177D01*
X427510D01*
X428843Y476198D01*
Y474865D01*
X427510Y473532D01*
X424844D01*
X423511Y474865D01*
X324161Y505266D02*
X322828Y506599D01*
X320163D01*
X318830Y505266D01*
Y499935D01*
X320163Y498602D01*
X322828D01*
X324161Y499935D01*
X332159Y506599D02*
X326827D01*
Y502601D01*
X329493Y503933D01*
X330826D01*
X332159Y502601D01*
Y499935D01*
X330826Y498602D01*
X328160D01*
X326827Y499935D01*
X445068Y489601D02*
X443735Y490934D01*
X441069D01*
X439736Y489601D01*
Y484269D01*
X441069Y482936D01*
X443735D01*
X445068Y484269D01*
X447734Y482936D02*
X450399D01*
X449067D01*
Y490934D01*
X447734Y489601D01*
X454398D02*
X455731Y490934D01*
X458397D01*
X459730Y489601D01*
Y484269D01*
X458397Y482936D01*
X455731D01*
X454398Y484269D01*
Y489601D01*
X383279Y501195D02*
X381946Y502528D01*
X379280D01*
X377947Y501195D01*
Y495863D01*
X379280Y494530D01*
X381946D01*
X383279Y495863D01*
X385945Y494530D02*
X388610D01*
X387277D01*
Y502528D01*
X385945Y501195D01*
X397941Y494530D02*
X392609D01*
X397941Y499862D01*
Y501195D01*
X396608Y502528D01*
X393942D01*
X392609Y501195D01*
X351286Y501664D02*
X349953Y502997D01*
X347287D01*
X345954Y501664D01*
Y496332D01*
X347287Y494999D01*
X349953D01*
X351286Y496332D01*
X353952Y494999D02*
X356618D01*
X355285D01*
Y502997D01*
X353952Y501664D01*
X360616Y494999D02*
X363282D01*
X361949D01*
Y502997D01*
X360616Y501664D01*
X241682Y428913D02*
X240349Y427580D01*
Y424914D01*
X241682Y423581D01*
X247014D01*
X248347Y424914D01*
Y427580D01*
X247014Y428913D01*
X248347Y431579D02*
Y434244D01*
Y432912D01*
X240349D01*
X241682Y431579D01*
Y438243D02*
X240349Y439576D01*
Y442242D01*
X241682Y443575D01*
X243015D01*
X244348Y442242D01*
X245681Y443575D01*
X247014D01*
X248347Y442242D01*
Y439576D01*
X247014Y438243D01*
X245681D01*
X244348Y439576D01*
X243015Y438243D01*
X241682D01*
X244348Y439576D02*
Y442242D01*
X256012Y357285D02*
X254679Y355952D01*
Y353286D01*
X256012Y351953D01*
X261344D01*
X262677Y353286D01*
Y355952D01*
X261344Y357285D01*
X262677Y359951D02*
Y362617D01*
Y361284D01*
X254679D01*
X256012Y359951D01*
X254679Y366615D02*
Y371947D01*
X256012D01*
X261344Y366615D01*
X262677D01*
X462660Y586325D02*
X463993Y587658D01*
Y590324D01*
X462660Y591657D01*
X457328D01*
X455995Y590324D01*
Y587658D01*
X457328Y586325D01*
X455995Y583659D02*
Y580994D01*
Y582326D01*
X463993D01*
X462660Y583659D01*
X455995Y572996D02*
X463993D01*
X459994Y576995D01*
Y571663D01*
M02*
