M48
;Layer_Color=9474304
;FILE_FORMAT=4:2
METRIC,LZ
;TYPE=PLATED
T01F00S00C0.30
T03F00S00C0.99
T04F00S00C1.02
T05F00S00C3.20
%
T01
X00383Y003385
X003822Y003872
X005215
X00553Y003942
X005195Y003048
X005215Y004147
X005465Y004055
X00577Y004025
X004488Y005197
X0037Y004633
X0035Y004462
X003492Y004103
T03
X003775Y002175
Y002825
X004225
Y002175
T04
X00304Y00566
X00327Y005768
X0035Y005875
T05
X004875Y002484
Y005516
X00225Y004
M30
